/* XPM */
static char *result[] = {
/* columns rows colors chars-per-pixel */
"96 96 4 1 ",
"  c black",
". c #151414",
"X c #1A1919",
"o c #A19E9E",
/* pixels */
"                                                                                                ",
"                                                                                                ",
"                                                                                                ",
"                                                                                                ",
"                                                                                                ",
"        o                                                                                       ",
"                                                                                 oo             ",
"                                                                                 oo             ",
"                                                            .....                               ",
"                                                              XXX......                         ",
"                                                              XXX......                         ",
"                           ......         oo                   XXXXXXXX...                      ",
"                       ....XXXXXX                                    XXX...                     ",
"                       ....XXXXXX                                    XXX...                     ",
"                     ...XXXXX                                          XXXX..                   ",
"                    ...XXX                                                X...                  ",
"                    ...XXX                                                X...                  ",
"                  ...XXX                                         o        XXX...                ",
"                 ...XXX                                                    XXX...               ",
"                 ...XXX                                                    XXX...               ",
"               ...XXX                                                        XXX.               ",
"               ..XXX                                                          XX...             ",
"               ..XXX                                                          XX...             ",
"              .XXX                                                            XXX..             ",
"              .XX                   ..................                           ..             ",
"              .XX                   ..................                           ..             ",
"            ...XX                .....               ......                                     ",
"            ..X                  XXX                     ...                                    ",
"            ..X                  XXX                     ...                                    ",
"            ..X                                             ..                                  ",
"           .XX                                                .                                 ",
"           .XX                                                .                                 ",
"           .XX                                                .                                 ",
"           .XX                                                 ..                               ",
"           .XX                                                 ..                               ",
"           .XX                                                 ..                               ",
"           .XX             oo                                  ...                              ",
"           .XX             oo                                  ...                              ",
"           .                                    oo               .                              ",
"           .                                                     .                       o      ",
"           .                                                     .                       o      ",
"                                                                 ...                            ",
"                                                                                                ",
"                                                                                                ",
"                                       ..                                                       ",
"                                      X...                                                      ",
"                                      X...                                                      ",
"                                      XXX...                                                    ",
"               oo                      XXX...                                                   ",
"               oo                      XXX...                                                   ",
"                                         XXXX........                                           ",
"                                            XXX                                  ..             ",
"                                            XXX                                  ..             ",
"                                                                                   .            ",
"                                                                                   .            ",
"                                                                                   .            ",
"                                                               oo                  .            ",
"                                         o                                      X..             ",
"                                         o                                      X..             ",
"                                                                                X..             ",
"                                                                                X..             ",
"                                                                                X..             ",
"                             ....                                               X..             ",
"                              XXX...                                          XXX..             ",
"                              XXX...                                          XXX..             ",
"                                XXXX......               .....                XX...             ",
"                                      XXXX.................                   XX.               ",
"                                      XXXX.................                   XX.               ",
"                                                                             XXX.               ",
"                                                                           XXX...               ",
"                                                                           XXX...               ",
"                                                                          XXX...                ",
"                                                                        XXX...                  ",
"                                                                        XXX...                  ",
"            ...                    o                                   XXX...                   ",
"              ...                                                      ....                     ",
"              ...                                                      ....                     ",
"              X...                                                  ....                        ",
"              XXX....                                                                           ",
"              XXX....                                                                           ",
"               XXXXX......                                                                      ",
"                 XXXXXXX........                                                                ",
"                 XXXXXXX........                                                                ",
"         oo         XXXXXXXXXXXX....                                               o            ",
"                        XXXXXXXXXXXX........                                                    ",
"                        XXXXXXXXXXXX........                                                    ",
"                                 XXXXXXXXX........                                              ",
"                                       XXXXXXXXXXX                                              ",
"                                       XXXXXXXXXXX                                              ",
"                                                                 o                              ",
"                                                                                                ",
"                                                                                                ",
"                                                                                                ",
"                                                                                                ",
"                                                                                                ",
"                                                                                                "
};
