/* XPM */
static char *result[] = {
/* columns rows colors chars-per-pixel */
"96 96 4 1 ",
"  c black",
". c #151414",
"X c #1A1919",
"o c #A19E9E",
/* pixels */
"                                                                                                ",
"                                                                                                ",
"                                                                                                ",
"                                                                                                ",
"                                                                                                ",
"                                                                                       oo       ",
"              o                                                                                 ",
"              o                                                                                 ",
"                                ....                                                            ",
"                          ......XXX                                                             ",
"                          ......XXX                                                             ",
"                       ...XXXXXXX                    o         ......                           ",
"                     ...XXX                                    XXXXXX.....                      ",
"                     ...XXX                                    XXXXXX.....                      ",
"                    .XXXXX                                          XXXX...                     ",
"                  ...XX                                                XXX...                   ",
"                  ...XX                                                XXX...                   ",
"                 ...XXX       oo                                        XXX...                  ",
"               ...XXX                                                     XXX...                ",
"               ...XXX                                                     XXX...                ",
"               ..XXX                                                       XXX...               ",
"              ...X                                                           XXX.               ",
"              ...X                                                           XXX.               ",
"              .XXX                                                            XXX..             ",
"              .                           ..................                    X..             ",
"              .                           ..................                    X..             ",
"                                      ......               ....                 X...            ",
"                                    ...                     XXX                  XX.            ",
"                                    ...                     XXX                  XX.            ",
"                                   .                                             XX.            ",
"                                 ..                                                X..          ",
"                                 ..                                                X..          ",
"                                 ..                                                X..          ",
"                                .                                                  X..          ",
"                                .                                                  X..          ",
"                                .                                                  X..          ",
"                              ...                                   o              X..          ",
"                              ...                                   o              X..          ",
"                              ..               o                                    ..          ",
"      oo                      ..                                                    ..          ",
"      oo                      ..                                                    ..          ",
"                             ...                                                                ",
"                                                                                                ",
"                                                                                                ",
"                                                        .                                       ",
"                                                      ...XX                                     ",
"                                                      ...XX                                     ",
"                                                     ...XXX                                     ",
"                                                   ...XXX                       o               ",
"                                                   ...XXX                       o               ",
"                                            .......XXXXX                                        ",
"              .                                   XXX                                           ",
"              .                                   XXX                                           ",
"            ..                                                                                  ",
"            ..                                                                                  ",
"            ..                                                                                  ",
"            ..                  o                                                               ",
"              .XX                                     oo                                        ",
"              .XX                                     oo                                        ",
"              .XX                                                                               ",
"              .XX                                                                               ",
"              .XX                                                                               ",
"              .XX                                              .....                            ",
"              .XXX                                          ...XXX                              ",
"              .XXX                                          ...XXX                              ",
"              ...X                 ....               ......XXXXX                               ",
"               ..X                    ................XXXXX                                     ",
"               ..X                    ................XXXXX                                     ",
"               ..XXX                                                                            ",
"               ...XXX                                                                           ",
"               ...XXX                                                                           ",
"                 ...XXX                                                                         ",
"                  ...XXX                                                                        ",
"                  ...XXX                                                                        ",
"                    ...XXX                                  oo                   ...            ",
"                     .....                                                      ...             ",
"                     .....                                                      ...             ",
"                        .....                                                 ...XX             ",
"                                                                           .....XXX             ",
"                                                                           .....XXX             ",
"                                                                       ......XXXX               ",
"                                                                 .......XXXXXXXX                ",
"                                                                 .......XXXXXXXX                ",
"            oo                                              .....XXXXXXXXXXXX         o         ",
"                                                     .......XXXXXXXXXXXX                        ",
"                                                     .......XXXXXXXXXXXX                        ",
"                                               .......XXXXXXXXX                                 ",
"                                               XXXXXXXXXX                                       ",
"                                               XXXXXXXXXX                                       ",
"                              oo                                                                ",
"                                                                                                ",
"                                                                                                ",
"                                                                                                ",
"                                                                                                ",
"                                                                                                ",
"                                                                                                "
};
