/* XPM */
static char *result[] = {
/* columns rows colors chars-per-pixel */
"96 96 12 1 ",
"  c #222122",
". c #433169",
"X c #767676",
"o c #451BCC",
"O c #541BCC",
"+ c #5104F2",
"@ c #7944E8",
"# c #8B1BCC",
"$ c #808080",
"% c gray97",
"& c white",
"* c None",
/* pixels */
"************************************************************************************************",
"************************************************************************************************",
"************************************************************************************************",
"************************************************************************************************",
"************************************************************************************************",
"************************************************************         ***************************",
"*********************************************************   XX$XXXXXX     **********************",
"*********************************************************   XX$XXXXXX     **********************",
"******************************************************   XXXXXX$$XXXXXXX     *******************",
"***************************************************** XXXXXXXXXXX$$$XXXXXXX     ****************",
"***************************************************** XXXXXXXXXXX$$$XXXXXXX     ****************",
"***************************************************   XXXXXXXXXXXXXX$$$XXXXXXX   ***************",
"************************************************** XXXXXXXXXXXXXXXXXXXX$XXXXXXXX   *************",
"************************************************** XXXXXXXXXXXXXXXXXXXX$XXXXXXXX   *************",
"***************************************************      XXXXXXXXXXXX%%X$$$XXXXXX  *************",
"***************************************************&&.##      XXXXXXXXX%%%X$$XXXXXX ************",
"***************************************************&&.##      XXXXXXXXX%%%X$$XXXXXX ************",
"***************************************************..#######     XXXXXXXXXXXX$$$XXX   **********",
"**************************************************&..##########   XXXXXXXXXXXXXX$$$X  **********",
"**************************************************&..##########   XXXXXXXXXXXXXX$$$X  **********",
"************************************************&&.##############   XXXXXXXXXXXXXXX$XX *********",
"************************************************..################## XXXXXXXXXXXXXXXXX *********",
"************************************************..################## XXXXXXXXXXXXXXXXX *********",
"***********************************************&..###################   XXXXXXXXXXXXXX *********",
"*********************************************&&.######ooooooooo########   XXXXXXXXXXXXX  *******",
"*********************************************&&.######ooooooooo########   XXXXXXXXXXXXX  *******",
"********************************************&..#######ooooo###############   XXXXXX%XXX  *******",
"********************************************.@@######ooo###################     XXXXXXX  *******",
"********************************************.@@######ooo###################     XXXXXXX  *******",
"******************************************&&.@@@####################%#########   XXXXXX  *******",
"*****************************************&..@@@@@@@#############################   XXX *********",
"*****************************************&..@@@@@@@#############################   XXX *********",
"*****************************************.OO@@@@@@@@@############################   XX *********",
"***************************************&&.OOOOO@@@@ooo##################%%#######.. XX *********",
"***************************************&&.OOOOO@@@@ooo##################%%#######.. XX *********",
"**************************************&..OOOOOOO@@ooo@@@@#########ooo###%%######.&&   **********",
"**************************************.OOOOOOOO@@@ooo@@@@@@#######ooo##%########.***************",
"**************************************.OOOOOOOO@@@ooo@@@@@@#######ooo##%########.***************",
"************************************&&.OOOOOOOO@OOooo@@@@@@@#####oooo#########..&***************",
"***********************************&..OOOOOOOOO@oooooO@@@@@@@@@##ooo#########.&&****************",
"***********************************&..OOOOOOOOO@oooooO@@@@@@@@@##ooo#########.&&****************",
"*********************************&&.OOOOOOOOOOOOoooOO@@@O@@@@@@@@ooo#########.******************",
"*********************************..OOOOOOOOOOOOOoooOOO@@OOO@@@@ooo#########..&******************",
"*********************************..OOOOOOOOOOOOOoooOOO@@OOO@@@@ooo#########..&******************",
"********************************&..OOOOOOOOOOOOOOOOOOO@@OOOO@@oooo@@%#####.&&*******************",
"******************************&&.OOOOOOOOOOOOOOOOOOOOOOOOOOOooooo@%%%@@#..&*********************",
"******************************&&.OOOOOOOOOOOOOOOOOOOOOOOOOOOooooo@%%%@@#..&*********************",
"******************************..+OOOOOooooOOOOOOOOOOOOOOOOOoooooo%%%@@@@..**********************",
"*****************************&..++++ooooooOOOOOOOOOOOOOOOOOOOOoooO@@@@@.&&**********************",
"*****************************&..++++ooooooOOOOOOOOOOOOOOOOOOOOoooO@@@@@.&&**********************",
"***************************&&.+++++oooooooOOOOOOOOoooOOOOOOOOOoOOO@@@..&************************",
"***************************..++++++ooooooOOOOOOOoooOOOOOOOOOOOOOOO@@O..*************************",
"***************************..++++++ooooooOOOOOOOoooOOOOOOOOOOOOOOO@@O..*************************",
"**************************&..++++oooooOOO+OOOOOOoooOOOOOOOOOOOOOOOOO.&&*************************",
"************************&&.++++++oo+++++++OOOooooooOOOOOOOOOOOOOOO..&***************************",
"************************&&.++++++oo+++++++OOOooooooOOOOOOOOOOOOOOO..&***************************",
"***********************&..+++++++++++++++++++oooooOOOOOOOOOOOOOOOO..****************************",
"***********************.++++++++++++++++++++oooo+++OOOOOOOOOOOOOO.&&****************************",
"***********************.++++++++++++++++++++oooo+++OOOOOOOOOOOOOO.&&****************************",
"*****************   *&&.++++++++++++++++++++oooo+++OOOOOOOOOOOO..&******************************",
"***************** XX   +++++++++++++++++++++ooo++++OOOooOOOOOO.&&*******************************",
"***************** XX   +++++++++++++++++++++ooo++++OOOooOOOOOO.&&*******************************",
"***************   XXXXX +++++++++++++++++++++++++++OOooooOOOOO.*********************************",
"***************  XXXXXXX   ++++++++++++++++++++++++ooooo++++..&*********************************",
"***************  XXXXXXX   ++++++++++++++++++++++++ooooo++++..&*********************************",
"***************  XXXXXXXXXX   ++++++++o+++++++++++oooooo+++.&&**********************************",
"***************  XXXXXXXXXXXXX  ++++ooo+++++++++oooooo+++++.************************************",
"***************  XXXXXXXXXXXXX  ++++ooo+++++++++oooooo+++++.************************************",
"**************   XXXXXXXXXXXXXXX   +ooo+++++++++ooo++++++..&************************************",
"************** $$XXXXXXXXXXXXXXXXXX ++++++++++++++ooo+++.&&*************************************",
"************** $$XXXXXXXXXXXXXXXXXX ++++++++++++++ooo+++.&&*************************************",
"***************  $$$XXXXXXXXXXXXXXXX   ++++++oooooooo+++.***************************************",
"***************  XXX$XXXXXXXXX%%XXXXXXX  +++++++++++++..&***************************************",
"***************  XXX$XXXXXXXXX%%XXXXXXX  +++++++++++++..&***************************************",
"***************   XXX$$$XXX%%X%%XXXXXXXXX   +++++++++.&&****************************************",
"*****************   XXXX$$XXXX%%XXXXXXXXXXXX   ++++..&******************************************",
"*****************   XXXX$$XXXX%%XXXXXXXXXXXX   ++++..&******************************************",
"******************   XXXXX$$$XXXXXXXXXXXXXXXXXX +++..*******************************************",
"******************** XXXXXXXX$XXX%%XXXXXXXXXXXXX   &&*******************************************",
"******************** XXXXXXXX$XXX%%XXXXXXXXXXXXX   &&*******************************************",
"********************   XXXXXXX$$$XXXXXXXXXXXXXXXXX   *******************************************",
"*********************   XXXXXXXXX$$XXXXXXXXXXXXXXXX  *******************************************",
"*********************   XXXXXXXXX$$XXXXXXXXXXXXXXXX  *******************************************",
"***********************   XXXXXXXXX$$$XXXXXXXXXXXX   *******************************************",
"************************     XXXXXXXXX$XXXXXXXXX   *********************************************",
"************************     XXXXXXXXX$XXXXXXXXX   *********************************************",
"***************************      XXXXXX$$$XXX     **********************************************",
"********************************      XXXX$$   *************************************************",
"********************************      XXXX$$   *************************************************",
"************************************        ****************************************************",
"************************************************************************************************",
"************************************************************************************************",
"************************************************************************************************",
"************************************************************************************************",
"************************************************************************************************",
"************************************************************************************************"
};
