/* XPM */
static char *result[] = {
/* columns rows colors chars-per-pixel */
"96 96 11 1 ",
"  c black",
". c gray6",
"X c #561010",
"o c #8D0909",
"O c #DD1F1F",
"+ c #E81D1D",
"@ c #E86060",
"# c #D9881A",
"$ c #3E1AD9",
"% c #6B4AFB",
"& c None",
/* pixels */
"&&&&&&&&&&&&&&&&&&&&&&&&&&&&&&&&&&&&&&&&&&&&&&&   &&&&&&&&&&&&&&&&&&&&&&&&&&&&&&&&&&&&&&&&&&&&&&",
"&&&&&&&&&&&&&&&&&&&&&&&&&&&&&&&&&&&&&&&&&&&&&&&   &&&&&&&&&&&&&&&&&&&&&&&&&&&&&&&&&&&&&&&&&&&&&&",
"&&&&&&&&&&&&&&&&&&&&&&&&&&&&&&&&&&&&&&&&&&&&&&&   &&&&&&&&&&&&&&&&&&&&&&&&&&&&&&&&&&&&&&&&&&&&&&",
"&&&&&&&&&&&&&&&&&&&&&&&&&&&&&&&&&&&&&&&&&&&&&      &&&&&&&&&&&&&&&&&&&&&&&&&&&&&&&&&&&&&&&&&&&&&",
"&&&&&&&&&&&&&&&&&&&&&&&&&&&&&&&&&&&&&&&&&&&&&      &&&&&&&&&&&&&&&&&&&&&&&&&&&&&&&&&&&&&&&&&&&&&",
"&&&&&&&&&&&&&&&&&&&&&&&&&&&&&&&&&&&&&&&&&&&&&  ooo &&&&&&&&&&&&&&&&&&&&&&&&&&&&&&&&&&&&&&&&&&&&&",
"&&&&&&&&&&&&&&&&&&&&&&&&&&&&&&&&&&&&&&&&&&&&&  OOO &&&&&&&&&&&&&&&&&&&&&&&&&&&&&&&&&&&&&&&&&&&&&",
"&&&&&&&&&&&&&&&&&&&&&&&&&&&&&&&&&&&&&&&&&&&&&  OOO &&&&&&&&&&&&&&&&&&&&&&&&&&&&&&&&&&&&&&&&&&&&&",
"&&&&&&&&&&&&&&&&&&&&&&&&&&&&&&&&&&&&&&&&&&&&   ooo   &&&&&&&&&&&&&&&&&&&&&&&&&&&&&&&&&&&&&&&&&&&",
"&&&&&&&&&&&&&&&&&&&&&&&&&&&&&&&&&&&&&&&&&&   oooooo   &&&&&&&&&&&&&&&&&&&&&&&&&&&&&&&&&&&&&&&&&&",
"&&&&&&&&&&&&&&&&&&&&&&&&&&&&&&&&&&&&&&&&&&   oooooo   &&&&&&&&&&&&&&&&&&&&&&&&&&&&&&&&&&&&&&&&&&",
"&&&&&&&&&&&&&&&&&&&&&&&&&&&&&&&&&&&&&&&&&&  ooooooooo &&&&&&&&&&&&&&&&&&&&&&&&&&&&&&&&&&&&&&&&&&",
"&&&&&&&&&&&&&&&&&&&&&&&&&&&&&&&&&&&&&&&&&&  ooooooooo &&&&&&&&&&&&&&&&&&&&&&&&&&&&&&&&&&&&&&&&&&",
"&&&&&&&&&&&&&&&&&&&&&&&&&&&&&&&&&&&&&&&&&&  ooooooooo &&&&&&&&&&&&&&&&&&&&&&&&&&&&&&&&&&&&&&&&&&",
"&&&&&&&&&&&&&&&&&&&&&&&&&&&&&&&&&&&&&&&&& ooooo@@@oooo  &&&&&&&&&&&&&&&&&&&&&&&&&&&&&&&&&&&&&&&&",
"&&&&&&&&&&&&&&&&&&&&&&&&&&&&&&&&&&&&&&&&& oooooooooooo  &&&&&&&&&&&&&&&&&&&&&&&&&&&&&&&&&&&&&&&&",
"&&&&&&&&&&&&&&&&&&&&&&&&&&&&&&&&&&&&&&&&& oooooooooooo  &&&&&&&&&&&&&&&&&&&&&&&&&&&&&&&&&&&&&&&&",
"&&&&&&&&&&&&&&&&&&&&&&&&&&&&&&&&&&&&&&&&& oooooooooooo  &&&&&&&&&&&&&&&&&&&&&&&&&&&&&&&&&&&&&&&&",
"&&&&&&&&&&&&&&&&&&&&&&&&&&&&&&&&&&&&&&&&& oooooooooooo  &&&&&&&&&&&&&&&&&&&&&&&&&&&&&&&&&&&&&&&&",
"&&&&&&&&&&&&&&&&&&&&&&&&&&&&&&&&&&&&&&&&& oooooooooooo  &&&&&&&&&&&&&&&&&&&&&&&&&&&&&&&&&&&&&&&&",
"&&&&&&&&&&&&&&&&&&&&&&&&&&&&&&&&&&&&&&&&& oooooooooooo  &&&&&&&&&&&&&&&&&&&&&&&&&&&&&&&&&&&&&&&&",
"&&&&&&&&&&&&&&&&&&&&&&&&&&&&&&&&&&&&&&&   oooooooooooo   &&&&&&&&&&&&&&&&&&&&&&&&&&&&&&&&&&&&&&&",
"&&&&&&&&&&&&&&&&&&&&&&&&&&&&&&&&&&&&&&&   oooooooooooo   &&&&&&&&&&&&&&&&&&&&&&&&&&&&&&&&&&&&&&&",
"&&&&&&&&&&&&&&&&&&&&&&&&&&&&&&&&&&&&&&&  oooooo@@@oooooo &&&&&&&&&&&&&&&&&&&&&&&&&&&&&&&&&&&&&&&",
"&&&&&&&&&&&&&&&&&&&&&&&&&&&&&&&&&&&&&&&   ooooo@@@oooo   &&&&&&&&&&&&&&&&&&&&&&&&&&&&&&&&&&&&&&&",
"&&&&&&&&&&&&&&&&&&&&&&&&&&&&&&&&&&&&&&&   ooooo@@@oooo   &&&&&&&&&&&&&&&&&&&&&&&&&&&&&&&&&&&&&&&",
"&&&&&&&&&&&&&&&&&&&&&&&&&&&&&&&&&&&&&&&&& ooooo@@@oooo  &&&&&&&&&&&&&&&&&&&&&&&&&&&&&&&&&&&&&&&&",
"&&&&&&&&&&&&&&&&&&&&&&&&&&&&&&&&&&&&&&&&& ooooo@@@oooo  &&&&&&&&&&&&&&&&&&&&&&&&&&&&&&&&&&&&&&&&",
"&&&&&&&&&&&&&&&&&&&&&&&&&&&&&&&&&&&&&&&&& ooooo@@@oooo  &&&&&&&&&&&&&&&&&&&&&&&&&&&&&&&&&&&&&&&&",
"&&&&&&&&&&&&&&&&&&&&&&&&&&&&&&&&&&&&&&&&& oooooooooooo  &&&&&&&&&&&&&&&&&&&&&&&&&&&&&&&&&&&&&&&&",
"&&&&&&&&&&&&&&&&&&&&&&&&&&&&&&&&&&&&&&&&& oooooooooooo  &&&&&&&&&&&&&&&&&&&&&&&&&&&&&&&&&&&&&&&&",
"&&&&&&&&&&&&&&&&&&&&&&&&&&&&&&&&&&&&&&&&& oooooooooooo  &&&&&&&&&&&&&&&&&&&&&&&&&&&&&&&&&&&&&&&&",
"&&&&&&&&&&&&&&&&&&&&&&&&&&&&&&&&&&&&&&&&& oooooooooooo  &&&&&&&&&&&&&&&&&&&&&&&&&&&&&&&&&&&&&&&&",
"&&&&&&&&&&&&&&&&&&&&&&&&&&&&&&&&&&&&&&&&& oooooooooooo  &&&&&&&&&&&&&&&&&&&&&&&&&&&&&&&&&&&&&&&&",
"&&&&&&&&&&&&&&&&&&&&&&&&&&&&&&&&&&&&&&&&& oooooooooooo  &&&&&&&&&&&&&&&&&&&&&&&&&&&&&&&&&&&&&&&&",
"&&&&&&&&&&&&&&&&&&&&&&&&&&&&&&&&&&&&&&&&& oooooooooooo  &&&&&&&&&&&&&&&&&&&&&&&&&&&&&&&&&&&&&&&&",
"&&&&&&&&&&&&&&&&&&&&&&&&&&&&&&&&&&&&&&&&& oooooooooooo  &&&&&&&&&&&&&&&&&&&&&&&&&&&&&&&&&&&&&&&&",
"&&&&&&&&&&&&&&&&&&&&&&&&&&&&&&&&&&&&&&&&& oooooooooooo  &&&&&&&&&&&&&&&&&&&&&&&&&&&&&&&&&&&&&&&&",
"&&&&&&&&&&&&&&&&&&&&&&&&&&&&&&&&&&&&&&&&& oooooooooooo  &&&&&&&&&&&&&&&&&&&&&&&&&&&&&&&&&&&&&&&&",
"&&&&&&&&&&&&&&&&& ###  &&&&&&&&&&&&&&&&&& oooooooooooo  &&&&&&&&&&&&&&&&&& ###  &&&&&&&&&&&&&&&&",
"&&&&&&&&&&&&&&&&& ###  &&&&&&&&&&&&&&&&&& oooooooooooo  &&&&&&&&&&&&&&&&&& ###  &&&&&&&&&&&&&&&&",
"&&&&&&&&&&&&&&&&& +++  &&&&&&&&&&&&&&&&   oooooooooooo   &&&&&&&&&&&&&&&&& +++  &&&&&&&&&&&&&&&&",
"&&&&&&&&&&&&&&&&& +++  &&&&&&&&&&&&&&&&  o@@ooooooooo@oo &&&&&&&&&&&&&&&&& +++  &&&&&&&&&&&&&&&&",
"&&&&&&&&&&&&&&&&& +++  &&&&&&&&&&&&&&&&  o@@ooooooooo@oo &&&&&&&&&&&&&&&&& +++  &&&&&&&&&&&&&&&&",
"&&&&&&&&&&&&&&&&& +++  &&&&&&&&&&&&&&&&  o@@ooooooooo@oo &&&&&&&&&&&&&&&&& +++  &&&&&&&&&&&&&&&&",
"&&&&&&&&&&&&&&&&& +++  &&&&&&&&&&&&&&&&  o@@ooooooooo@oo &&&&&&&&&&&&&&&&& +++  &&&&&&&&&&&&&&&&",
"&&&&&&&&&&&&&&&&& +++  &&&&&&&&&&&&&&&&  o@@ooooooooo@oo &&&&&&&&&&&&&&&&& +++  &&&&&&&&&&&&&&&&",
"&&&&&&&&&&&&&&&&& +++  &&& ##### &&&&&&  o@@ooooooooo@oo &&&&&&  ####  &&& +++  &&&&&&&&&&&&&&&&",
"&&&&&&&&&&&&&&&&& +++  &&& +++++ &&&&&&  o@@ooooooooo@oo &&&&&&  ++++  &&& +++  &&&&&&&&&&&&&&&&",
"&&&&&&&&&&&&&&&&& +++  &&& +++++ &&&&&&  o@@ooooooooo@oo &&&&&&  ++++  &&& +++  &&&&&&&&&&&&&&&&",
"&&&&&&&&&&&&&&&&& +++  &&& +++++ &&&&&&  o@@ooooooooo@oo &&&&&&  ++++  &&& +++  &&&&&&&&&&&&&&&&",
"&&&&&&&&&&&&&&&&& +++  &&& +++++ &&&&&   o@@ooooooooo@oo   &&&&  ++++  &&& +++  &&&&&&&&&&&&&&&&",
"&&&&&&&&&&&&&&&&& +++  &&& +++++ &&&&&   o@@ooooooooo@oo   &&&&  ++++  &&& +++  &&&&&&&&&&&&&&&&",
"&&&&&&&&&&&&&&&&& +++  &&& +++++ &&&&& ooo@@ooo+++ooo@ooo  &&&&  ++++  &&& +++  &&&&&&&&&&&&&&&&",
"                                       oooooo......oooooo                                       ",
"                                       oooooo......oooooo                                       ",
"&&      Xooooo   ooooooooooooooooooooooooooo.........ooooooooooooooooooooooooooo   ooooXX      &",
"&&&      XXooo   oooooooOOOOOOOOOOOOoooooooo.........oooooooOOOOOOOOOOOOoooooooo   oooX      &&&",
"&&&      XXooo   oooooooOOOOOOOOOOOOoooooooo.........oooooooOOOOOOOOOOOOoooooooo   oooX      &&&",
"&&&&&&      XXX   oooooooooooooooooooooooo+++oooooo+++oooooooooooooooooooooooo   XXX      &&&&&&",
"&&&&&&&&&                              oooooooooooooooooo                              &&&&&&&&&",
"&&&&&&&&&                              oooooooooooooooooo                              &&&&&&&&&",
"&&&&&&&&&&&&&&&&&&&&&&&&&&&&&&&&    oooooooooooooooooooooooo     &&&&&&&&&&&&&&&&&&&&&&&&&&&&&&&",
"&&&&&&&&&&&&&&&&&&&&&&&&&&&&&    ooOooooooooooooooooooooooooOOo     &&&&&&&&&&&&&&&&&&&&&&&&&&&&",
"&&&&&&&&&&&&&&&&&&&&&&&&&&&&&    ooOooooooooooooooooooooooooOOo     &&&&&&&&&&&&&&&&&&&&&&&&&&&&",
"&&&&&&&&&&&&&&&&&&&&&&&&&&&   oooooooooooooooooooooooooooooooooooo   &&&&&&&&&&&&&&&&&&&&&&&&&&&",
"&&&&&&&&&&&&&&&&&&&&&&&&   oooooOooooo    oooooooooooo     ooooOOoooo   &&&&&&&&&&&&&&&&&&&&&&&&",
"&&&&&&&&&&&&&&&&&&&&&&&&   oooooOooooo    oooooooooooo     ooooOOoooo   &&&&&&&&&&&&&&&&&&&&&&&&",
"&&&&&&&&&&&&&&&&&&&&&     oOOoooo         oooooooooooo         oooooOoo    &&&&&&&&&&&&&&&&&&&&&",
"&&&&&&&&&&&&&&&&&&     .ooooo      &&&   ooooooooooooooo   &&&      oooo..    &&&&&&&&&&&&&&&&&&",
"&&&&&&&&&&&&&&&&&&     .ooooo      &&&   ooooooooooooooo   &&&      oooo..    &&&&&&&&&&&&&&&&&&",
"&&&&&&&&&&&&&&&&&   ooo...o   &&&&&&   oo@oooooooooooo@@o   &&&&&&   oo...ooo   &&&&&&&&&&&&&&&&",
"&&&&&&&&&&&&&&   ooooooo   &&&&&&     o@@@oooooooooooo@@@oo    &&&&&&   oooooooo   &&&&&&&&&&&&&",
"&&&&&&&&&&&&&&   ooooooo   &&&&&&     o@@@oooooooooooo@@@oo    &&&&&&   oooooooo   &&&&&&&&&&&&&",
"&&&&&&&&&&&&  oooo@@ooo   &&&&&&   ooooooo   oooooo   oooooooo   &&&&&&   ooo@ooooo &&&&&&&&&&&&",
"&&&&&&&&&&& ooo@@ooo   &&&&&&&   oooooooo    ooOOOo     ooooooo   &&&&&&&&   ooo@ooo  &&&&&&&&&&",
"&&&&&&&&&&& ooo@@ooo   &&&&&&&   oooooooo    ooOOOo     ooooooo   &&&&&&&&   ooo@ooo  &&&&&&&&&&",
"&&&&&&&&&  o@@oooo   &&&&&&&&&  ooo@ooo   && ooOOOo  &   ooo@@ooo &&&&&&&&&   ooooo@oo &&&&&&&&&",
"&&&&&&&&   oooooo   &&&&&&&&&   .@@ooo   &&& ooOOOo  &&&   ooo@..   &&&&&&&&&   oooooo   &&&&&&&",
"&&&&&&&&   oooooo   &&&&&&&&&   .@@ooo   &&& ooOOOo  &&&   ooo@..   &&&&&&&&&   oooooo   &&&&&&&",
"&&&&&&   XXXXX   &&&&&&&&&&   oo...o   &&&&& ooOOOo  &&&&   oo...o   &&&&&&&&&&&   XXXX   &&&&&&",
"&&&&&   .   $$$&&&&&&&&&&&&  oooo     &&&&&& ......  &&&&&&    ooooo &&&&&&&&&&&&$$$   ..   &&&&",
"&&&&&   .   $$$&&&&&&&&&&&&  oooo     &&&&&& ......  &&&&&&    ooooo &&&&&&&&&&&&$$$   ..   &&&&",
"&&&&&&&&&&&&&&&&&&&&&&&&&&   o  $$$&&&&&&&&& oooooo  &&&&&&&&&$$$ oo   &&&&&&&&&&&&&&&&&&&&&&&&&",
"&&&&&&&&&&&&&&&&&&&&&&&&&&   X  &&&&&&&&&&&&   ooo   &&&&&&&&&&&& XX   &&&&&&&&&&&&&&&&&&&&&&&&&",
"&&&&&&&&&&&&&&&&&&&&&&&&&&   X  &&&&&&&&&&&&   ooo   &&&&&&&&&&&& XX   &&&&&&&&&&&&&&&&&&&&&&&&&",
"&&&&&&&&&&&&&&&&&&&&&&&&      &&&&&&&&&&&&&&&  XXX &&&&&&&&&&&&&&&      &&&&&&&&&&&&&&&&&&&&&&&&",
"&&&&&&&&&&&&&&&&&&&&&&&&&&&&&&&&&&&&&&&&&&&&&      &&&&&&&&&&&&&&&&&&&&&&&&&&&&&&&&&&&&&&&&&&&&&",
"&&&&&&&&&&&&&&&&&&&&&&&&&&&&&&&&&&&&&&&&&&&&&      &&&&&&&&&&&&&&&&&&&&&&&&&&&&&&&&&&&&&&&&&&&&&",
"&&&&&&&&&&&&&&&&&&&&&&&&&&&&&&&&&&&&&&&&&&&&&&&   &&&&&&&&&&&&&&&&&&&&&&&&&&&&&&&&&&&&&&&&&&&&&&",
"&&&&&&&&&&&&&&&&&&&&&&&&&&&&&&&&&&&&&&&&&&&&&&&%%%&&&&&&&&&&&&&&&&&&&&&&&&&&&&&&&&&&&&&&&&&&&&&&",
"&&&&&&&&&&&&&&&&&&&&&&&&&&&&&&&&&&&&&&&&&&&&&&&%%%&&&&&&&&&&&&&&&&&&&&&&&&&&&&&&&&&&&&&&&&&&&&&&",
"&&&&&&&&&&&&&&&&&&&&&&&&&&&&&&&&&&&&&&&&&&&&&&&&&&&&&&&&&&&&&&&&&&&&&&&&&&&&&&&&&&&&&&&&&&&&&&&&",
"&&&&&&&&&&&&&&&&&&&&&&&&&&&&&&&&&&&&&&&&&&&&&&&&&&&&&&&&&&&&&&&&&&&&&&&&&&&&&&&&&&&&&&&&&&&&&&&&",
"&&&&&&&&&&&&&&&&&&&&&&&&&&&&&&&&&&&&&&&&&&&&&&&&&&&&&&&&&&&&&&&&&&&&&&&&&&&&&&&&&&&&&&&&&&&&&&&&",
"&&&&&&&&&&&&&&&&&&&&&&&&&&&&&&&&&&&&&&&&&&&&&&&&&&&&&&&&&&&&&&&&&&&&&&&&&&&&&&&&&&&&&&&&&&&&&&&&"
};
