/* XPM */
static char *result[] = {
/* columns rows colors chars-per-pixel */
"96 96 15 1 ",
"  c black",
". c gray6",
"X c #561010",
"o c #8D0909",
"O c #D91A1A",
"+ c #DD1F1F",
"@ c #E81D1D",
"# c #D92B1A",
"$ c #E86060",
"% c #D9881A",
"& c #C5D91A",
"* c #FFEC00",
"= c #3E1AD9",
"- c #6B4AFB",
"; c None",
/* pixels */
";;;;;;;;;;;;;;;;;;;;;;;;;;;;;;;;;;;;;;;;;;;;;;;   ;;;;;;;;;;;;;;;;;;;;;;;;;;;;;;;;;;;;;;;;;;;;;;",
";;;;;;;;;;;;;;;;;;;;;;;;;;;;;;;;;;;;;;;;;;;;;;;   ;;;;;;;;;;;;;;;;;;;;;;;;;;;;;;;;;;;;;;;;;;;;;;",
";;;;;;;;;;;;;;;;;;;;;;;;;;;;;;;;;;;;;;;;;;;;;;;   ;;;;;;;;;;;;;;;;;;;;;;;;;;;;;;;;;;;;;;;;;;;;;;",
";;;;;;;;;;;;;;;;;;;;;;;;;;;;;;;;;;;;;;;;;;;;;      ;;;;;;;;;;;;;;;;;;;;;;;;;;;;;;;;;;;;;;;;;;;;;",
";;;;;;;;;;;;;;;;;;;;;;;;;;;;;;;;;;;;;;;;;;;;;      ;;;;;;;;;;;;;;;;;;;;;;;;;;;;;;;;;;;;;;;;;;;;;",
";;;;;;;;;;;;;;;;;;;;;;;;;;;;;;;;;;;;;;;;;;;;;  ooo ;;;;;;;;;;;;;;;;;;;;;;;;;;;;;;;;;;;;;;;;;;;;;",
";;;;;;;;;;;;;;;;;;;;;;;;;;;;;;;;;;;;;;;;;;;;;  +++ ;;;;;;;;;;;;;;;;;;;;;;;;;;;;;;;;;;;;;;;;;;;;;",
";;;;;;;;;;;;;;;;;;;;;;;;;;;;;;;;;;;;;;;;;;;;;  +++ ;;;;;;;;;;;;;;;;;;;;;;;;;;;;;;;;;;;;;;;;;;;;;",
";;;;;;;;;;;;;;;;;;;;;;;;;;;;;;;;;;;;;;;;;;;;   ooo   ;;;;;;;;;;;;;;;;;;;;;;;;;;;;;;;;;;;;;;;;;;;",
";;;;;;;;;;;;;;;;;;;;;;;;;;;;;;;;;;;;;;;;;;   oooooo   ;;;;;;;;;;;;;;;;;;;;;;;;;;;;;;;;;;;;;;;;;;",
";;;;;;;;;;;;;;;;;;;;;;;;;;;;;;;;;;;;;;;;;;   oooooo   ;;;;;;;;;;;;;;;;;;;;;;;;;;;;;;;;;;;;;;;;;;",
";;;;;;;;;;;;;;;;;;;;;;;;;;;;;;;;;;;;;;;;;;  ooooooooo ;;;;;;;;;;;;;;;;;;;;;;;;;;;;;;;;;;;;;;;;;;",
";;;;;;;;;;;;;;;;;;;;;;;;;;;;;;;;;;;;;;;;;;  ooooooooo ;;;;;;;;;;;;;;;;;;;;;;;;;;;;;;;;;;;;;;;;;;",
";;;;;;;;;;;;;;;;;;;;;;;;;;;;;;;;;;;;;;;;;;  ooooooooo ;;;;;;;;;;;;;;;;;;;;;;;;;;;;;;;;;;;;;;;;;;",
";;;;;;;;;;;;;;;;;;;;;;;;;;;;;;;;;;;;;;;;; ooooo$$$oooo  ;;;;;;;;;;;;;;;;;;;;;;;;;;;;;;;;;;;;;;;;",
";;;;;;;;;;;;;;;;;;;;;;;;;;;;;;;;;;;;;;;;; oooooooooooo  ;;;;;;;;;;;;;;;;;;;;;;;;;;;;;;;;;;;;;;;;",
";;;;;;;;;;;;;;;;;;;;;;;;;;;;;;;;;;;;;;;;; oooooooooooo  ;;;;;;;;;;;;;;;;;;;;;;;;;;;;;;;;;;;;;;;;",
";;;;;;;;;;;;;;;;;;;;;;;;;;;;;;;;;;;;;;;;; oooooooooooo  ;;;;;;;;;;;;;;;;;;;;;;;;;;;;;;;;;;;;;;;;",
";;;;;;;;;;;;;;;;;;;;;;;;;;;;;;;;;;;;;;;;; oooooooooooo  ;;;;;;;;;;;;;;;;;;;;;;;;;;;;;;;;;;;;;;;;",
";;;;;;;;;;;;;;;;;;;;;;;;;;;;;;;;;;;;;;;;; oooooooooooo  ;;;;;;;;;;;;;;;;;;;;;;;;;;;;;;;;;;;;;;;;",
";;;;;;;;;;;;;;;;;;;;;;;;;;;;;;;;;;;;;;;;; oooooooooooo  ;;;;;;;;;;;;;;;;;;;;;;;;;;;;;;;;;;;;;;;;",
";;;;;;;;;;;;;;;;;;;;;;;;;;;;;;;;;;;;;;;   oooooooooooo   ;;;;;;;;;;;;;;;;;;;;;;;;;;;;;;;;;;;;;;;",
";;;;;;;;;;;;;;;;;;;;;;;;;;;;;;;;;;;;;;;   oooooooooooo   ;;;;;;;;;;;;;;;;;;;;;;;;;;;;;;;;;;;;;;;",
";;;;;;;;;;;;;;;;;;;;;;;;;;;;;;;;;;;;;;;  oooooo$$$oooooo ;;;;;;;;;;;;;;;;;;;;;;;;;;;;;;;;;;;;;;;",
";;;;;;;;;;;;;;;;;;;;;;;;;;;;;;;;;;;;;;;   ooooo$$$oooo   ;;;;;;;;;;;;;;;;;;;;;;;;;;;;;;;;;;;;;;;",
";;;;;;;;;;;;;;;;;;;;;;;;;;;;;;;;;;;;;;;   ooooo$$$oooo   ;;;;;;;;;;;;;;;;;;;;;;;;;;;;;;;;;;;;;;;",
";;;;;;;;;;;;;;;;;;;;;;;;;;;;;;;;;;;;;;;;; ooooo$$$oooo  ;;;;;;;;;;;;;;;;;;;;;;;;;;;;;;;;;;;;;;;;",
";;;;;;;;;;;;;;;;;;;;;;;;;;;;;;;;;;;;;;;;; ooooo$$$oooo  ;;;;;;;;;;;;;;;;;;;;;;;;;;;;;;;;;;;;;;;;",
";;;;;;;;;;;;;;;;;;;;;;;;;;;;;;;;;;;;;;;;; ooooo$$$oooo  ;;;;;;;;;;;;;;;;;;;;;;;;;;;;;;;;;;;;;;;;",
";;;;;;;;;;;;;;;;;;;;;;;;;;;;;;;;;;;;;;;;; oooooooooooo  ;;;;;;;;;;;;;;;;;;;;;;;;;;;;;;;;;;;;;;;;",
";;;;;;;;;;;;;;;;;;;;;;;;;;;;;;;;;;;;;;;;; oooooooooooo  ;;;;;;;;;;;;;;;;;;;;;;;;;;;;;;;;;;;;;;;;",
";;;;;;;;;;;;;;;;;;;;;;;;;;;;;;;;;;;;;;;;; oooooooooooo  ;;;;;;;;;;;;;;;;;;;;;;;;;;;;;;;;;;;;;;;;",
";;;;;;;;;;;;;;;;;;;;;;;;;;;;;;;;;;;;;;;;; oooooooooooo  ;;;;;;;;;;;;;;;;;;;;;;;;;;;;;;;;;;;;;;;;",
";;;;;;;;;;;;;;;;;;;;;;;;;;;;;;;;;;;;;;;;; oooooooooooo  ;;;;;;;;;;;;;;;;;;;;;;;;;;;;;;;;;;;;;;;;",
";;;;;;;;;;;;;;;;;;;;;;;;;;;;;;;;;;;;;;;;; oooooooooooo  ;;;;;;;;;;;;;;;;;;;;;;;;;;;;;;;;;;;;;;;;",
";;;;;;;;;;;;;;;;;;;;;;;;;;;;;;;;;;;;;;;;; oooooooooooo  ;;;;;;;;;;;;;;;;;;;;;;;;;;;;;;;;;;;;;;;;",
";;;;;;;;;;;;;;;;;;###;;;;;;;;;;;;;;;;;;;; oooooooooooo  ;;;;;;;;;;;;;;;;;;;###;;;;;;;;;;;;;;;;;;",
";;;;;;;;;;;;;;;;;;###;;;;;;;;;;;;;;;;;;;; oooooooooooo  ;;;;;;;;;;;;;;;;;;;###;;;;;;;;;;;;;;;;;;",
";;;;;;;;;;;;;;;;;#***##;;;;;;;;;;;;;;;;;; oooooooooooo  ;;;;;;;;;;;;;;;;;;#***##;;;;;;;;;;;;;;;;",
";;;;;;;;;;;;;;;;; %%%  ;;;;;;;;;;;;;;;;;; oooooooooooo  ;;;;;;;;;;;;;;;;;; %%%  ;;;;;;;;;;;;;;;;",
";;;;;;;;;;;;;;;;; %%%  ;;;;;;;;;;;;;;;;;; oooooooooooo  ;;;;;;;;;;;;;;;;;; %%%  ;;;;;;;;;;;;;;;;",
";;;;;;;;;;;;;;;;; @@@  ;;;;;;;;;;;;;;;;   oooooooooooo   ;;;;;;;;;;;;;;;;; @@@  ;;;;;;;;;;;;;;;;",
";;;;;;;;;;;;;;;;; @@@  ;;;;;;;;;;;;;;;;  o$$ooooooooo$oo ;;;;;;;;;;;;;;;;; @@@  ;;;;;;;;;;;;;;;;",
";;;;;;;;;;;;;;;;; @@@  ;;;;;;;;;;;;;;;;  o$$ooooooooo$oo ;;;;;;;;;;;;;;;;; @@@  ;;;;;;;;;;;;;;;;",
";;;;;;;;;;;;;;;;; @@@  ;;;;#####;;;;;;;  o$$ooooooooo$oo ;;;;;;;;####;;;;; @@@  ;;;;;;;;;;;;;;;;",
";;;;;;;;;;;;;;;;; @@@  ;;;#*****#;;;;;;  o$$ooooooooo$oo ;;;;;;##****##;;; @@@  ;;;;;;;;;;;;;;;;",
";;;;;;;;;;;;;;;;; @@@  ;;;#*****#;;;;;;  o$$ooooooooo$oo ;;;;;;##****##;;; @@@  ;;;;;;;;;;;;;;;;",
";;;;;;;;;;;;;;;;; @@@  ;;; %%%%% ;;;;;;  o$$ooooooooo$oo ;;;;;;  %%%%  ;;; @@@  ;;;;;;;;;;;;;;;;",
";;;;;;;;;;;;;;;;; @@@  ;;; @@@@@ ;;;;;;  o$$ooooooooo$oo ;;;;;;  @@@@  ;;; @@@  ;;;;;;;;;;;;;;;;",
";;;;;;;;;;;;;;;;; @@@  ;;; @@@@@ ;;;;;;  o$$ooooooooo$oo ;;;;;;  @@@@  ;;; @@@  ;;;;;;;;;;;;;;;;",
";;;;;;;;;;;;;;;;; @@@  ;;; @@@@@ ;;;;;;  o$$ooooooooo$oo ;;;;;;  @@@@  ;;; @@@  ;;;;;;;;;;;;;;;;",
";;;;;;;;;;;;;;;;; @@@  ;;; @@@@@ ;;;;;   o$$ooooooooo$oo   ;;;;  @@@@  ;;; @@@  ;;;;;;;;;;;;;;;;",
";;;;;;;;;;;;;;;;; @@@  ;;; @@@@@ ;;;;;   o$$ooooooooo$oo   ;;;;  @@@@  ;;; @@@  ;;;;;;;;;;;;;;;;",
";;;;;;;;;;;;;;;;; @@@  ;;; @@@@@ ;;;;; ooo$$ooo@@@ooo$ooo  ;;;;  @@@@  ;;; @@@  ;;;;;;;;;;;;;;;;",
"                                       oooooo......oooooo                                       ",
"                                       oooooo......oooooo                                       ",
";;      Xooooo   ooooooooooooooooooooooooooo.........ooooooooooooooooooooooooooo   ooooXX      ;",
";;;      XXooo   ooooooo++++++++++++oooooooo.........ooooooo++++++++++++oooooooo   oooX      ;;;",
";;;      XXooo   ooooooo++++++++++++oooooooo.........ooooooo++++++++++++oooooooo   oooX      ;;;",
";;;;;;      XXX   oooooooooooooooooooooooo@@@oooooo@@@oooooooooooooooooooooooo   XXX      ;;;;;;",
";;;;;;;;;                              oooooooooooooooooo                              ;;;;;;;;;",
";;;;;;;;;                              oooooooooooooooooo                              ;;;;;;;;;",
";;;;;;;;;;;;;;;;;;;;;;;;;;;;;;;;    oooooooooooooooooooooooo     ;;;;;;;;;;;;;;;;;;;;;;;;;;;;;;;",
";;;;;;;;;;;;;;;;;;;;;;;;;;;;;    oo+oooooooooooooooooooooooo++o     ;;;;;;;;;;;;;;;;;;;;;;;;;;;;",
";;;;;;;;;;;;;;;;;;;;;;;;;;;;;    oo+oooooooooooooooooooooooo++o     ;;;;;;;;;;;;;;;;;;;;;;;;;;;;",
";;;;;;;;;;;;;;;;;;;;;;;;;;;   oooooooooooooooooooooooooooooooooooo   ;;;;;;;;;;;;;;;;;;;;;;;;;;;",
";;;;;;;;;;;;;;;;;;;;;;;;   ooooo+ooooo    oooooooooooo     oooo++oooo   ;;;;;;;;;;;;;;;;;;;;;;;;",
";;;;;;;;;;;;;;;;;;;;;;;;   ooooo+ooooo    oooooooooooo     oooo++oooo   ;;;;;;;;;;;;;;;;;;;;;;;;",
";;;;;;;;;;;;;;;;;;;;;     o++oooo         oooooooooooo         ooooo+oo    ;;;;;;;;;;;;;;;;;;;;;",
";;;;;;;;;;;;;;;;;;     .ooooo      ;;;   ooooooooooooooo   ;;;      oooo..    ;;;;;;;;;;;;;;;;;;",
";;;;;;;;;;;;;;;;;;     .ooooo      ;;;   ooooooooooooooo   ;;;      oooo..    ;;;;;;;;;;;;;;;;;;",
";;;;;;;;;;;;;;;;;   ooo...o   ;;;;;;   oo$oooooooooooo$$o   ;;;;;;   oo...ooo   ;;;;;;;;;;;;;;;;",
";;;;;;;;;;;;;;   ooooooo   ;;;;;;     o$$$oooooooooooo$$$oo    ;;;;;;   oooooooo   ;;;;;;;;;;;;;",
";;;;;;;;;;;;;;   ooooooo   ;;;;;;     o$$$oooooooooooo$$$oo    ;;;;;;   oooooooo   ;;;;;;;;;;;;;",
";;;;;;;;;;;;  oooo$$ooo   ;;;;;;   ooooooo   oooooo   oooooooo   ;;;;;;   ooo$ooooo ;;;;;;;;;;;;",
";;;;;;;;;;; ooo$$ooo   ;;;;;;;   oooooooo    oo+++o     ooooooo   ;;;;;;;;   ooo$ooo  ;;;;;;;;;;",
";;;;;;;;;;; ooo$$ooo   ;;;;;;;   oooooooo    oo+++o     ooooooo   ;;;;;;;;   ooo$ooo  ;;;;;;;;;;",
";;;;;;;;;  o$$oooo   ;;;;;;;;;  ooo$ooo   ;; oo+++o  ;   ooo$$ooo ;;;;;;;;;   ooooo$oo ;;;;;;;;;",
";;;;;;;;   oooooo   ;;;;;;;;;   .$$ooo   ;;; oo+++o  ;;;   ooo$..   ;;;;;;;;;   oooooo   ;;;;;;;",
";;;;;;;;   oooooo   ;;;;;;;;;   .$$ooo   ;;; oo+++o  ;;;   ooo$..   ;;;;;;;;;   oooooo   ;;;;;;;",
";;;;;;   XXXXX   ;;;;;;;;;;   oo...o   ;;;;; oo+++o  ;;;;   oo...o   ;;;;;;;;;;;   XXXX   ;;;;;;",
";;;;;   .   ===;;;;;;;;;;;;  oooo     ;;;;;; ......  ;;;;;;    ooooo ;;;;;;;;;;;;===   ..   ;;;;",
";;;;;   .   ===;;;;;;;;;;;;  oooo     ;;;;;; ......  ;;;;;;    ooooo ;;;;;;;;;;;;===   ..   ;;;;",
";;;;;;;;;;;;;;;;;;;;;;;;;;   o  ===;;;;;;;;; oooooo  ;;;;;;;;;=== oo   ;;;;;;;;;;;;;;;;;;;;;;;;;",
";;;;;;;;;;;;;;;;;;;;;;;;;;   X  ;;;;;;;;;;;;   ooo   ;;;;;;;;;;;; XX   ;;;;;;;;;;;;;;;;;;;;;;;;;",
";;;;;;;;;;;;;;;;;;;;;;;;;;   X  ;;;;;;;;;;;;   ooo   ;;;;;;;;;;;; XX   ;;;;;;;;;;;;;;;;;;;;;;;;;",
";;;;;;;;;;;;;;;;;;;;;;;;      ;;;;;;;;;;;;;;;  XXX ;;;;;;;;;;;;;;;      ;;;;;;;;;;;;;;;;;;;;;;;;",
";;;;;;;;;;;;;;;;;;;;;;;;;;;;;;;;;;;;;;;;;;;;;      ;;;;;;;;;;;;;;;;;;;;;;;;;;;;;;;;;;;;;;;;;;;;;",
";;;;;;;;;;;;;;;;;;;;;;;;;;;;;;;;;;;;;;;;;;;;;      ;;;;;;;;;;;;;;;;;;;;;;;;;;;;;;;;;;;;;;;;;;;;;",
";;;;;;;;;;;;;;;;;;;;;;;;;;;;;;;;;;;;;;;;;;;;;;;   ;;;;;;;;;;;;;;;;;;;;;;;;;;;;;;;;;;;;;;;;;;;;;;",
";;;;;;;;;;;;;;;;;;;;;;;;;;;;;;;;;;;;;;;;;;;;;;;---;;;;;;;;;;;;;;;;;;;;;;;;;;;;;;;;;;;;;;;;;;;;;;",
";;;;;;;;;;;;;;;;;;;;;;;;;;;;;;;;;;;;;;;;;;;;;;;---;;;;;;;;;;;;;;;;;;;;;;;;;;;;;;;;;;;;;;;;;;;;;;",
";;;;;;;;;;;;;;;;;;;;;;;;;;;;;;;;;;;;;;;;;;;;;;;OOO;;;;;;;;;;;;;;;;;;;;;;;;;;;;;;;;;;;;;;;;;;;;;;",
";;;;;;;;;;;;;;;;;;;;;;;;;;;;;;;;;;;;;;;;;;;;&;;O%%;&&;;;;;;;;;;;;;;;;;;;;;;;;;;;;;;;;;;;;;;;;;;;",
";;;;;;;;;;;;;;;;;;;;;;;;;;;;;;;;;;;;;;;;;;;;&;;O%%;&&;;;;;;;;;;;;;;;;;;;;;;;;;;;;;;;;;;;;;;;;;;;",
";;;;;;;;;;;;;;;;;;;;;;;;;;;;;;;;;;;;;;;;;;&&&;;%OO;&&&;;;;;;;;;;;;;;;;;;;;;;;;;;;;;;;;;;;;;;;;;;"
};
