/* XPM */
static char *result[] = {
/* columns rows colors chars-per-pixel */
"96 96 15 1 ",
"  c black",
". c gray6",
"X c #561010",
"o c #8D0909",
"O c #D91A1A",
"+ c #DD1F1F",
"@ c #E81D1D",
"# c #D92B1A",
"$ c #E86060",
"% c #D9881A",
"& c #C5D91A",
"* c #FFEC00",
"= c #3E1AD9",
"- c #6B4AFB",
"; c None",
/* pixels */
";;;;;;;;;;;;;;;;;;;;;;;;;;;;;;;;;;;;;;;;; ;;;;;;;;;;;;;;;;;;;;;;;;;;;;;;;;;;;;;;;;;;;;;;;;;;;;;;",
";;;;;;;;;;;;;;;;;;;;;;;;;;;;;;;;;;;;;;;;; ;;;;;;;;;;;;;;;;;;;;;;;;;;;;;;;;;;;;;;;;;;;;;;;;;;;;;;",
";;;;;;;;;;;;;;;;;;;;;;;;;;;;;;;;;;;;;;;   ;;;;;;;;;;;;;;;;;;;;;;;;;;;;;;;;;;;;;;;;;;;;;;;;;;;;;;",
";;;;;;;;;;;;;;;;;;;;;;;;;;;;;;;;;;;;;;    ;;;;;;;;;;;;;;;;;;;;;;;;;;;;;;;;;;;;;;;;;;;;;;;;;;;;;;",
";;;;;;;;;;;;;;;;;;;;;;;;;;;;;;;;;;;;;;    ;;;;;;;;;;;;;;;;;;;;;;;;;;;;;;;;;;;;;;;;;;;;;;;;;;;;;;",
";;;;;;;;;;;;;; ;;;;;;;;;;;;;;;;;;;;;;;    ;;;;;;;;;;;;;;;;;;;;;;;;;;;;;;;;;;;;;;;;;;;;;;;;;;;;;;",
";;;;;;;;;;;;;;   ;;;;;;;;;;;;;;;;;;;      ;;;;;;;;;;;;;;;;;;;;;;;;;;;;;;;;;;;;;;;;;;;;;;;;;;;;;;",
";;;;;;;;;;;;;;   ;;;;;;;;;;;;;;;;;;;      ;;;;;;;;;;;;;;;;;;;;;;;;;;;;;;;;;;;;;;;;;;;;;;;;;;;;;;",
";;;;;;;;;;;;;;.   ;;;;;;;;;;;;;;;;;;   XX ;;;;;;;;;;;;;;;;;;;;;;;;;;;;;;;;;;;;;;;;;;;;;;;;;;;;;;",
";;;;;;;;;;;;;; XX   ;;;;;;;;;;;;;;;   Xoo ;;;;;;;;;;;;;;;;;;;;;;;;;;;;;;;;;;;;;;;;;;;;;;;;;;;;;;",
";;;;;;;;;;;;;; XX   ;;;;;;;;;;;;;;;   Xoo ;;;;;;;;;;;;;;;;;;;;;;;;;;;;;;;;;;;;;;;;;;;;;;;;;;;;;;",
";;;;;;;;;;;;;; XXooo ;;;;;;;;;;;;;;   ooo ;;;;;;;;;;;;;;;;;;;;;;;;;;;;;;;;;;;;;;;;;;;;;;;;;;;;;;",
";;;;;;;;;;;;;;=XXo$$o  ;;;;;;;;;;;; XXooo ;;;;;;;;;;;;;;;;;;;;;;;;;;;;;;;;;;;;;;;;;;;;;;;;;;;;;;",
";;;;;;;;;;;;;;=XXo$$o  ;;;;;;;;;;;; XXooo ;;;;;;;;;;;;;;;;;;;;;;;;;;;;;;;;;;;;;;;;;;;;;;;;;;;;;;",
";;;;;;;;;;;;;;=  oooooo ;;;;;;;;;;; XX    ;;;;;;;;;;;;;;;;;;;;;;;;;;;;;;;;;;;;;;;;;;;;;;;;;;;;;;",
";;;;;;;;;;;;;;;  ooo$oo ;;;;;;;;;;;       ;;;;;;;;;;;;;;;;;;;;;;;;;;;;;;;;;;;;;;;;;;;;;;;;;;;;;;",
";;;;;;;;;;;;;;;  ooo$oo ;;;;;;;;;;;       ;;;;;;;;;;;;;;;;;;;;;;;;;;;;;;;;;;;;;;;;;;;;;;;;;;;;;;",
";;;;;;;;;;;;;;;;; oooooo  ;;;;;;;;;   ooo                ##;;;;;;;;;;;;;;;;;;;;;;;;;;;;;;;;;;;;;",
";;;;;;;;;;;;;;;;;   o$$o   ;;;;;;;; ooooo @@@@@@@@@@@@@@%**#;;;;;;;;;;;;;;;;;;;;;;;;;;;;;;;;;;;;",
";;;;;;;;;;;;;;;;;   o$$o   ;;;;;;;; ooooo @@@@@@@@@@@@@@%**#;;;;;;;;;;;;;;;;;;;;;;;;;;;;;;;;;;;;",
";;;;;;;;;;;;;;;;;;   ooooo ;;;;;;;; ooooo @@@@@@@@@@@@@@%**#;;;;;;;;;;;;;;;;;;;;;;;;;;;;;;;;;;;;",
";;;;;;;;;;;;;;;;;;;; ooooo   ;;;;;; ooooo                ##;;;;;;;;;;;;;;;;;;;;;;;;;;;;;;;;;;;;;",
";;;;;;;;;;;;;;;;;;;; ooooo   ;;;;;; ooooo                ##;;;;;;;;;;;;;;;;;;;;;;;;;;;;;;;;;;;;;",
";;;;;;;;;;;;;;;;;;;;;  o...  ;;;;;; ooooo ;;;;;;;;;;;;;;;;;;;;;;;;;;;;;;;;;;;;;;;;;;;;;;;;;;;;;;",
";;;;;;;;;  ;;;;;;;;;;   ..o   ;;;;; oo+oo ;;;;;;;;;;;;;;;;;;;;;;;;;;;;;;;;;;;;;;;;;;;;;;;;;;;;;;",
";;;;;;;;;  ;;;;;;;;;;   ..o   ;;;;; oo+oo ;;;;;;;;;;;;;;;;;;;;;;;;;;;;;;;;;;;;;;;;;;;;;;;;;;;;;;",
";;;;;;;;;     ;;;;;;;;; ooooo ;;;;; oo+oo         #;;;;;;;;;;;;;;;;;;;;;;;;;;;;;;;;;;;;;;;;;;;;;",
";;;;;;;;;        ;;;;;;;  o++o  ;;; oo+oo @@@@@@%%*##;;;;;;;;;;;;;;;;;;;;;;;;;;;;;;;;;;;;;;;;;;;",
";;;;;;;;;        ;;;;;;;  o++o  ;;; oo+oo @@@@@@%%*##;;;;;;;;;;;;;;;;;;;;;;;;;;;;;;;;;;;;;;;;;;;",
";;;;;;;;;  Xooo   ;;;;;;   ooo   ;; oo+oo @@@@@@%%*##;;;;;;;;;;;;;;;;;;;;;;;;;;;;;;;;;;;;;;;;;;;",
";;;;;;;;;;;   ooo    ;;;;; ooooo ;; oo+oo @@@@@@%%*##;;;;;;;;;;;;;;;;;;;;;;;;;;;;;;;;;;;;;;;;;;;",
";;;;;;;;;;;   ooo    ;;;;; ooooo ;; oo+oo @@@@@@%%*##;;;;;;;;;;;;;;;;;;;;;;;;;;;;;;;;;;;;;;;;;;;",
";;;;;;;;;;;;==o...oo   ;;; oo+oo    oo+oo         #;;;;;;;;;;;;;;;;;;;;;;;;;;;;;;;;;;;;;;;;;;;;;",
";;;;;;;;;;;;== ..$ooo   ;;   oooo   oo+oo ;;;;;;;;;;;;;;;;;;;;;;;;;;;;;;;;;;;;;;;;;;;;;;;;;;;;;;",
";;;;;;;;;;;;== ..$ooo   ;;   oooo   oo+oo ;;;;;;;;;;;;;;;;;;;;;;;;;;;;;;;;;;;;;;;;;;;;;;;;;;;;;;",
";;;;;;;;;;;;;; ooo$$ooo ;;;  ooo+   oo+oo ;;;;;;;;;;;;;;;;;;;;;;;;;;;;;;;;;;;;;;;;;;;;;;;;;;;;;;",
";;;;;;;;;;;;;;   oooooo   ;  oooooo ooooo ;;;;;;;;;;;;;;;;;;;;;;;;;;;;;;;;;;;;;;;;;;;;;;;;;;;;;;",
";;;;;;;;;;;;;;   oooooo   ;  oooooo ooooo ;;;;;;;;;;;;;;;;;;;;;;;;;;;;;;;;;;;;;;;;;;;;;;;;;;;;;;",
";;;;;;;;;;;;;;;   oooooo      ooooo ooooo    ;;;;;;;;;;;;;;;;;;;;;;;;;;;;;;;;;;;;;;;;;;;;;;;;;;;",
";;;;;;;;;;;;;;;;;   ooo$oo    oooooooooooooo            ;;;;;;;;;;;;;;;    ;;;;;;;;;;;;;;;;;;;;;",
";;;;;;;;;;;;;;;;;   ooo$oo    oooooooooooooo            ;;;;;;;;;;;;;;;    ;;;;;;;;;;;;;;;;;;;;;",
";;;;;;;;;;;;;;;;;;   oo$$$o   oooooooooooooooooooooooo                  oo         ;;;;;;;;;;;;;",
"&&;;;;;;;;;;;;;;;;;;   ooooooooooooo@@oooo$$$$$$$$$$$$ooooooooooooooooooooooooooooo    ;;;;;;;;;",
"&&;;;;;;;;;;;;;;;;;;   ooooooooooooo@@oooo$$$$$$$$$$$$ooooooooooooooooooooooooooooo    ;;;;;;;;;",
"&&&;;;;;;;;            ooooooooooooo@@...ooooooooooooooooooooooooooooooooooooooooooooo   ;;;;;;;",
";;;;;;;;    oo.ooooooooooooooooooooooo....ooooooooooooooooooooooooooooooooooooooooooooo      ;;;",
";;;;;;;;    oo.ooooooooooooooooooooooo....ooooooooooooooooooooooooooooooooooooooooooooo      ;;;",
"%%OOO-   XXooo.++++++ooooooooooooooooo....@@oooooooooooooooooooooooo$$$$$$ooooooo$$oooooo+oo    ",
"OO%OO-   XXooo.++++++ooooooooooooooooo....@@oooooooooooooooooooooooo$$$$$$ooooooo$$oooooo+oo    ",
"OO%OO-   XXooo.++++++ooooooooooooooooo....@@oooooooooooooooooooooooo$$$$$$ooooooo$$oooooo+oo    ",
";;;;;;;;    oo.ooooooooooooooooooooooo....ooooooooooooooooooooooooooooooooooooooooooooo      ;;;",
"&&&;;;;;;;;            ooooooooooooo@@...ooooooooooooooooooooooooooooooooooooooooooooo   ;;;;;;;",
"&&&;;;;;;;;            ooooooooooooo@@...ooooooooooooooooooooooooooooooooooooooooooooo   ;;;;;;;",
"&&;;;;;;;;;;;;;;;;;;   ooooooooooooo@@oooo$$$$$$$$$$$$ooooooooooooooooooooooooooooo    ;;;;;;;;;",
";;;;;;;;;;;;;;;;;;   oo$$$o   oooooooooooooooooooooooo                  oo         ;;;;;;;;;;;;;",
";;;;;;;;;;;;;;;;;;   oo$$$o   oooooooooooooooooooooooo                  oo         ;;;;;;;;;;;;;",
";;;;;;;;;;;;;;;;;   ooo$oo    oooooooooooooo            ;;;;;;;;;;;;;;;    ;;;;;;;;;;;;;;;;;;;;;",
";;;;;;;;;;;;;;;   oooooo      ooooo ooooo    ;;;;;;;;;;;;;;;;;;;;;;;;;;;;;;;;;;;;;;;;;;;;;;;;;;;",
";;;;;;;;;;;;;;;   oooooo      ooooo ooooo    ;;;;;;;;;;;;;;;;;;;;;;;;;;;;;;;;;;;;;;;;;;;;;;;;;;;",
";;;;;;;;;;;;;;   oooooo   ;  oooooo ooooo ;;;;;;;;;;;;;;;;;;;;;;;;;;;;;;;;;;;;;;;;;;;;;;;;;;;;;;",
";;;;;;;;;;;;;; ooo$$ooo ;;;  ooo+   oo+oo ;;;;;;;;;;;;;;;;;;;;;;;;;;;;;;;;;;;;;;;;;;;;;;;;;;;;;;",
";;;;;;;;;;;;;; ooo$$ooo ;;;  ooo+   oo+oo ;;;;;;;;;;;;;;;;;;;;;;;;;;;;;;;;;;;;;;;;;;;;;;;;;;;;;;",
";;;;;;;;;;;;== ..$ooo   ;;   oooo   oo+oo ;;;;;;;;;;;;;;;;;;;;;;;;;;;;;;;;;;;;;;;;;;;;;;;;;;;;;;",
";;;;;;;;;;;;==o...oo   ;;; oo+oo    oo+oo         #;;;;;;;;;;;;;;;;;;;;;;;;;;;;;;;;;;;;;;;;;;;;;",
";;;;;;;;;;;;==o...oo   ;;; oo+oo    oo+oo         #;;;;;;;;;;;;;;;;;;;;;;;;;;;;;;;;;;;;;;;;;;;;;",
";;;;;;;;;;;   ooo    ;;;;; ooooo ;; oo+oo @@@@@@%%*##;;;;;;;;;;;;;;;;;;;;;;;;;;;;;;;;;;;;;;;;;;;",
";;;;;;;;;  Xooo   ;;;;;;   ooo   ;; oo+oo @@@@@@%%*##;;;;;;;;;;;;;;;;;;;;;;;;;;;;;;;;;;;;;;;;;;;",
";;;;;;;;;  Xooo   ;;;;;;   ooo   ;; oo+oo @@@@@@%%*##;;;;;;;;;;;;;;;;;;;;;;;;;;;;;;;;;;;;;;;;;;;",
";;;;;;;;;        ;;;;;;;  o++o  ;;; oo+oo @@@@@@%%*##;;;;;;;;;;;;;;;;;;;;;;;;;;;;;;;;;;;;;;;;;;;",
";;;;;;;;;     ;;;;;;;;; ooooo ;;;;; oo+oo         #;;;;;;;;;;;;;;;;;;;;;;;;;;;;;;;;;;;;;;;;;;;;;",
";;;;;;;;;     ;;;;;;;;; ooooo ;;;;; oo+oo         #;;;;;;;;;;;;;;;;;;;;;;;;;;;;;;;;;;;;;;;;;;;;;",
";;;;;;;;;  ;;;;;;;;;;   ..o   ;;;;; oo+oo ;;;;;;;;;;;;;;;;;;;;;;;;;;;;;;;;;;;;;;;;;;;;;;;;;;;;;;",
";;;;;;;;;;;;;;;;;;;;;  o...  ;;;;;; ooooo ;;;;;;;;;;;;;;;;;;;;;;;;;;;;;;;;;;;;;;;;;;;;;;;;;;;;;;",
";;;;;;;;;;;;;;;;;;;;;  o...  ;;;;;; ooooo ;;;;;;;;;;;;;;;;;;;;;;;;;;;;;;;;;;;;;;;;;;;;;;;;;;;;;;",
";;;;;;;;;;;;;;;;;;;; ooooo   ;;;;;; ooooo                ##;;;;;;;;;;;;;;;;;;;;;;;;;;;;;;;;;;;;;",
";;;;;;;;;;;;;;;;;;   ooooo ;;;;;;;; ooooo @@@@@@@@@@@@@@%**#;;;;;;;;;;;;;;;;;;;;;;;;;;;;;;;;;;;;",
";;;;;;;;;;;;;;;;;;   ooooo ;;;;;;;; ooooo @@@@@@@@@@@@@@%**#;;;;;;;;;;;;;;;;;;;;;;;;;;;;;;;;;;;;",
";;;;;;;;;;;;;;;;;   o$$o   ;;;;;;;; ooooo @@@@@@@@@@@@@@%**#;;;;;;;;;;;;;;;;;;;;;;;;;;;;;;;;;;;;",
";;;;;;;;;;;;;;;;; oooooo  ;;;;;;;;;   ooo                ##;;;;;;;;;;;;;;;;;;;;;;;;;;;;;;;;;;;;;",
";;;;;;;;;;;;;;;;; oooooo  ;;;;;;;;;   ooo                ##;;;;;;;;;;;;;;;;;;;;;;;;;;;;;;;;;;;;;",
";;;;;;;;;;;;;;;  ooo$oo ;;;;;;;;;;;       ;;;;;;;;;;;;;;;;;;;;;;;;;;;;;;;;;;;;;;;;;;;;;;;;;;;;;;",
";;;;;;;;;;;;;;=  oooooo ;;;;;;;;;;; XX    ;;;;;;;;;;;;;;;;;;;;;;;;;;;;;;;;;;;;;;;;;;;;;;;;;;;;;;",
";;;;;;;;;;;;;;=  oooooo ;;;;;;;;;;; XX    ;;;;;;;;;;;;;;;;;;;;;;;;;;;;;;;;;;;;;;;;;;;;;;;;;;;;;;",
";;;;;;;;;;;;;;=XXo$$o  ;;;;;;;;;;;; XXooo ;;;;;;;;;;;;;;;;;;;;;;;;;;;;;;;;;;;;;;;;;;;;;;;;;;;;;;",
";;;;;;;;;;;;;; XXooo ;;;;;;;;;;;;;;   ooo ;;;;;;;;;;;;;;;;;;;;;;;;;;;;;;;;;;;;;;;;;;;;;;;;;;;;;;",
";;;;;;;;;;;;;; XXooo ;;;;;;;;;;;;;;   ooo ;;;;;;;;;;;;;;;;;;;;;;;;;;;;;;;;;;;;;;;;;;;;;;;;;;;;;;",
";;;;;;;;;;;;;; XX   ;;;;;;;;;;;;;;;   Xoo ;;;;;;;;;;;;;;;;;;;;;;;;;;;;;;;;;;;;;;;;;;;;;;;;;;;;;;",
";;;;;;;;;;;;;;.   ;;;;;;;;;;;;;;;;;;   XX ;;;;;;;;;;;;;;;;;;;;;;;;;;;;;;;;;;;;;;;;;;;;;;;;;;;;;;",
";;;;;;;;;;;;;;.   ;;;;;;;;;;;;;;;;;;   XX ;;;;;;;;;;;;;;;;;;;;;;;;;;;;;;;;;;;;;;;;;;;;;;;;;;;;;;",
";;;;;;;;;;;;;;   ;;;;;;;;;;;;;;;;;;;      ;;;;;;;;;;;;;;;;;;;;;;;;;;;;;;;;;;;;;;;;;;;;;;;;;;;;;;",
";;;;;;;;;;;;;; ;;;;;;;;;;;;;;;;;;;;;;;    ;;;;;;;;;;;;;;;;;;;;;;;;;;;;;;;;;;;;;;;;;;;;;;;;;;;;;;",
";;;;;;;;;;;;;; ;;;;;;;;;;;;;;;;;;;;;;;    ;;;;;;;;;;;;;;;;;;;;;;;;;;;;;;;;;;;;;;;;;;;;;;;;;;;;;;",
";;;;;;;;;;;;;;;;;;;;;;;;;;;;;;;;;;;;;;    ;;;;;;;;;;;;;;;;;;;;;;;;;;;;;;;;;;;;;;;;;;;;;;;;;;;;;;",
";;;;;;;;;;;;;;;;;;;;;;;;;;;;;;;;;;;;;;;   ;;;;;;;;;;;;;;;;;;;;;;;;;;;;;;;;;;;;;;;;;;;;;;;;;;;;;;",
";;;;;;;;;;;;;;;;;;;;;;;;;;;;;;;;;;;;;;;   ;;;;;;;;;;;;;;;;;;;;;;;;;;;;;;;;;;;;;;;;;;;;;;;;;;;;;;",
";;;;;;;;;;;;;;;;;;;;;;;;;;;;;;;;;;;;;;;;; ;;;;;;;;;;;;;;;;;;;;;;;;;;;;;;;;;;;;;;;;;;;;;;;;;;;;;;"
};
