/* XPM */
static char *result[] = {
/* columns rows colors chars-per-pixel */
"96 96 11 1 ",
"  c black",
". c gray6",
"X c #561010",
"o c #8D0909",
"O c #DD1F1F",
"+ c #E81D1D",
"@ c #E86060",
"# c #D9881A",
"$ c #3E1AD9",
"% c #6B4AFB",
"& c None",
/* pixels */
"&&&&&&&&&&&&&&&&&&&&&&&&&&&&&&&&&&&&&&&&&&&&&&&&&&&&&&&&&&&&&&&&&&&&&&&&&&&&&&&&&&&&&&&&&&&&&&&&",
"&&&&&&&&&&&&&&&&&&&&&&&&&&&&&&&&&&&&&&&&&&&&&&&&&&&&&&&&&&&&&&&&&&&&&&&&&&&&&&&&&&&&&&&&&&&&&&&&",
"&&&&&&&&&&&&&&&&&&&&&&&&&&&&&&&&&&&&&&&&&&&&&&&&&&&&&&&&&&&&&&&&&&&&&&&&&&&&&&&&&&&&&&&&&&&&&&&&",
"&&&&&&&&&&&&&&&&&&&&&&&&&&&&&&&&&&&&&&&&&&&&&&&&&&&&&&&&&&&&&&&&&&&&&&&&&&&&&&&&&&&&&&&&&&&&&&&&",
"&&&&&&&&&&&&&&&&&&&&&&&&&&&&&&&&&&&&&&&&&&&&&&&&&&&&&&&&&&&&&&&&&&&&&&&&&&&&&&&&&&&&&&&&&&&&&&&&",
"&&&&&&&&&&&&&&&&&&&&&&&&&&&&&&&&&&&&&&&&&&&&&&&%%%&&&&&&&&&&&&&&&&&&&&&&&&&&&&&&&&&&&&&&&&&&&&&&",
"&&&&&&&&&&&&&&&&&&&&&&&&&&&&&&&&&&&&&&&&&&&&&&&   &&&&&&&&&&&&&&&&&&&&&&&&&&&&&&&&&&&&&&&&&&&&&&",
"&&&&&&&&&&&&&&&&&&&&&&&&&&&&&&&&&&&&&&&&&&&&&&&   &&&&&&&&&&&&&&&&&&&&&&&&&&&&&&&&&&&&&&&&&&&&&&",
"&&&&&&&&&&&&&&&&&&&&&&&&&&&&&&&&&&&&&&&&&&&&&      &&&&&&&&&&&&&&&&&&&&&&&&&&&&&&&&&&&&&&&&&&&&&",
"&&&&&&&&&&&&&&&&&&&&&&&&      &&&&&&&&&&&&&&&  XXX &&&&&&&&&&&&&&&      &&&&&&&&&&&&&&&&&&&&&&&&",
"&&&&&&&&&&&&&&&&&&&&&&&&      &&&&&&&&&&&&&&&  XXX &&&&&&&&&&&&&&&      &&&&&&&&&&&&&&&&&&&&&&&&",
"&&&&&&&&&&&&&&&&&&&&&&&&&&   X  &&&&&&&&&&&&   ooo   &&&&&&&&&&&& XX   &&&&&&&&&&&&&&&&&&&&&&&&&",
"&&&&&&&&&&&&&&&&&&&&&&&&&&   o  $$$&&&&&&&&& oooooo  &&&&&&&&&$$$ oo   &&&&&&&&&&&&&&&&&&&&&&&&&",
"&&&&&&&&&&&&&&&&&&&&&&&&&&   o  $$$&&&&&&&&& oooooo  &&&&&&&&&$$$ oo   &&&&&&&&&&&&&&&&&&&&&&&&&",
"&&&&&   .   $$$&&&&&&&&&&&&  oooo     &&&&&& ......  &&&&&&    ooooo &&&&&&&&&&&&$$$   ..   &&&&",
"&&&&&&   XXXXX   &&&&&&&&&&   oo...o   &&&&& ooOOOo  &&&&   oo...o   &&&&&&&&&&&   XXXX   &&&&&&",
"&&&&&&   XXXXX   &&&&&&&&&&   oo...o   &&&&& ooOOOo  &&&&   oo...o   &&&&&&&&&&&   XXXX   &&&&&&",
"&&&&&&&&   oooooo   &&&&&&&&&   .@@ooo   &&& ooOOOo  &&&   ooo@..   &&&&&&&&&   oooooo   &&&&&&&",
"&&&&&&&&&  o@@oooo   &&&&&&&&&  ooo@ooo   && ooOOOo  &   ooo@@ooo &&&&&&&&&   ooooo@oo &&&&&&&&&",
"&&&&&&&&&  o@@oooo   &&&&&&&&&  ooo@ooo   && ooOOOo  &   ooo@@ooo &&&&&&&&&   ooooo@oo &&&&&&&&&",
"&&&&&&&&&&& ooo@@ooo   &&&&&&&   oooooooo    ooOOOo     ooooooo   &&&&&&&&   ooo@ooo  &&&&&&&&&&",
"&&&&&&&&&&&&  oooo@@ooo   &&&&&&   ooooooo   oooooo   oooooooo   &&&&&&   ooo@ooooo &&&&&&&&&&&&",
"&&&&&&&&&&&&  oooo@@ooo   &&&&&&   ooooooo   oooooo   oooooooo   &&&&&&   ooo@ooooo &&&&&&&&&&&&",
"&&&&&&&&&&&&&&   ooooooo   &&&&&&     o@@@oooooooooooo@@@oo    &&&&&&   oooooooo   &&&&&&&&&&&&&",
"&&&&&&&&&&&&&&&&&   ooo...o   &&&&&&   oo@oooooooooooo@@o   &&&&&&   oo...ooo   &&&&&&&&&&&&&&&&",
"&&&&&&&&&&&&&&&&&   ooo...o   &&&&&&   oo@oooooooooooo@@o   &&&&&&   oo...ooo   &&&&&&&&&&&&&&&&",
"&&&&&&&&&&&&&&&&&&     .ooooo      &&&   ooooooooooooooo   &&&      oooo..    &&&&&&&&&&&&&&&&&&",
"&&&&&&&&&&&&&&&&&&&&&     oOOoooo         oooooooooooo         oooooOoo    &&&&&&&&&&&&&&&&&&&&&",
"&&&&&&&&&&&&&&&&&&&&&     oOOoooo         oooooooooooo         oooooOoo    &&&&&&&&&&&&&&&&&&&&&",
"&&&&&&&&&&&&&&&&&&&&&&&&   oooooOooooo    oooooooooooo     ooooOOoooo   &&&&&&&&&&&&&&&&&&&&&&&&",
"&&&&&&&&&&&&&&&&&&&&&&&&&&&   oooooooooooooooooooooooooooooooooooo   &&&&&&&&&&&&&&&&&&&&&&&&&&&",
"&&&&&&&&&&&&&&&&&&&&&&&&&&&   oooooooooooooooooooooooooooooooooooo   &&&&&&&&&&&&&&&&&&&&&&&&&&&",
"&&&&&&&&&&&&&&&&&&&&&&&&&&&&&    ooOooooooooooooooooooooooooOOo     &&&&&&&&&&&&&&&&&&&&&&&&&&&&",
"&&&&&&&&&&&&&&&&&&&&&&&&&&&&&&&&    oooooooooooooooooooooooo     &&&&&&&&&&&&&&&&&&&&&&&&&&&&&&&",
"&&&&&&&&&&&&&&&&&&&&&&&&&&&&&&&&    oooooooooooooooooooooooo     &&&&&&&&&&&&&&&&&&&&&&&&&&&&&&&",
"&&&&&&&&&                              oooooooooooooooooo                              &&&&&&&&&",
"&&&&&&      XXX   oooooooooooooooooooooooo+++oooooo+++oooooooooooooooooooooooo   XXX      &&&&&&",
"&&&&&&      XXX   oooooooooooooooooooooooo+++oooooo+++oooooooooooooooooooooooo   XXX      &&&&&&",
"&&&      XXooo   oooooooOOOOOOOOOOOOoooooooo.........oooooooOOOOOOOOOOOOoooooooo   oooX      &&&",
"&&      Xooooo   ooooooooooooooooooooooooooo.........ooooooooooooooooooooooooooo   ooooXX      &",
"&&      Xooooo   ooooooooooooooooooooooooooo.........ooooooooooooooooooooooooooo   ooooXX      &",
"                                       oooooo......oooooo                                       ",
"&&&&&&&&&&&&&&&&& +++  &&& +++++ &&&&& ooo@@ooo+++ooo@ooo  &&&&  ++++  &&& +++  &&&&&&&&&&&&&&&&",
"&&&&&&&&&&&&&&&&& +++  &&& +++++ &&&&& ooo@@ooo+++ooo@ooo  &&&&  ++++  &&& +++  &&&&&&&&&&&&&&&&",
"&&&&&&&&&&&&&&&&& +++  &&& +++++ &&&&&   o@@ooooooooo@oo   &&&&  ++++  &&& +++  &&&&&&&&&&&&&&&&",
"&&&&&&&&&&&&&&&&& +++  &&& +++++ &&&&&&  o@@ooooooooo@oo &&&&&&  ++++  &&& +++  &&&&&&&&&&&&&&&&",
"&&&&&&&&&&&&&&&&& +++  &&& +++++ &&&&&&  o@@ooooooooo@oo &&&&&&  ++++  &&& +++  &&&&&&&&&&&&&&&&",
"&&&&&&&&&&&&&&&&& +++  &&& +++++ &&&&&&  o@@ooooooooo@oo &&&&&&  ++++  &&& +++  &&&&&&&&&&&&&&&&",
"&&&&&&&&&&&&&&&&& +++  &&& ##### &&&&&&  o@@ooooooooo@oo &&&&&&  ####  &&& +++  &&&&&&&&&&&&&&&&",
"&&&&&&&&&&&&&&&&& +++  &&& ##### &&&&&&  o@@ooooooooo@oo &&&&&&  ####  &&& +++  &&&&&&&&&&&&&&&&",
"&&&&&&&&&&&&&&&&& +++  &&&&&&&&&&&&&&&&  o@@ooooooooo@oo &&&&&&&&&&&&&&&&& +++  &&&&&&&&&&&&&&&&",
"&&&&&&&&&&&&&&&&& +++  &&&&&&&&&&&&&&&&  o@@ooooooooo@oo &&&&&&&&&&&&&&&&& +++  &&&&&&&&&&&&&&&&",
"&&&&&&&&&&&&&&&&& +++  &&&&&&&&&&&&&&&&  o@@ooooooooo@oo &&&&&&&&&&&&&&&&& +++  &&&&&&&&&&&&&&&&",
"&&&&&&&&&&&&&&&&& +++  &&&&&&&&&&&&&&&&  o@@ooooooooo@oo &&&&&&&&&&&&&&&&& +++  &&&&&&&&&&&&&&&&",
"&&&&&&&&&&&&&&&&& +++  &&&&&&&&&&&&&&&&   oooooooooooo   &&&&&&&&&&&&&&&&& +++  &&&&&&&&&&&&&&&&",
"&&&&&&&&&&&&&&&&& +++  &&&&&&&&&&&&&&&&   oooooooooooo   &&&&&&&&&&&&&&&&& +++  &&&&&&&&&&&&&&&&",
"&&&&&&&&&&&&&&&&& ###  &&&&&&&&&&&&&&&&&& oooooooooooo  &&&&&&&&&&&&&&&&&& ###  &&&&&&&&&&&&&&&&",
"&&&&&&&&&&&&&&&&&&&&&&&&&&&&&&&&&&&&&&&&& oooooooooooo  &&&&&&&&&&&&&&&&&&&&&&&&&&&&&&&&&&&&&&&&",
"&&&&&&&&&&&&&&&&&&&&&&&&&&&&&&&&&&&&&&&&& oooooooooooo  &&&&&&&&&&&&&&&&&&&&&&&&&&&&&&&&&&&&&&&&",
"&&&&&&&&&&&&&&&&&&&&&&&&&&&&&&&&&&&&&&&&& oooooooooooo  &&&&&&&&&&&&&&&&&&&&&&&&&&&&&&&&&&&&&&&&",
"&&&&&&&&&&&&&&&&&&&&&&&&&&&&&&&&&&&&&&&&& oooooooooooo  &&&&&&&&&&&&&&&&&&&&&&&&&&&&&&&&&&&&&&&&",
"&&&&&&&&&&&&&&&&&&&&&&&&&&&&&&&&&&&&&&&&& oooooooooooo  &&&&&&&&&&&&&&&&&&&&&&&&&&&&&&&&&&&&&&&&",
"&&&&&&&&&&&&&&&&&&&&&&&&&&&&&&&&&&&&&&&&& oooooooooooo  &&&&&&&&&&&&&&&&&&&&&&&&&&&&&&&&&&&&&&&&",
"&&&&&&&&&&&&&&&&&&&&&&&&&&&&&&&&&&&&&&&&& oooooooooooo  &&&&&&&&&&&&&&&&&&&&&&&&&&&&&&&&&&&&&&&&",
"&&&&&&&&&&&&&&&&&&&&&&&&&&&&&&&&&&&&&&&&& oooooooooooo  &&&&&&&&&&&&&&&&&&&&&&&&&&&&&&&&&&&&&&&&",
"&&&&&&&&&&&&&&&&&&&&&&&&&&&&&&&&&&&&&&&&& oooooooooooo  &&&&&&&&&&&&&&&&&&&&&&&&&&&&&&&&&&&&&&&&",
"&&&&&&&&&&&&&&&&&&&&&&&&&&&&&&&&&&&&&&&&& oooooooooooo  &&&&&&&&&&&&&&&&&&&&&&&&&&&&&&&&&&&&&&&&",
"&&&&&&&&&&&&&&&&&&&&&&&&&&&&&&&&&&&&&&&&& oooooooooooo  &&&&&&&&&&&&&&&&&&&&&&&&&&&&&&&&&&&&&&&&",
"&&&&&&&&&&&&&&&&&&&&&&&&&&&&&&&&&&&&&&&&& ooooo@@@oooo  &&&&&&&&&&&&&&&&&&&&&&&&&&&&&&&&&&&&&&&&",
"&&&&&&&&&&&&&&&&&&&&&&&&&&&&&&&&&&&&&&&&& ooooo@@@oooo  &&&&&&&&&&&&&&&&&&&&&&&&&&&&&&&&&&&&&&&&",
"&&&&&&&&&&&&&&&&&&&&&&&&&&&&&&&&&&&&&&&&& ooooo@@@oooo  &&&&&&&&&&&&&&&&&&&&&&&&&&&&&&&&&&&&&&&&",
"&&&&&&&&&&&&&&&&&&&&&&&&&&&&&&&&&&&&&&&   ooooo@@@oooo   &&&&&&&&&&&&&&&&&&&&&&&&&&&&&&&&&&&&&&&",
"&&&&&&&&&&&&&&&&&&&&&&&&&&&&&&&&&&&&&&&  oooooo@@@oooooo &&&&&&&&&&&&&&&&&&&&&&&&&&&&&&&&&&&&&&&",
"&&&&&&&&&&&&&&&&&&&&&&&&&&&&&&&&&&&&&&&  oooooo@@@oooooo &&&&&&&&&&&&&&&&&&&&&&&&&&&&&&&&&&&&&&&",
"&&&&&&&&&&&&&&&&&&&&&&&&&&&&&&&&&&&&&&&   oooooooooooo   &&&&&&&&&&&&&&&&&&&&&&&&&&&&&&&&&&&&&&&",
"&&&&&&&&&&&&&&&&&&&&&&&&&&&&&&&&&&&&&&&&& oooooooooooo  &&&&&&&&&&&&&&&&&&&&&&&&&&&&&&&&&&&&&&&&",
"&&&&&&&&&&&&&&&&&&&&&&&&&&&&&&&&&&&&&&&&& oooooooooooo  &&&&&&&&&&&&&&&&&&&&&&&&&&&&&&&&&&&&&&&&",
"&&&&&&&&&&&&&&&&&&&&&&&&&&&&&&&&&&&&&&&&& oooooooooooo  &&&&&&&&&&&&&&&&&&&&&&&&&&&&&&&&&&&&&&&&",
"&&&&&&&&&&&&&&&&&&&&&&&&&&&&&&&&&&&&&&&&& oooooooooooo  &&&&&&&&&&&&&&&&&&&&&&&&&&&&&&&&&&&&&&&&",
"&&&&&&&&&&&&&&&&&&&&&&&&&&&&&&&&&&&&&&&&& oooooooooooo  &&&&&&&&&&&&&&&&&&&&&&&&&&&&&&&&&&&&&&&&",
"&&&&&&&&&&&&&&&&&&&&&&&&&&&&&&&&&&&&&&&&& oooooooooooo  &&&&&&&&&&&&&&&&&&&&&&&&&&&&&&&&&&&&&&&&",
"&&&&&&&&&&&&&&&&&&&&&&&&&&&&&&&&&&&&&&&&& ooooo@@@oooo  &&&&&&&&&&&&&&&&&&&&&&&&&&&&&&&&&&&&&&&&",
"&&&&&&&&&&&&&&&&&&&&&&&&&&&&&&&&&&&&&&&&& ooooo@@@oooo  &&&&&&&&&&&&&&&&&&&&&&&&&&&&&&&&&&&&&&&&",
"&&&&&&&&&&&&&&&&&&&&&&&&&&&&&&&&&&&&&&&&&&  ooooooooo &&&&&&&&&&&&&&&&&&&&&&&&&&&&&&&&&&&&&&&&&&",
"&&&&&&&&&&&&&&&&&&&&&&&&&&&&&&&&&&&&&&&&&&  ooooooooo &&&&&&&&&&&&&&&&&&&&&&&&&&&&&&&&&&&&&&&&&&",
"&&&&&&&&&&&&&&&&&&&&&&&&&&&&&&&&&&&&&&&&&&  ooooooooo &&&&&&&&&&&&&&&&&&&&&&&&&&&&&&&&&&&&&&&&&&",
"&&&&&&&&&&&&&&&&&&&&&&&&&&&&&&&&&&&&&&&&&&   oooooo   &&&&&&&&&&&&&&&&&&&&&&&&&&&&&&&&&&&&&&&&&&",
"&&&&&&&&&&&&&&&&&&&&&&&&&&&&&&&&&&&&&&&&&&&&   ooo   &&&&&&&&&&&&&&&&&&&&&&&&&&&&&&&&&&&&&&&&&&&",
"&&&&&&&&&&&&&&&&&&&&&&&&&&&&&&&&&&&&&&&&&&&&   ooo   &&&&&&&&&&&&&&&&&&&&&&&&&&&&&&&&&&&&&&&&&&&",
"&&&&&&&&&&&&&&&&&&&&&&&&&&&&&&&&&&&&&&&&&&&&&  OOO &&&&&&&&&&&&&&&&&&&&&&&&&&&&&&&&&&&&&&&&&&&&&",
"&&&&&&&&&&&&&&&&&&&&&&&&&&&&&&&&&&&&&&&&&&&&&  ooo &&&&&&&&&&&&&&&&&&&&&&&&&&&&&&&&&&&&&&&&&&&&&",
"&&&&&&&&&&&&&&&&&&&&&&&&&&&&&&&&&&&&&&&&&&&&&  ooo &&&&&&&&&&&&&&&&&&&&&&&&&&&&&&&&&&&&&&&&&&&&&",
"&&&&&&&&&&&&&&&&&&&&&&&&&&&&&&&&&&&&&&&&&&&&&      &&&&&&&&&&&&&&&&&&&&&&&&&&&&&&&&&&&&&&&&&&&&&",
"&&&&&&&&&&&&&&&&&&&&&&&&&&&&&&&&&&&&&&&&&&&&&&&   &&&&&&&&&&&&&&&&&&&&&&&&&&&&&&&&&&&&&&&&&&&&&&",
"&&&&&&&&&&&&&&&&&&&&&&&&&&&&&&&&&&&&&&&&&&&&&&&   &&&&&&&&&&&&&&&&&&&&&&&&&&&&&&&&&&&&&&&&&&&&&&",
"&&&&&&&&&&&&&&&&&&&&&&&&&&&&&&&&&&&&&&&&&&&&&&&   &&&&&&&&&&&&&&&&&&&&&&&&&&&&&&&&&&&&&&&&&&&&&&"
};
