/* XPM */
static char *result[] = {
/* columns rows colors chars-per-pixel */
"96 96 15 1 ",
"  c black",
". c gray6",
"X c #561010",
"o c #8D0909",
"O c #D91A1A",
"+ c #DD1F1F",
"@ c #E81D1D",
"# c #D92B1A",
"$ c #E86060",
"% c #D9881A",
"& c #C5D91A",
"* c #FFEC00",
"= c #3E1AD9",
"- c #6B4AFB",
"; c None",
/* pixels */
";;;;;;;;;;;;;;;;;;;;;;;;;;;;;;;;;;;;;;;;;;&&&;;O%%;&&&;;;;;;;;;;;;;;;;;;;;;;;;;;;;;;;;;;;;;;;;;;",
";;;;;;;;;;;;;;;;;;;;;;;;;;;;;;;;;;;;;;;;;;&&&;;O%%;&&&;;;;;;;;;;;;;;;;;;;;;;;;;;;;;;;;;;;;;;;;;;",
";;;;;;;;;;;;;;;;;;;;;;;;;;;;;;;;;;;;;;;;;;;;&;;%OO;&&;;;;;;;;;;;;;;;;;;;;;;;;;;;;;;;;;;;;;;;;;;;",
";;;;;;;;;;;;;;;;;;;;;;;;;;;;;;;;;;;;;;;;;;;;;;;OOO;;;;;;;;;;;;;;;;;;;;;;;;;;;;;;;;;;;;;;;;;;;;;;",
";;;;;;;;;;;;;;;;;;;;;;;;;;;;;;;;;;;;;;;;;;;;;;;OOO;;;;;;;;;;;;;;;;;;;;;;;;;;;;;;;;;;;;;;;;;;;;;;",
";;;;;;;;;;;;;;;;;;;;;;;;;;;;;;;;;;;;;;;;;;;;;;;---;;;;;;;;;;;;;;;;;;;;;;;;;;;;;;;;;;;;;;;;;;;;;;",
";;;;;;;;;;;;;;;;;;;;;;;;;;;;;;;;;;;;;;;;;;;;;;;   ;;;;;;;;;;;;;;;;;;;;;;;;;;;;;;;;;;;;;;;;;;;;;;",
";;;;;;;;;;;;;;;;;;;;;;;;;;;;;;;;;;;;;;;;;;;;;;;   ;;;;;;;;;;;;;;;;;;;;;;;;;;;;;;;;;;;;;;;;;;;;;;",
";;;;;;;;;;;;;;;;;;;;;;;;;;;;;;;;;;;;;;;;;;;;;      ;;;;;;;;;;;;;;;;;;;;;;;;;;;;;;;;;;;;;;;;;;;;;",
";;;;;;;;;;;;;;;;;;;;;;;;      ;;;;;;;;;;;;;;;  XXX ;;;;;;;;;;;;;;;      ;;;;;;;;;;;;;;;;;;;;;;;;",
";;;;;;;;;;;;;;;;;;;;;;;;      ;;;;;;;;;;;;;;;  XXX ;;;;;;;;;;;;;;;      ;;;;;;;;;;;;;;;;;;;;;;;;",
";;;;;;;;;;;;;;;;;;;;;;;;;;   X  ;;;;;;;;;;;;   ooo   ;;;;;;;;;;;; XX   ;;;;;;;;;;;;;;;;;;;;;;;;;",
";;;;;;;;;;;;;;;;;;;;;;;;;;   o  ===;;;;;;;;; oooooo  ;;;;;;;;;=== oo   ;;;;;;;;;;;;;;;;;;;;;;;;;",
";;;;;;;;;;;;;;;;;;;;;;;;;;   o  ===;;;;;;;;; oooooo  ;;;;;;;;;=== oo   ;;;;;;;;;;;;;;;;;;;;;;;;;",
";;;;;   .   ===;;;;;;;;;;;;  oooo     ;;;;;; ......  ;;;;;;    ooooo ;;;;;;;;;;;;===   ..   ;;;;",
";;;;;;   XXXXX   ;;;;;;;;;;   oo...o   ;;;;; oo+++o  ;;;;   oo...o   ;;;;;;;;;;;   XXXX   ;;;;;;",
";;;;;;   XXXXX   ;;;;;;;;;;   oo...o   ;;;;; oo+++o  ;;;;   oo...o   ;;;;;;;;;;;   XXXX   ;;;;;;",
";;;;;;;;   oooooo   ;;;;;;;;;   .$$ooo   ;;; oo+++o  ;;;   ooo$..   ;;;;;;;;;   oooooo   ;;;;;;;",
";;;;;;;;;  o$$oooo   ;;;;;;;;;  ooo$ooo   ;; oo+++o  ;   ooo$$ooo ;;;;;;;;;   ooooo$oo ;;;;;;;;;",
";;;;;;;;;  o$$oooo   ;;;;;;;;;  ooo$ooo   ;; oo+++o  ;   ooo$$ooo ;;;;;;;;;   ooooo$oo ;;;;;;;;;",
";;;;;;;;;;; ooo$$ooo   ;;;;;;;   oooooooo    oo+++o     ooooooo   ;;;;;;;;   ooo$ooo  ;;;;;;;;;;",
";;;;;;;;;;;;  oooo$$ooo   ;;;;;;   ooooooo   oooooo   oooooooo   ;;;;;;   ooo$ooooo ;;;;;;;;;;;;",
";;;;;;;;;;;;  oooo$$ooo   ;;;;;;   ooooooo   oooooo   oooooooo   ;;;;;;   ooo$ooooo ;;;;;;;;;;;;",
";;;;;;;;;;;;;;   ooooooo   ;;;;;;     o$$$oooooooooooo$$$oo    ;;;;;;   oooooooo   ;;;;;;;;;;;;;",
";;;;;;;;;;;;;;;;;   ooo...o   ;;;;;;   oo$oooooooooooo$$o   ;;;;;;   oo...ooo   ;;;;;;;;;;;;;;;;",
";;;;;;;;;;;;;;;;;   ooo...o   ;;;;;;   oo$oooooooooooo$$o   ;;;;;;   oo...ooo   ;;;;;;;;;;;;;;;;",
";;;;;;;;;;;;;;;;;;     .ooooo      ;;;   ooooooooooooooo   ;;;      oooo..    ;;;;;;;;;;;;;;;;;;",
";;;;;;;;;;;;;;;;;;;;;     o++oooo         oooooooooooo         ooooo+oo    ;;;;;;;;;;;;;;;;;;;;;",
";;;;;;;;;;;;;;;;;;;;;     o++oooo         oooooooooooo         ooooo+oo    ;;;;;;;;;;;;;;;;;;;;;",
";;;;;;;;;;;;;;;;;;;;;;;;   ooooo+ooooo    oooooooooooo     oooo++oooo   ;;;;;;;;;;;;;;;;;;;;;;;;",
";;;;;;;;;;;;;;;;;;;;;;;;;;;   oooooooooooooooooooooooooooooooooooo   ;;;;;;;;;;;;;;;;;;;;;;;;;;;",
";;;;;;;;;;;;;;;;;;;;;;;;;;;   oooooooooooooooooooooooooooooooooooo   ;;;;;;;;;;;;;;;;;;;;;;;;;;;",
";;;;;;;;;;;;;;;;;;;;;;;;;;;;;    oo+oooooooooooooooooooooooo++o     ;;;;;;;;;;;;;;;;;;;;;;;;;;;;",
";;;;;;;;;;;;;;;;;;;;;;;;;;;;;;;;    oooooooooooooooooooooooo     ;;;;;;;;;;;;;;;;;;;;;;;;;;;;;;;",
";;;;;;;;;;;;;;;;;;;;;;;;;;;;;;;;    oooooooooooooooooooooooo     ;;;;;;;;;;;;;;;;;;;;;;;;;;;;;;;",
";;;;;;;;;                              oooooooooooooooooo                              ;;;;;;;;;",
";;;;;;      XXX   oooooooooooooooooooooooo@@@oooooo@@@oooooooooooooooooooooooo   XXX      ;;;;;;",
";;;;;;      XXX   oooooooooooooooooooooooo@@@oooooo@@@oooooooooooooooooooooooo   XXX      ;;;;;;",
";;;      XXooo   ooooooo++++++++++++oooooooo.........ooooooo++++++++++++oooooooo   oooX      ;;;",
";;      Xooooo   ooooooooooooooooooooooooooo.........ooooooooooooooooooooooooooo   ooooXX      ;",
";;      Xooooo   ooooooooooooooooooooooooooo.........ooooooooooooooooooooooooooo   ooooXX      ;",
"                                       oooooo......oooooo                                       ",
";;;;;;;;;;;;;;;;; @@@  ;;; @@@@@ ;;;;; ooo$$ooo@@@ooo$ooo  ;;;;  @@@@  ;;; @@@  ;;;;;;;;;;;;;;;;",
";;;;;;;;;;;;;;;;; @@@  ;;; @@@@@ ;;;;; ooo$$ooo@@@ooo$ooo  ;;;;  @@@@  ;;; @@@  ;;;;;;;;;;;;;;;;",
";;;;;;;;;;;;;;;;; @@@  ;;; @@@@@ ;;;;;   o$$ooooooooo$oo   ;;;;  @@@@  ;;; @@@  ;;;;;;;;;;;;;;;;",
";;;;;;;;;;;;;;;;; @@@  ;;; @@@@@ ;;;;;;  o$$ooooooooo$oo ;;;;;;  @@@@  ;;; @@@  ;;;;;;;;;;;;;;;;",
";;;;;;;;;;;;;;;;; @@@  ;;; @@@@@ ;;;;;;  o$$ooooooooo$oo ;;;;;;  @@@@  ;;; @@@  ;;;;;;;;;;;;;;;;",
";;;;;;;;;;;;;;;;; @@@  ;;; @@@@@ ;;;;;;  o$$ooooooooo$oo ;;;;;;  @@@@  ;;; @@@  ;;;;;;;;;;;;;;;;",
";;;;;;;;;;;;;;;;; @@@  ;;; %%%%% ;;;;;;  o$$ooooooooo$oo ;;;;;;  %%%%  ;;; @@@  ;;;;;;;;;;;;;;;;",
";;;;;;;;;;;;;;;;; @@@  ;;; %%%%% ;;;;;;  o$$ooooooooo$oo ;;;;;;  %%%%  ;;; @@@  ;;;;;;;;;;;;;;;;",
";;;;;;;;;;;;;;;;; @@@  ;;;#*****#;;;;;;  o$$ooooooooo$oo ;;;;;;##****##;;; @@@  ;;;;;;;;;;;;;;;;",
";;;;;;;;;;;;;;;;; @@@  ;;;;#####;;;;;;;  o$$ooooooooo$oo ;;;;;;;;####;;;;; @@@  ;;;;;;;;;;;;;;;;",
";;;;;;;;;;;;;;;;; @@@  ;;;;#####;;;;;;;  o$$ooooooooo$oo ;;;;;;;;####;;;;; @@@  ;;;;;;;;;;;;;;;;",
";;;;;;;;;;;;;;;;; @@@  ;;;;;;;;;;;;;;;;  o$$ooooooooo$oo ;;;;;;;;;;;;;;;;; @@@  ;;;;;;;;;;;;;;;;",
";;;;;;;;;;;;;;;;; @@@  ;;;;;;;;;;;;;;;;   oooooooooooo   ;;;;;;;;;;;;;;;;; @@@  ;;;;;;;;;;;;;;;;",
";;;;;;;;;;;;;;;;; @@@  ;;;;;;;;;;;;;;;;   oooooooooooo   ;;;;;;;;;;;;;;;;; @@@  ;;;;;;;;;;;;;;;;",
";;;;;;;;;;;;;;;;; %%%  ;;;;;;;;;;;;;;;;;; oooooooooooo  ;;;;;;;;;;;;;;;;;; %%%  ;;;;;;;;;;;;;;;;",
";;;;;;;;;;;;;;;;;#***##;;;;;;;;;;;;;;;;;; oooooooooooo  ;;;;;;;;;;;;;;;;;;#***##;;;;;;;;;;;;;;;;",
";;;;;;;;;;;;;;;;;#***##;;;;;;;;;;;;;;;;;; oooooooooooo  ;;;;;;;;;;;;;;;;;;#***##;;;;;;;;;;;;;;;;",
";;;;;;;;;;;;;;;;;;###;;;;;;;;;;;;;;;;;;;; oooooooooooo  ;;;;;;;;;;;;;;;;;;;###;;;;;;;;;;;;;;;;;;",
";;;;;;;;;;;;;;;;;;;;;;;;;;;;;;;;;;;;;;;;; oooooooooooo  ;;;;;;;;;;;;;;;;;;;;;;;;;;;;;;;;;;;;;;;;",
";;;;;;;;;;;;;;;;;;;;;;;;;;;;;;;;;;;;;;;;; oooooooooooo  ;;;;;;;;;;;;;;;;;;;;;;;;;;;;;;;;;;;;;;;;",
";;;;;;;;;;;;;;;;;;;;;;;;;;;;;;;;;;;;;;;;; oooooooooooo  ;;;;;;;;;;;;;;;;;;;;;;;;;;;;;;;;;;;;;;;;",
";;;;;;;;;;;;;;;;;;;;;;;;;;;;;;;;;;;;;;;;; oooooooooooo  ;;;;;;;;;;;;;;;;;;;;;;;;;;;;;;;;;;;;;;;;",
";;;;;;;;;;;;;;;;;;;;;;;;;;;;;;;;;;;;;;;;; oooooooooooo  ;;;;;;;;;;;;;;;;;;;;;;;;;;;;;;;;;;;;;;;;",
";;;;;;;;;;;;;;;;;;;;;;;;;;;;;;;;;;;;;;;;; oooooooooooo  ;;;;;;;;;;;;;;;;;;;;;;;;;;;;;;;;;;;;;;;;",
";;;;;;;;;;;;;;;;;;;;;;;;;;;;;;;;;;;;;;;;; oooooooooooo  ;;;;;;;;;;;;;;;;;;;;;;;;;;;;;;;;;;;;;;;;",
";;;;;;;;;;;;;;;;;;;;;;;;;;;;;;;;;;;;;;;;; oooooooooooo  ;;;;;;;;;;;;;;;;;;;;;;;;;;;;;;;;;;;;;;;;",
";;;;;;;;;;;;;;;;;;;;;;;;;;;;;;;;;;;;;;;;; ooooo$$$oooo  ;;;;;;;;;;;;;;;;;;;;;;;;;;;;;;;;;;;;;;;;",
";;;;;;;;;;;;;;;;;;;;;;;;;;;;;;;;;;;;;;;;; ooooo$$$oooo  ;;;;;;;;;;;;;;;;;;;;;;;;;;;;;;;;;;;;;;;;",
";;;;;;;;;;;;;;;;;;;;;;;;;;;;;;;;;;;;;;;;; ooooo$$$oooo  ;;;;;;;;;;;;;;;;;;;;;;;;;;;;;;;;;;;;;;;;",
";;;;;;;;;;;;;;;;;;;;;;;;;;;;;;;;;;;;;;;   ooooo$$$oooo   ;;;;;;;;;;;;;;;;;;;;;;;;;;;;;;;;;;;;;;;",
";;;;;;;;;;;;;;;;;;;;;;;;;;;;;;;;;;;;;;;  oooooo$$$oooooo ;;;;;;;;;;;;;;;;;;;;;;;;;;;;;;;;;;;;;;;",
";;;;;;;;;;;;;;;;;;;;;;;;;;;;;;;;;;;;;;;  oooooo$$$oooooo ;;;;;;;;;;;;;;;;;;;;;;;;;;;;;;;;;;;;;;;",
";;;;;;;;;;;;;;;;;;;;;;;;;;;;;;;;;;;;;;;   oooooooooooo   ;;;;;;;;;;;;;;;;;;;;;;;;;;;;;;;;;;;;;;;",
";;;;;;;;;;;;;;;;;;;;;;;;;;;;;;;;;;;;;;;;; oooooooooooo  ;;;;;;;;;;;;;;;;;;;;;;;;;;;;;;;;;;;;;;;;",
";;;;;;;;;;;;;;;;;;;;;;;;;;;;;;;;;;;;;;;;; oooooooooooo  ;;;;;;;;;;;;;;;;;;;;;;;;;;;;;;;;;;;;;;;;",
";;;;;;;;;;;;;;;;;;;;;;;;;;;;;;;;;;;;;;;;; oooooooooooo  ;;;;;;;;;;;;;;;;;;;;;;;;;;;;;;;;;;;;;;;;",
";;;;;;;;;;;;;;;;;;;;;;;;;;;;;;;;;;;;;;;;; oooooooooooo  ;;;;;;;;;;;;;;;;;;;;;;;;;;;;;;;;;;;;;;;;",
";;;;;;;;;;;;;;;;;;;;;;;;;;;;;;;;;;;;;;;;; oooooooooooo  ;;;;;;;;;;;;;;;;;;;;;;;;;;;;;;;;;;;;;;;;",
";;;;;;;;;;;;;;;;;;;;;;;;;;;;;;;;;;;;;;;;; oooooooooooo  ;;;;;;;;;;;;;;;;;;;;;;;;;;;;;;;;;;;;;;;;",
";;;;;;;;;;;;;;;;;;;;;;;;;;;;;;;;;;;;;;;;; ooooo$$$oooo  ;;;;;;;;;;;;;;;;;;;;;;;;;;;;;;;;;;;;;;;;",
";;;;;;;;;;;;;;;;;;;;;;;;;;;;;;;;;;;;;;;;; ooooo$$$oooo  ;;;;;;;;;;;;;;;;;;;;;;;;;;;;;;;;;;;;;;;;",
";;;;;;;;;;;;;;;;;;;;;;;;;;;;;;;;;;;;;;;;;;  ooooooooo ;;;;;;;;;;;;;;;;;;;;;;;;;;;;;;;;;;;;;;;;;;",
";;;;;;;;;;;;;;;;;;;;;;;;;;;;;;;;;;;;;;;;;;  ooooooooo ;;;;;;;;;;;;;;;;;;;;;;;;;;;;;;;;;;;;;;;;;;",
";;;;;;;;;;;;;;;;;;;;;;;;;;;;;;;;;;;;;;;;;;  ooooooooo ;;;;;;;;;;;;;;;;;;;;;;;;;;;;;;;;;;;;;;;;;;",
";;;;;;;;;;;;;;;;;;;;;;;;;;;;;;;;;;;;;;;;;;   oooooo   ;;;;;;;;;;;;;;;;;;;;;;;;;;;;;;;;;;;;;;;;;;",
";;;;;;;;;;;;;;;;;;;;;;;;;;;;;;;;;;;;;;;;;;;;   ooo   ;;;;;;;;;;;;;;;;;;;;;;;;;;;;;;;;;;;;;;;;;;;",
";;;;;;;;;;;;;;;;;;;;;;;;;;;;;;;;;;;;;;;;;;;;   ooo   ;;;;;;;;;;;;;;;;;;;;;;;;;;;;;;;;;;;;;;;;;;;",
";;;;;;;;;;;;;;;;;;;;;;;;;;;;;;;;;;;;;;;;;;;;;  +++ ;;;;;;;;;;;;;;;;;;;;;;;;;;;;;;;;;;;;;;;;;;;;;",
";;;;;;;;;;;;;;;;;;;;;;;;;;;;;;;;;;;;;;;;;;;;;  ooo ;;;;;;;;;;;;;;;;;;;;;;;;;;;;;;;;;;;;;;;;;;;;;",
";;;;;;;;;;;;;;;;;;;;;;;;;;;;;;;;;;;;;;;;;;;;;  ooo ;;;;;;;;;;;;;;;;;;;;;;;;;;;;;;;;;;;;;;;;;;;;;",
";;;;;;;;;;;;;;;;;;;;;;;;;;;;;;;;;;;;;;;;;;;;;      ;;;;;;;;;;;;;;;;;;;;;;;;;;;;;;;;;;;;;;;;;;;;;",
";;;;;;;;;;;;;;;;;;;;;;;;;;;;;;;;;;;;;;;;;;;;;;;   ;;;;;;;;;;;;;;;;;;;;;;;;;;;;;;;;;;;;;;;;;;;;;;",
";;;;;;;;;;;;;;;;;;;;;;;;;;;;;;;;;;;;;;;;;;;;;;;   ;;;;;;;;;;;;;;;;;;;;;;;;;;;;;;;;;;;;;;;;;;;;;;",
";;;;;;;;;;;;;;;;;;;;;;;;;;;;;;;;;;;;;;;;;;;;;;;   ;;;;;;;;;;;;;;;;;;;;;;;;;;;;;;;;;;;;;;;;;;;;;;"
};
