/* XPM */
static char *result[] = {
/* columns rows colors chars-per-pixel */
"96 96 15 1 ",
"  c black",
". c gray6",
"X c #561010",
"o c #8D0909",
"O c #D91A1A",
"+ c #DD1F1F",
"@ c #E81D1D",
"# c #D92B1A",
"$ c #E86060",
"% c #D9881A",
"& c #C5D91A",
"* c #FFEC00",
"= c #3E1AD9",
"- c #6B4AFB",
"; c None",
/* pixels */
";;;;;;;;;;;;;;;;;;;;;;;;;;;;;;;;;;;;;;;;;;;;;;;;;;;;;;  ;;;;;;;;;;;;;;;;;;;;;;;;;;;;;;;;;;;;;;;;",
";;;;;;;;;;;;;;;;;;;;;;;;;;;;;;;;;;;;;;;;;;;;;;;;;;;;;;  ;;;;;;;;;;;;;;;;;;;;;;;;;;;;;;;;;;;;;;;;",
";;;;;;;;;;;;;;;;;;;;;;;;;;;;;;;;;;;;;;;;;;;;;;;;;;;;;;   ;;;;;;;;;;;;;;;;;;;;;;;;;;;;;;;;;;;;;;;",
";;;;;;;;;;;;;;;;;;;;;;;;;;;;;;;;;;;;;;;;;;;;;;;;;;;;;;     ;;;;;;;;;;;;;;;;;;;;;;;;;;;;;;;;;;;;;",
";;;;;;;;;;;;;;;;;;;;;;;;;;;;;;;;;;;;;;;;;;;;;;;;;;;;;;     ;;;;;;;;;;;;;;;;;;;;;;;;;;;;;;;;;;;;;",
";;;;;;;;;;;;;;;;;;;;;;;;;;;;;;;;;;;;;;;;;;;;;;;;;;;;;;     ;;;;;;;;;;;;;;;;;;;;;;  ;;;;;;;;;;;;;",
";;;;;;;;;;;;;;;;;;;;;;;;;;;;;;;;;;;;;;;;;;;;;;;;;;;;;;      ;;;;;;;;;;;;;;;;;;;;   ;;;;;;;;;;;;;",
";;;;;;;;;;;;;;;;;;;;;;;;;;;;;;;;;;;;;;;;;;;;;;;;;;;;;;      ;;;;;;;;;;;;;;;;;;;;   ;;;;;;;;;;;;;",
";;;;;;;;;;;;;;;;;;;;;;;;;;;;;;;;;;;;;;;;;;;;;;;;;;;;;;  X   ;;;;;;;;;;;;;;;;;;   ..;;;;;;;;;;;;;",
";;;;;;;;;;;;;;;;;;;;;;;;;;;;;;;;;;;;;;;;;;;;;;;;;;;;;;  oXX   ;;;;;;;;;;;;;;;   X  ;;;;;;;;;;;;;",
";;;;;;;;;;;;;;;;;;;;;;;;;;;;;;;;;;;;;;;;;;;;;;;;;;;;;;  oXX   ;;;;;;;;;;;;;;;   X  ;;;;;;;;;;;;;",
";;;;;;;;;;;;;;;;;;;;;;;;;;;;;;;;;;;;;;;;;;;;;;;;;;;;;;  ooo   ;;;;;;;;;;;;;  oooX  ;;;;;;;;;;;;;",
";;;;;;;;;;;;;;;;;;;;;;;;;;;;;;;;;;;;;;;;;;;;;;;;;;;;;;  oooX  ;;;;;;;;;;;; oo$ooX==;;;;;;;;;;;;;",
";;;;;;;;;;;;;;;;;;;;;;;;;;;;;;;;;;;;;;;;;;;;;;;;;;;;;;  oooX  ;;;;;;;;;;;; oo$ooX==;;;;;;;;;;;;;",
";;;;;;;;;;;;;;;;;;;;;;;;;;;;;;;;;;;;;;;;;;;;;;;;;;;;;;     X  ;;;;;;;;;;  oooooo ==;;;;;;;;;;;;;",
";;;;;;;;;;;;;;;;;;;;;;;;;;;;;;;;;;;;;;;;;;;;;;;;;;;;;;        ;;;;;;;;;;  o$$ooo ;;;;;;;;;;;;;;;",
";;;;;;;;;;;;;;;;;;;;;;;;;;;;;;;;;;;;;;;;;;;;;;;;;;;;;;        ;;;;;;;;;;  o$$ooo ;;;;;;;;;;;;;;;",
";;;;;;;;;;;;;;;;;;;;;;;;;;;;;;;;;;;;;;#                 ooo   ;;;;;;;;; oooooo  ;;;;;;;;;;;;;;;;",
";;;;;;;;;;;;;;;;;;;;;;;;;;;;;;;;;;;;##*%%@@@@@@@@@@@@@  oooo  ;;;;;;;   oo$oo   ;;;;;;;;;;;;;;;;",
";;;;;;;;;;;;;;;;;;;;;;;;;;;;;;;;;;;;##*%%@@@@@@@@@@@@@  oooo  ;;;;;;;   oo$oo   ;;;;;;;;;;;;;;;;",
";;;;;;;;;;;;;;;;;;;;;;;;;;;;;;;;;;;;##*%%@@@@@@@@@@@@@  oooo  ;;;;;;;  oooo   ;;;;;;;;;;;;;;;;;;",
";;;;;;;;;;;;;;;;;;;;;;;;;;;;;;;;;;;;;;#                 oooo  ;;;;;;   oooo  ;;;;;;;;;;;;;;;;;;;",
";;;;;;;;;;;;;;;;;;;;;;;;;;;;;;;;;;;;;;#                 oooo  ;;;;;;   oooo  ;;;;;;;;;;;;;;;;;;;",
";;;;;;;;;;;;;;;;;;;;;;;;;;;;;;;;;;;;;;;;;;;;;;;;;;;;;;  oooo  ;;;;;; ...oo ;;;;;;;;;;;;;;;;;;;;;",
";;;;;;;;;;;;;;;;;;;;;;;;;;;;;;;;;;;;;;;;;;;;;;;;;;;;;;  o++o  ;;;;   oo.   ;;;;;;;;;;; ;;;;;;;;;",
";;;;;;;;;;;;;;;;;;;;;;;;;;;;;;;;;;;;;;;;;;;;;;;;;;;;;;  o++o  ;;;;   oo.   ;;;;;;;;;;; ;;;;;;;;;",
";;;;;;;;;;;;;;;;;;;;;;;;;;;;;;;;;;;;;;;;;;;;;##         o++o  ;;;;  oooo  ;;;;;;;;;    ;;;;;;;;;",
";;;;;;;;;;;;;;;;;;;;;;;;;;;;;;;;;;;;;;;;;;;;#**%@@@@@@  o++o  ;;; oo+oo ;;;;;;;;       ;;;;;;;;;",
";;;;;;;;;;;;;;;;;;;;;;;;;;;;;;;;;;;;;;;;;;;;#**%@@@@@@  o++o  ;;; oo+oo ;;;;;;;;       ;;;;;;;;;",
";;;;;;;;;;;;;;;;;;;;;;;;;;;;;;;;;;;;;;;;;;;;#**%@@@@@@  o++o  ;   ooo   ;;;;;;   oooXX ;;;;;;;;;",
";;;;;;;;;;;;;;;;;;;;;;;;;;;;;;;;;;;;;;;;;;;;#**%@@@@@@  o++o  ;  oooo  ;;;;     ooo   ;;;;;;;;;;",
";;;;;;;;;;;;;;;;;;;;;;;;;;;;;;;;;;;;;;;;;;;;#**%@@@@@@  o++o  ;  oooo  ;;;;     ooo   ;;;;;;;;;;",
";;;;;;;;;;;;;;;;;;;;;;;;;;;;;;;;;;;;;;;;;;;;;##         o++o     o++o  ;;;   o...oo=;;;;;;;;;;;;",
";;;;;;;;;;;;;;;;;;;;;;;;;;;;;;;;;;;;;;;;;;;;;;;;;;;;;;  o++o   ooooo   ;   ooo$$.  =;;;;;;;;;;;;",
";;;;;;;;;;;;;;;;;;;;;;;;;;;;;;;;;;;;;;;;;;;;;;;;;;;;;;  o++o   ooooo   ;   ooo$$.  =;;;;;;;;;;;;",
";;;;;;;;;;;;;;;;;;;;;;;;;;;;;;;;;;;;;;;;;;;;;;;;;;;;;;  o++o   ++ooo ;;;  ooo$ooo  ;;;;;;;;;;;;;",
";;;;;;;;;;;;;;;;;;;;;;;;;;;;;;;;;;;;;;;;;;;;;;;;;;;;;;  oooo  oooooo ;;   oooooo   ;;;;;;;;;;;;;",
";;;;;;;;;;;;;;;;;;;;;;;;;;;;;;;;;;;;;;;;;;;;;;;;;;;;;;  oooo  oooooo ;;   oooooo   ;;;;;;;;;;;;;",
";;;;;;;;;;;;;;;;;;;;;;;;;;;;;;;;;;;;;;;;;;;;;;;;;;;     oooo  oooo      oooooo   ;;;;;;;;;;;;;;;",
";;;;;;;;;;;;;;;;;;;;;     ;;;;;;;;;;;;;;;            ooooooooooooo     o$$ooo   ;;;;;;;;;;;;;;;;",
";;;;;;;;;;;;;;;;;;;;;     ;;;;;;;;;;;;;;;            ooooooooooooo     o$$ooo   ;;;;;;;;;;;;;;;;",
";;;;;;;;;;;;;;         o                  oooooooooooooooooooooooo   oo$$$o   ;;;;;;;;;;;;;;;;;;",
";;;;;;;;;     oooooooooooooooooooooooooooo$$$$$$$$$$$$ooooo@oooooooooooooo   ;;;;;;;;;;;;;;;;;;&",
";;;;;;;;;     oooooooooooooooooooooooooooo$$$$$$$$$$$$ooooo@oooooooooooooo   ;;;;;;;;;;;;;;;;;;&",
";;;;;;;;   ooooooooooooooooooooooooooooooooooooooooooooo...@oooooooooooooo            ;;;;;;;&&&",
";;;      ooooooooooooooooooooooooooooooooooooooooooooo.....oooooooooooooooooooooo..o     ;;;;;;;",
";;;      ooooooooooooooooooooooooooooooooooooooooooooo.....oooooooooooooooooooooo..o     ;;;;;;;",
"     o++oooooo$oooooooo$$$$$$oooooooooooooooooooooooo@.....oooooooooooooooo++++++..oooX   --O%%O",
"     o++oooooo$oooooooo$$$$$$oooooooooooooooooooooooo@.....oooooooooooooooo++++++..oooX   --OOO%",
"     o++oooooo$oooooooo$$$$$$oooooooooooooooooooooooo@.....oooooooooooooooo++++++..oooX   --OOO%",
";;;      ooooooooooooooooooooooooooooooooooooooooooooo.....oooooooooooooooooooooo..o     ;;;;;;;",
";;;;;;;;   ooooooooooooooooooooooooooooooooooooooooooooo...@oooooooooooooo            ;;;;;;;&&&",
";;;;;;;;   ooooooooooooooooooooooooooooooooooooooooooooo...@oooooooooooooo            ;;;;;;;&&&",
";;;;;;;;;     oooooooooooooooooooooooooooo$$$$$$$$$$$$ooooo@oooooooooooooo   ;;;;;;;;;;;;;;;;;;&",
";;;;;;;;;;;;;;         o                  oooooooooooooooooooooooo   oo$$$o   ;;;;;;;;;;;;;;;;;;",
";;;;;;;;;;;;;;         o                  oooooooooooooooooooooooo   oo$$$o   ;;;;;;;;;;;;;;;;;;",
";;;;;;;;;;;;;;;;;;;;;     ;;;;;;;;;;;;;;;            ooooooooooooo     o$$ooo   ;;;;;;;;;;;;;;;;",
";;;;;;;;;;;;;;;;;;;;;;;;;;;;;;;;;;;;;;;;;;;;;;;;;;;     oooo  oooo      oooooo   ;;;;;;;;;;;;;;;",
";;;;;;;;;;;;;;;;;;;;;;;;;;;;;;;;;;;;;;;;;;;;;;;;;;;     oooo  oooo      oooooo   ;;;;;;;;;;;;;;;",
";;;;;;;;;;;;;;;;;;;;;;;;;;;;;;;;;;;;;;;;;;;;;;;;;;;;;;  oooo  oooooo ;;   oooooo   ;;;;;;;;;;;;;",
";;;;;;;;;;;;;;;;;;;;;;;;;;;;;;;;;;;;;;;;;;;;;;;;;;;;;;  o++o   ++ooo ;;;  ooo$ooo  ;;;;;;;;;;;;;",
";;;;;;;;;;;;;;;;;;;;;;;;;;;;;;;;;;;;;;;;;;;;;;;;;;;;;;  o++o   ++ooo ;;;  ooo$ooo  ;;;;;;;;;;;;;",
";;;;;;;;;;;;;;;;;;;;;;;;;;;;;;;;;;;;;;;;;;;;;;;;;;;;;;  o++o   ooooo   ;   ooo$$.  =;;;;;;;;;;;;",
";;;;;;;;;;;;;;;;;;;;;;;;;;;;;;;;;;;;;;;;;;;;;##         o++o     o++o  ;;;   o...oo=;;;;;;;;;;;;",
";;;;;;;;;;;;;;;;;;;;;;;;;;;;;;;;;;;;;;;;;;;;;##         o++o     o++o  ;;;   o...oo=;;;;;;;;;;;;",
";;;;;;;;;;;;;;;;;;;;;;;;;;;;;;;;;;;;;;;;;;;;#**%@@@@@@  o++o  ;  oooo  ;;;;     ooo   ;;;;;;;;;;",
";;;;;;;;;;;;;;;;;;;;;;;;;;;;;;;;;;;;;;;;;;;;#**%@@@@@@  o++o  ;   ooo   ;;;;;;   oooXX ;;;;;;;;;",
";;;;;;;;;;;;;;;;;;;;;;;;;;;;;;;;;;;;;;;;;;;;#**%@@@@@@  o++o  ;   ooo   ;;;;;;   oooXX ;;;;;;;;;",
";;;;;;;;;;;;;;;;;;;;;;;;;;;;;;;;;;;;;;;;;;;;#**%@@@@@@  o++o  ;;; oo+oo ;;;;;;;;       ;;;;;;;;;",
";;;;;;;;;;;;;;;;;;;;;;;;;;;;;;;;;;;;;;;;;;;;;##         o++o  ;;;;  oooo  ;;;;;;;;;    ;;;;;;;;;",
";;;;;;;;;;;;;;;;;;;;;;;;;;;;;;;;;;;;;;;;;;;;;##         o++o  ;;;;  oooo  ;;;;;;;;;    ;;;;;;;;;",
";;;;;;;;;;;;;;;;;;;;;;;;;;;;;;;;;;;;;;;;;;;;;;;;;;;;;;  o++o  ;;;;   oo.   ;;;;;;;;;;; ;;;;;;;;;",
";;;;;;;;;;;;;;;;;;;;;;;;;;;;;;;;;;;;;;;;;;;;;;;;;;;;;;  oooo  ;;;;;; ...oo ;;;;;;;;;;;;;;;;;;;;;",
";;;;;;;;;;;;;;;;;;;;;;;;;;;;;;;;;;;;;;;;;;;;;;;;;;;;;;  oooo  ;;;;;; ...oo ;;;;;;;;;;;;;;;;;;;;;",
";;;;;;;;;;;;;;;;;;;;;;;;;;;;;;;;;;;;;;#                 oooo  ;;;;;;   oooo  ;;;;;;;;;;;;;;;;;;;",
";;;;;;;;;;;;;;;;;;;;;;;;;;;;;;;;;;;;##*%%@@@@@@@@@@@@@  oooo  ;;;;;;;  oooo   ;;;;;;;;;;;;;;;;;;",
";;;;;;;;;;;;;;;;;;;;;;;;;;;;;;;;;;;;##*%%@@@@@@@@@@@@@  oooo  ;;;;;;;  oooo   ;;;;;;;;;;;;;;;;;;",
";;;;;;;;;;;;;;;;;;;;;;;;;;;;;;;;;;;;##*%%@@@@@@@@@@@@@  oooo  ;;;;;;;   oo$oo   ;;;;;;;;;;;;;;;;",
";;;;;;;;;;;;;;;;;;;;;;;;;;;;;;;;;;;;;;#                 ooo   ;;;;;;;;; oooooo  ;;;;;;;;;;;;;;;;",
";;;;;;;;;;;;;;;;;;;;;;;;;;;;;;;;;;;;;;#                 ooo   ;;;;;;;;; oooooo  ;;;;;;;;;;;;;;;;",
";;;;;;;;;;;;;;;;;;;;;;;;;;;;;;;;;;;;;;;;;;;;;;;;;;;;;;        ;;;;;;;;;;  o$$ooo ;;;;;;;;;;;;;;;",
";;;;;;;;;;;;;;;;;;;;;;;;;;;;;;;;;;;;;;;;;;;;;;;;;;;;;;     X  ;;;;;;;;;;  oooooo ==;;;;;;;;;;;;;",
";;;;;;;;;;;;;;;;;;;;;;;;;;;;;;;;;;;;;;;;;;;;;;;;;;;;;;     X  ;;;;;;;;;;  oooooo ==;;;;;;;;;;;;;",
";;;;;;;;;;;;;;;;;;;;;;;;;;;;;;;;;;;;;;;;;;;;;;;;;;;;;;  oooX  ;;;;;;;;;;;; oo$ooX==;;;;;;;;;;;;;",
";;;;;;;;;;;;;;;;;;;;;;;;;;;;;;;;;;;;;;;;;;;;;;;;;;;;;;  ooo   ;;;;;;;;;;;;;  oooX  ;;;;;;;;;;;;;",
";;;;;;;;;;;;;;;;;;;;;;;;;;;;;;;;;;;;;;;;;;;;;;;;;;;;;;  ooo   ;;;;;;;;;;;;;  oooX  ;;;;;;;;;;;;;",
";;;;;;;;;;;;;;;;;;;;;;;;;;;;;;;;;;;;;;;;;;;;;;;;;;;;;;  oXX   ;;;;;;;;;;;;;;;   X  ;;;;;;;;;;;;;",
";;;;;;;;;;;;;;;;;;;;;;;;;;;;;;;;;;;;;;;;;;;;;;;;;;;;;;  X   ;;;;;;;;;;;;;;;;;;   ..;;;;;;;;;;;;;",
";;;;;;;;;;;;;;;;;;;;;;;;;;;;;;;;;;;;;;;;;;;;;;;;;;;;;;  X   ;;;;;;;;;;;;;;;;;;   ..;;;;;;;;;;;;;",
";;;;;;;;;;;;;;;;;;;;;;;;;;;;;;;;;;;;;;;;;;;;;;;;;;;;;;      ;;;;;;;;;;;;;;;;;;;;   ;;;;;;;;;;;;;",
";;;;;;;;;;;;;;;;;;;;;;;;;;;;;;;;;;;;;;;;;;;;;;;;;;;;;;     ;;;;;;;;;;;;;;;;;;;;;;  ;;;;;;;;;;;;;",
";;;;;;;;;;;;;;;;;;;;;;;;;;;;;;;;;;;;;;;;;;;;;;;;;;;;;;     ;;;;;;;;;;;;;;;;;;;;;;  ;;;;;;;;;;;;;",
";;;;;;;;;;;;;;;;;;;;;;;;;;;;;;;;;;;;;;;;;;;;;;;;;;;;;;     ;;;;;;;;;;;;;;;;;;;;;;;;;;;;;;;;;;;;;",
";;;;;;;;;;;;;;;;;;;;;;;;;;;;;;;;;;;;;;;;;;;;;;;;;;;;;;   ;;;;;;;;;;;;;;;;;;;;;;;;;;;;;;;;;;;;;;;",
";;;;;;;;;;;;;;;;;;;;;;;;;;;;;;;;;;;;;;;;;;;;;;;;;;;;;;   ;;;;;;;;;;;;;;;;;;;;;;;;;;;;;;;;;;;;;;;",
";;;;;;;;;;;;;;;;;;;;;;;;;;;;;;;;;;;;;;;;;;;;;;;;;;;;;;  ;;;;;;;;;;;;;;;;;;;;;;;;;;;;;;;;;;;;;;;;"
};
