/* XPM */
static char *result[] = {
/* columns rows colors chars-per-pixel */
"96 96 11 1 ",
"  c black",
". c gray6",
"X c #561010",
"o c #8D0909",
"O c #DD1F1F",
"+ c #E81D1D",
"@ c #E86060",
"# c #D9881A",
"$ c #3E1AD9",
"% c #6B4AFB",
"& c None",
/* pixels */
"&&&&&&&&&&&&&&&&&&&&&&&&&&&&&&&&&&&&&&&&&&&&&&&&&&&&&&  &&&&&&&&&&&&&&&&&&&&&&&&&&&&&&&&&&&&&&&&",
"&&&&&&&&&&&&&&&&&&&&&&&&&&&&&&&&&&&&&&&&&&&&&&&&&&&&&&  &&&&&&&&&&&&&&&&&&&&&&&&&&&&&&&&&&&&&&&&",
"&&&&&&&&&&&&&&&&&&&&&&&&&&&&&&&&&&&&&&&&&&&&&&&&&&&&&&   &&&&&&&&&&&&&&&&&&&&&&&&&&&&&&&&&&&&&&&",
"&&&&&&&&&&&&&&&&&&&&&&&&&&&&&&&&&&&&&&&&&&&&&&&&&&&&&&     &&&&&&&&&&&&&&&&&&&&&&&&&&&&&&&&&&&&&",
"&&&&&&&&&&&&&&&&&&&&&&&&&&&&&&&&&&&&&&&&&&&&&&&&&&&&&&     &&&&&&&&&&&&&&&&&&&&&&&&&&&&&&&&&&&&&",
"&&&&&&&&&&&&&&&&&&&&&&&&&&&&&&&&&&&&&&&&&&&&&&&&&&&&&&     &&&&&&&&&&&&&&&&&&&&&&  &&&&&&&&&&&&&",
"&&&&&&&&&&&&&&&&&&&&&&&&&&&&&&&&&&&&&&&&&&&&&&&&&&&&&&      &&&&&&&&&&&&&&&&&&&&   &&&&&&&&&&&&&",
"&&&&&&&&&&&&&&&&&&&&&&&&&&&&&&&&&&&&&&&&&&&&&&&&&&&&&&      &&&&&&&&&&&&&&&&&&&&   &&&&&&&&&&&&&",
"&&&&&&&&&&&&&&&&&&&&&&&&&&&&&&&&&&&&&&&&&&&&&&&&&&&&&&  X   &&&&&&&&&&&&&&&&&&   ..&&&&&&&&&&&&&",
"&&&&&&&&&&&&&&&&&&&&&&&&&&&&&&&&&&&&&&&&&&&&&&&&&&&&&&  oXX   &&&&&&&&&&&&&&&   X  &&&&&&&&&&&&&",
"&&&&&&&&&&&&&&&&&&&&&&&&&&&&&&&&&&&&&&&&&&&&&&&&&&&&&&  oXX   &&&&&&&&&&&&&&&   X  &&&&&&&&&&&&&",
"&&&&&&&&&&&&&&&&&&&&&&&&&&&&&&&&&&&&&&&&&&&&&&&&&&&&&&  ooo   &&&&&&&&&&&&&  oooX  &&&&&&&&&&&&&",
"&&&&&&&&&&&&&&&&&&&&&&&&&&&&&&&&&&&&&&&&&&&&&&&&&&&&&&  oooX  &&&&&&&&&&&& oo@ooX$$&&&&&&&&&&&&&",
"&&&&&&&&&&&&&&&&&&&&&&&&&&&&&&&&&&&&&&&&&&&&&&&&&&&&&&  oooX  &&&&&&&&&&&& oo@ooX$$&&&&&&&&&&&&&",
"&&&&&&&&&&&&&&&&&&&&&&&&&&&&&&&&&&&&&&&&&&&&&&&&&&&&&&     X  &&&&&&&&&&  oooooo $$&&&&&&&&&&&&&",
"&&&&&&&&&&&&&&&&&&&&&&&&&&&&&&&&&&&&&&&&&&&&&&&&&&&&&&        &&&&&&&&&&  o@@ooo &&&&&&&&&&&&&&&",
"&&&&&&&&&&&&&&&&&&&&&&&&&&&&&&&&&&&&&&&&&&&&&&&&&&&&&&        &&&&&&&&&&  o@@ooo &&&&&&&&&&&&&&&",
"&&&&&&&&&&&&&&&&&&&&&&&&&&&&&&&&&&&&&&&                 ooo   &&&&&&&&& oooooo  &&&&&&&&&&&&&&&&",
"&&&&&&&&&&&&&&&&&&&&&&&&&&&&&&&&&&&&&&&##+++++++++++++  oooo  &&&&&&&   oo@oo   &&&&&&&&&&&&&&&&",
"&&&&&&&&&&&&&&&&&&&&&&&&&&&&&&&&&&&&&&&##+++++++++++++  oooo  &&&&&&&   oo@oo   &&&&&&&&&&&&&&&&",
"&&&&&&&&&&&&&&&&&&&&&&&&&&&&&&&&&&&&&&&##+++++++++++++  oooo  &&&&&&&  oooo   &&&&&&&&&&&&&&&&&&",
"&&&&&&&&&&&&&&&&&&&&&&&&&&&&&&&&&&&&&&&                 oooo  &&&&&&   oooo  &&&&&&&&&&&&&&&&&&&",
"&&&&&&&&&&&&&&&&&&&&&&&&&&&&&&&&&&&&&&&                 oooo  &&&&&&   oooo  &&&&&&&&&&&&&&&&&&&",
"&&&&&&&&&&&&&&&&&&&&&&&&&&&&&&&&&&&&&&&&&&&&&&&&&&&&&&  oooo  &&&&&& ...oo &&&&&&&&&&&&&&&&&&&&&",
"&&&&&&&&&&&&&&&&&&&&&&&&&&&&&&&&&&&&&&&&&&&&&&&&&&&&&&  oOOo  &&&&   oo.   &&&&&&&&&&& &&&&&&&&&",
"&&&&&&&&&&&&&&&&&&&&&&&&&&&&&&&&&&&&&&&&&&&&&&&&&&&&&&  oOOo  &&&&   oo.   &&&&&&&&&&& &&&&&&&&&",
"&&&&&&&&&&&&&&&&&&&&&&&&&&&&&&&&&&&&&&&&&&&&&&&         oOOo  &&&&  oooo  &&&&&&&&&    &&&&&&&&&",
"&&&&&&&&&&&&&&&&&&&&&&&&&&&&&&&&&&&&&&&&&&&&&&&#++++++  oOOo  &&& ooOoo &&&&&&&&       &&&&&&&&&",
"&&&&&&&&&&&&&&&&&&&&&&&&&&&&&&&&&&&&&&&&&&&&&&&#++++++  oOOo  &&& ooOoo &&&&&&&&       &&&&&&&&&",
"&&&&&&&&&&&&&&&&&&&&&&&&&&&&&&&&&&&&&&&&&&&&&&&#++++++  oOOo  &   ooo   &&&&&&   oooXX &&&&&&&&&",
"&&&&&&&&&&&&&&&&&&&&&&&&&&&&&&&&&&&&&&&&&&&&&&&#++++++  oOOo  &  oooo  &&&&     ooo   &&&&&&&&&&",
"&&&&&&&&&&&&&&&&&&&&&&&&&&&&&&&&&&&&&&&&&&&&&&&#++++++  oOOo  &  oooo  &&&&     ooo   &&&&&&&&&&",
"&&&&&&&&&&&&&&&&&&&&&&&&&&&&&&&&&&&&&&&&&&&&&&&         oOOo     oOOo  &&&   o...oo$&&&&&&&&&&&&",
"&&&&&&&&&&&&&&&&&&&&&&&&&&&&&&&&&&&&&&&&&&&&&&&&&&&&&&  oOOo   ooooo   &   ooo@@.  $&&&&&&&&&&&&",
"&&&&&&&&&&&&&&&&&&&&&&&&&&&&&&&&&&&&&&&&&&&&&&&&&&&&&&  oOOo   ooooo   &   ooo@@.  $&&&&&&&&&&&&",
"&&&&&&&&&&&&&&&&&&&&&&&&&&&&&&&&&&&&&&&&&&&&&&&&&&&&&&  oOOo   OOooo &&&  ooo@ooo  &&&&&&&&&&&&&",
"&&&&&&&&&&&&&&&&&&&&&&&&&&&&&&&&&&&&&&&&&&&&&&&&&&&&&&  oooo  oooooo &&   oooooo   &&&&&&&&&&&&&",
"&&&&&&&&&&&&&&&&&&&&&&&&&&&&&&&&&&&&&&&&&&&&&&&&&&&&&&  oooo  oooooo &&   oooooo   &&&&&&&&&&&&&",
"&&&&&&&&&&&&&&&&&&&&&&&&&&&&&&&&&&&&&&&&&&&&&&&&&&&     oooo  oooo      oooooo   &&&&&&&&&&&&&&&",
"&&&&&&&&&&&&&&&&&&&&&     &&&&&&&&&&&&&&&            ooooooooooooo     o@@ooo   &&&&&&&&&&&&&&&&",
"&&&&&&&&&&&&&&&&&&&&&     &&&&&&&&&&&&&&&            ooooooooooooo     o@@ooo   &&&&&&&&&&&&&&&&",
"&&&&&&&&&&&&&&         o                  oooooooooooooooooooooooo   oo@@@o   &&&&&&&&&&&&&&&&&&",
"&&&&&&&&&     oooooooooooooooooooooooooooo@@@@@@@@@@@@ooooo+oooooooooooooo   &&&&&&&&&&&&&&&&&&&",
"&&&&&&&&&     oooooooooooooooooooooooooooo@@@@@@@@@@@@ooooo+oooooooooooooo   &&&&&&&&&&&&&&&&&&&",
"&&&&&&&&   ooooooooooooooooooooooooooooooooooooooooooooo...+oooooooooooooo            &&&&&&&&&&",
"&&&      ooooooooooooooooooooooooooooooooooooooooooooo.....oooooooooooooooooooooo..o     &&&&&&&",
"&&&      ooooooooooooooooooooooooooooooooooooooooooooo.....oooooooooooooooooooooo..o     &&&&&&&",
"     oOOoooooo@oooooooo@@@@@@oooooooooooooooooooooooo+.....ooooooooooooooooOOOOOO..oooX   %%&&&&",
"     oOOoooooo@oooooooo@@@@@@oooooooooooooooooooooooo+.....ooooooooooooooooOOOOOO..oooX   %%&&&&",
"     oOOoooooo@oooooooo@@@@@@oooooooooooooooooooooooo+.....ooooooooooooooooOOOOOO..oooX   %%&&&&",
"&&&      ooooooooooooooooooooooooooooooooooooooooooooo.....oooooooooooooooooooooo..o     &&&&&&&",
"&&&&&&&&   ooooooooooooooooooooooooooooooooooooooooooooo...+oooooooooooooo            &&&&&&&&&&",
"&&&&&&&&   ooooooooooooooooooooooooooooooooooooooooooooo...+oooooooooooooo            &&&&&&&&&&",
"&&&&&&&&&     oooooooooooooooooooooooooooo@@@@@@@@@@@@ooooo+oooooooooooooo   &&&&&&&&&&&&&&&&&&&",
"&&&&&&&&&&&&&&         o                  oooooooooooooooooooooooo   oo@@@o   &&&&&&&&&&&&&&&&&&",
"&&&&&&&&&&&&&&         o                  oooooooooooooooooooooooo   oo@@@o   &&&&&&&&&&&&&&&&&&",
"&&&&&&&&&&&&&&&&&&&&&     &&&&&&&&&&&&&&&            ooooooooooooo     o@@ooo   &&&&&&&&&&&&&&&&",
"&&&&&&&&&&&&&&&&&&&&&&&&&&&&&&&&&&&&&&&&&&&&&&&&&&&     oooo  oooo      oooooo   &&&&&&&&&&&&&&&",
"&&&&&&&&&&&&&&&&&&&&&&&&&&&&&&&&&&&&&&&&&&&&&&&&&&&     oooo  oooo      oooooo   &&&&&&&&&&&&&&&",
"&&&&&&&&&&&&&&&&&&&&&&&&&&&&&&&&&&&&&&&&&&&&&&&&&&&&&&  oooo  oooooo &&   oooooo   &&&&&&&&&&&&&",
"&&&&&&&&&&&&&&&&&&&&&&&&&&&&&&&&&&&&&&&&&&&&&&&&&&&&&&  oOOo   OOooo &&&  ooo@ooo  &&&&&&&&&&&&&",
"&&&&&&&&&&&&&&&&&&&&&&&&&&&&&&&&&&&&&&&&&&&&&&&&&&&&&&  oOOo   OOooo &&&  ooo@ooo  &&&&&&&&&&&&&",
"&&&&&&&&&&&&&&&&&&&&&&&&&&&&&&&&&&&&&&&&&&&&&&&&&&&&&&  oOOo   ooooo   &   ooo@@.  $&&&&&&&&&&&&",
"&&&&&&&&&&&&&&&&&&&&&&&&&&&&&&&&&&&&&&&&&&&&&&&         oOOo     oOOo  &&&   o...oo$&&&&&&&&&&&&",
"&&&&&&&&&&&&&&&&&&&&&&&&&&&&&&&&&&&&&&&&&&&&&&&         oOOo     oOOo  &&&   o...oo$&&&&&&&&&&&&",
"&&&&&&&&&&&&&&&&&&&&&&&&&&&&&&&&&&&&&&&&&&&&&&&#++++++  oOOo  &  oooo  &&&&     ooo   &&&&&&&&&&",
"&&&&&&&&&&&&&&&&&&&&&&&&&&&&&&&&&&&&&&&&&&&&&&&#++++++  oOOo  &   ooo   &&&&&&   oooXX &&&&&&&&&",
"&&&&&&&&&&&&&&&&&&&&&&&&&&&&&&&&&&&&&&&&&&&&&&&#++++++  oOOo  &   ooo   &&&&&&   oooXX &&&&&&&&&",
"&&&&&&&&&&&&&&&&&&&&&&&&&&&&&&&&&&&&&&&&&&&&&&&#++++++  oOOo  &&& ooOoo &&&&&&&&       &&&&&&&&&",
"&&&&&&&&&&&&&&&&&&&&&&&&&&&&&&&&&&&&&&&&&&&&&&&         oOOo  &&&&  oooo  &&&&&&&&&    &&&&&&&&&",
"&&&&&&&&&&&&&&&&&&&&&&&&&&&&&&&&&&&&&&&&&&&&&&&         oOOo  &&&&  oooo  &&&&&&&&&    &&&&&&&&&",
"&&&&&&&&&&&&&&&&&&&&&&&&&&&&&&&&&&&&&&&&&&&&&&&&&&&&&&  oOOo  &&&&   oo.   &&&&&&&&&&& &&&&&&&&&",
"&&&&&&&&&&&&&&&&&&&&&&&&&&&&&&&&&&&&&&&&&&&&&&&&&&&&&&  oooo  &&&&&& ...oo &&&&&&&&&&&&&&&&&&&&&",
"&&&&&&&&&&&&&&&&&&&&&&&&&&&&&&&&&&&&&&&&&&&&&&&&&&&&&&  oooo  &&&&&& ...oo &&&&&&&&&&&&&&&&&&&&&",
"&&&&&&&&&&&&&&&&&&&&&&&&&&&&&&&&&&&&&&&                 oooo  &&&&&&   oooo  &&&&&&&&&&&&&&&&&&&",
"&&&&&&&&&&&&&&&&&&&&&&&&&&&&&&&&&&&&&&&##+++++++++++++  oooo  &&&&&&&  oooo   &&&&&&&&&&&&&&&&&&",
"&&&&&&&&&&&&&&&&&&&&&&&&&&&&&&&&&&&&&&&##+++++++++++++  oooo  &&&&&&&  oooo   &&&&&&&&&&&&&&&&&&",
"&&&&&&&&&&&&&&&&&&&&&&&&&&&&&&&&&&&&&&&##+++++++++++++  oooo  &&&&&&&   oo@oo   &&&&&&&&&&&&&&&&",
"&&&&&&&&&&&&&&&&&&&&&&&&&&&&&&&&&&&&&&&                 ooo   &&&&&&&&& oooooo  &&&&&&&&&&&&&&&&",
"&&&&&&&&&&&&&&&&&&&&&&&&&&&&&&&&&&&&&&&                 ooo   &&&&&&&&& oooooo  &&&&&&&&&&&&&&&&",
"&&&&&&&&&&&&&&&&&&&&&&&&&&&&&&&&&&&&&&&&&&&&&&&&&&&&&&        &&&&&&&&&&  o@@ooo &&&&&&&&&&&&&&&",
"&&&&&&&&&&&&&&&&&&&&&&&&&&&&&&&&&&&&&&&&&&&&&&&&&&&&&&     X  &&&&&&&&&&  oooooo $$&&&&&&&&&&&&&",
"&&&&&&&&&&&&&&&&&&&&&&&&&&&&&&&&&&&&&&&&&&&&&&&&&&&&&&     X  &&&&&&&&&&  oooooo $$&&&&&&&&&&&&&",
"&&&&&&&&&&&&&&&&&&&&&&&&&&&&&&&&&&&&&&&&&&&&&&&&&&&&&&  oooX  &&&&&&&&&&&& oo@ooX$$&&&&&&&&&&&&&",
"&&&&&&&&&&&&&&&&&&&&&&&&&&&&&&&&&&&&&&&&&&&&&&&&&&&&&&  ooo   &&&&&&&&&&&&&  oooX  &&&&&&&&&&&&&",
"&&&&&&&&&&&&&&&&&&&&&&&&&&&&&&&&&&&&&&&&&&&&&&&&&&&&&&  ooo   &&&&&&&&&&&&&  oooX  &&&&&&&&&&&&&",
"&&&&&&&&&&&&&&&&&&&&&&&&&&&&&&&&&&&&&&&&&&&&&&&&&&&&&&  oXX   &&&&&&&&&&&&&&&   X  &&&&&&&&&&&&&",
"&&&&&&&&&&&&&&&&&&&&&&&&&&&&&&&&&&&&&&&&&&&&&&&&&&&&&&  X   &&&&&&&&&&&&&&&&&&   ..&&&&&&&&&&&&&",
"&&&&&&&&&&&&&&&&&&&&&&&&&&&&&&&&&&&&&&&&&&&&&&&&&&&&&&  X   &&&&&&&&&&&&&&&&&&   ..&&&&&&&&&&&&&",
"&&&&&&&&&&&&&&&&&&&&&&&&&&&&&&&&&&&&&&&&&&&&&&&&&&&&&&      &&&&&&&&&&&&&&&&&&&&   &&&&&&&&&&&&&",
"&&&&&&&&&&&&&&&&&&&&&&&&&&&&&&&&&&&&&&&&&&&&&&&&&&&&&&     &&&&&&&&&&&&&&&&&&&&&&  &&&&&&&&&&&&&",
"&&&&&&&&&&&&&&&&&&&&&&&&&&&&&&&&&&&&&&&&&&&&&&&&&&&&&&     &&&&&&&&&&&&&&&&&&&&&&  &&&&&&&&&&&&&",
"&&&&&&&&&&&&&&&&&&&&&&&&&&&&&&&&&&&&&&&&&&&&&&&&&&&&&&     &&&&&&&&&&&&&&&&&&&&&&&&&&&&&&&&&&&&&",
"&&&&&&&&&&&&&&&&&&&&&&&&&&&&&&&&&&&&&&&&&&&&&&&&&&&&&&   &&&&&&&&&&&&&&&&&&&&&&&&&&&&&&&&&&&&&&&",
"&&&&&&&&&&&&&&&&&&&&&&&&&&&&&&&&&&&&&&&&&&&&&&&&&&&&&&   &&&&&&&&&&&&&&&&&&&&&&&&&&&&&&&&&&&&&&&",
"&&&&&&&&&&&&&&&&&&&&&&&&&&&&&&&&&&&&&&&&&&&&&&&&&&&&&&  &&&&&&&&&&&&&&&&&&&&&&&&&&&&&&&&&&&&&&&&"
};
