/* XPM */
static char *result[] = {
/* columns rows colors chars-per-pixel */
"96 96 11 1 ",
"  c black",
". c gray6",
"X c #561010",
"o c #8D0909",
"O c #DD1F1F",
"+ c #E81D1D",
"@ c #E86060",
"# c #D9881A",
"$ c #3E1AD9",
"% c #6B4AFB",
"& c None",
/* pixels */
"&&&&&&&&&&&&&&&&&&&&&&&&&&&&&&&&&&&&&&&&& &&&&&&&&&&&&&&&&&&&&&&&&&&&&&&&&&&&&&&&&&&&&&&&&&&&&&&",
"&&&&&&&&&&&&&&&&&&&&&&&&&&&&&&&&&&&&&&&&& &&&&&&&&&&&&&&&&&&&&&&&&&&&&&&&&&&&&&&&&&&&&&&&&&&&&&&",
"&&&&&&&&&&&&&&&&&&&&&&&&&&&&&&&&&&&&&&&   &&&&&&&&&&&&&&&&&&&&&&&&&&&&&&&&&&&&&&&&&&&&&&&&&&&&&&",
"&&&&&&&&&&&&&&&&&&&&&&&&&&&&&&&&&&&&&&    &&&&&&&&&&&&&&&&&&&&&&&&&&&&&&&&&&&&&&&&&&&&&&&&&&&&&&",
"&&&&&&&&&&&&&&&&&&&&&&&&&&&&&&&&&&&&&&    &&&&&&&&&&&&&&&&&&&&&&&&&&&&&&&&&&&&&&&&&&&&&&&&&&&&&&",
"&&&&&&&&&&&&&& &&&&&&&&&&&&&&&&&&&&&&&    &&&&&&&&&&&&&&&&&&&&&&&&&&&&&&&&&&&&&&&&&&&&&&&&&&&&&&",
"&&&&&&&&&&&&&&   &&&&&&&&&&&&&&&&&&&      &&&&&&&&&&&&&&&&&&&&&&&&&&&&&&&&&&&&&&&&&&&&&&&&&&&&&&",
"&&&&&&&&&&&&&&   &&&&&&&&&&&&&&&&&&&      &&&&&&&&&&&&&&&&&&&&&&&&&&&&&&&&&&&&&&&&&&&&&&&&&&&&&&",
"&&&&&&&&&&&&&&.   &&&&&&&&&&&&&&&&&&   XX &&&&&&&&&&&&&&&&&&&&&&&&&&&&&&&&&&&&&&&&&&&&&&&&&&&&&&",
"&&&&&&&&&&&&&& XX   &&&&&&&&&&&&&&&   Xoo &&&&&&&&&&&&&&&&&&&&&&&&&&&&&&&&&&&&&&&&&&&&&&&&&&&&&&",
"&&&&&&&&&&&&&& XX   &&&&&&&&&&&&&&&   Xoo &&&&&&&&&&&&&&&&&&&&&&&&&&&&&&&&&&&&&&&&&&&&&&&&&&&&&&",
"&&&&&&&&&&&&&& XXooo &&&&&&&&&&&&&&   ooo &&&&&&&&&&&&&&&&&&&&&&&&&&&&&&&&&&&&&&&&&&&&&&&&&&&&&&",
"&&&&&&&&&&&&&&$XXo@@o  &&&&&&&&&&&& XXooo &&&&&&&&&&&&&&&&&&&&&&&&&&&&&&&&&&&&&&&&&&&&&&&&&&&&&&",
"&&&&&&&&&&&&&&$XXo@@o  &&&&&&&&&&&& XXooo &&&&&&&&&&&&&&&&&&&&&&&&&&&&&&&&&&&&&&&&&&&&&&&&&&&&&&",
"&&&&&&&&&&&&&&$  oooooo &&&&&&&&&&& XX    &&&&&&&&&&&&&&&&&&&&&&&&&&&&&&&&&&&&&&&&&&&&&&&&&&&&&&",
"&&&&&&&&&&&&&&&  ooo@oo &&&&&&&&&&&       &&&&&&&&&&&&&&&&&&&&&&&&&&&&&&&&&&&&&&&&&&&&&&&&&&&&&&",
"&&&&&&&&&&&&&&&  ooo@oo &&&&&&&&&&&       &&&&&&&&&&&&&&&&&&&&&&&&&&&&&&&&&&&&&&&&&&&&&&&&&&&&&&",
"&&&&&&&&&&&&&&&&& oooooo  &&&&&&&&&   ooo                &&&&&&&&&&&&&&&&&&&&&&&&&&&&&&&&&&&&&&&",
"&&&&&&&&&&&&&&&&&   o@@o   &&&&&&&& ooooo ++++++++++++++#&&&&&&&&&&&&&&&&&&&&&&&&&&&&&&&&&&&&&&&",
"&&&&&&&&&&&&&&&&&   o@@o   &&&&&&&& ooooo ++++++++++++++#&&&&&&&&&&&&&&&&&&&&&&&&&&&&&&&&&&&&&&&",
"&&&&&&&&&&&&&&&&&&   ooooo &&&&&&&& ooooo ++++++++++++++#&&&&&&&&&&&&&&&&&&&&&&&&&&&&&&&&&&&&&&&",
"&&&&&&&&&&&&&&&&&&&& ooooo   &&&&&& ooooo                &&&&&&&&&&&&&&&&&&&&&&&&&&&&&&&&&&&&&&&",
"&&&&&&&&&&&&&&&&&&&& ooooo   &&&&&& ooooo                &&&&&&&&&&&&&&&&&&&&&&&&&&&&&&&&&&&&&&&",
"&&&&&&&&&&&&&&&&&&&&&  o...  &&&&&& ooooo &&&&&&&&&&&&&&&&&&&&&&&&&&&&&&&&&&&&&&&&&&&&&&&&&&&&&&",
"&&&&&&&&&  &&&&&&&&&&   ..o   &&&&& ooOoo &&&&&&&&&&&&&&&&&&&&&&&&&&&&&&&&&&&&&&&&&&&&&&&&&&&&&&",
"&&&&&&&&&  &&&&&&&&&&   ..o   &&&&& ooOoo &&&&&&&&&&&&&&&&&&&&&&&&&&&&&&&&&&&&&&&&&&&&&&&&&&&&&&",
"&&&&&&&&&     &&&&&&&&& ooooo &&&&& ooOoo         &&&&&&&&&&&&&&&&&&&&&&&&&&&&&&&&&&&&&&&&&&&&&&",
"&&&&&&&&&        &&&&&&&  oOOo  &&& ooOoo ++++++##&&&&&&&&&&&&&&&&&&&&&&&&&&&&&&&&&&&&&&&&&&&&&&",
"&&&&&&&&&        &&&&&&&  oOOo  &&& ooOoo ++++++##&&&&&&&&&&&&&&&&&&&&&&&&&&&&&&&&&&&&&&&&&&&&&&",
"&&&&&&&&&  Xooo   &&&&&&   ooo   && ooOoo ++++++##&&&&&&&&&&&&&&&&&&&&&&&&&&&&&&&&&&&&&&&&&&&&&&",
"&&&&&&&&&&&   ooo    &&&&& ooooo && ooOoo ++++++##&&&&&&&&&&&&&&&&&&&&&&&&&&&&&&&&&&&&&&&&&&&&&&",
"&&&&&&&&&&&   ooo    &&&&& ooooo && ooOoo ++++++##&&&&&&&&&&&&&&&&&&&&&&&&&&&&&&&&&&&&&&&&&&&&&&",
"&&&&&&&&&&&&$$o...oo   &&& ooOoo    ooOoo         &&&&&&&&&&&&&&&&&&&&&&&&&&&&&&&&&&&&&&&&&&&&&&",
"&&&&&&&&&&&&$$ ..@ooo   &&   oooo   ooOoo &&&&&&&&&&&&&&&&&&&&&&&&&&&&&&&&&&&&&&&&&&&&&&&&&&&&&&",
"&&&&&&&&&&&&$$ ..@ooo   &&   oooo   ooOoo &&&&&&&&&&&&&&&&&&&&&&&&&&&&&&&&&&&&&&&&&&&&&&&&&&&&&&",
"&&&&&&&&&&&&&& ooo@@ooo &&&  oooO   ooOoo &&&&&&&&&&&&&&&&&&&&&&&&&&&&&&&&&&&&&&&&&&&&&&&&&&&&&&",
"&&&&&&&&&&&&&&   oooooo   &  oooooo ooooo &&&&&&&&&&&&&&&&&&&&&&&&&&&&&&&&&&&&&&&&&&&&&&&&&&&&&&",
"&&&&&&&&&&&&&&   oooooo   &  oooooo ooooo &&&&&&&&&&&&&&&&&&&&&&&&&&&&&&&&&&&&&&&&&&&&&&&&&&&&&&",
"&&&&&&&&&&&&&&&   oooooo      ooooo ooooo    &&&&&&&&&&&&&&&&&&&&&&&&&&&&&&&&&&&&&&&&&&&&&&&&&&&",
"&&&&&&&&&&&&&&&&&   ooo@oo    oooooooooooooo            &&&&&&&&&&&&&&&    &&&&&&&&&&&&&&&&&&&&&",
"&&&&&&&&&&&&&&&&&   ooo@oo    oooooooooooooo            &&&&&&&&&&&&&&&    &&&&&&&&&&&&&&&&&&&&&",
"&&&&&&&&&&&&&&&&&&   oo@@@o   oooooooooooooooooooooooo                  oo         &&&&&&&&&&&&&",
"&&&&&&&&&&&&&&&&&&&&   ooooooooooooo++oooo@@@@@@@@@@@@ooooooooooooooooooooooooooooo    &&&&&&&&&",
"&&&&&&&&&&&&&&&&&&&&   ooooooooooooo++oooo@@@@@@@@@@@@ooooooooooooooooooooooooooooo    &&&&&&&&&",
"&&&&&&&&&&&            ooooooooooooo++...ooooooooooooooooooooooooooooooooooooooooooooo   &&&&&&&",
"&&&&&&&&    oo.ooooooooooooooooooooooo....ooooooooooooooooooooooooooooooooooooooooooooo      &&&",
"&&&&&&&&    oo.ooooooooooooooooooooooo....ooooooooooooooooooooooooooooooooooooooooooooo      &&&",
"&&&&&%   XXooo.OOOOOOooooooooooooooooo....++oooooooooooooooooooooooo@@@@@@ooooooo@@ooooooOoo    ",
"&&&&&%   XXooo.OOOOOOooooooooooooooooo....++oooooooooooooooooooooooo@@@@@@ooooooo@@ooooooOoo    ",
"&&&&&%   XXooo.OOOOOOooooooooooooooooo....++oooooooooooooooooooooooo@@@@@@ooooooo@@ooooooOoo    ",
"&&&&&&&&    oo.ooooooooooooooooooooooo....ooooooooooooooooooooooooooooooooooooooooooooo      &&&",
"&&&&&&&&&&&            ooooooooooooo++...ooooooooooooooooooooooooooooooooooooooooooooo   &&&&&&&",
"&&&&&&&&&&&            ooooooooooooo++...ooooooooooooooooooooooooooooooooooooooooooooo   &&&&&&&",
"&&&&&&&&&&&&&&&&&&&&   ooooooooooooo++oooo@@@@@@@@@@@@ooooooooooooooooooooooooooooo    &&&&&&&&&",
"&&&&&&&&&&&&&&&&&&   oo@@@o   oooooooooooooooooooooooo                  oo         &&&&&&&&&&&&&",
"&&&&&&&&&&&&&&&&&&   oo@@@o   oooooooooooooooooooooooo                  oo         &&&&&&&&&&&&&",
"&&&&&&&&&&&&&&&&&   ooo@oo    oooooooooooooo            &&&&&&&&&&&&&&&    &&&&&&&&&&&&&&&&&&&&&",
"&&&&&&&&&&&&&&&   oooooo      ooooo ooooo    &&&&&&&&&&&&&&&&&&&&&&&&&&&&&&&&&&&&&&&&&&&&&&&&&&&",
"&&&&&&&&&&&&&&&   oooooo      ooooo ooooo    &&&&&&&&&&&&&&&&&&&&&&&&&&&&&&&&&&&&&&&&&&&&&&&&&&&",
"&&&&&&&&&&&&&&   oooooo   &  oooooo ooooo &&&&&&&&&&&&&&&&&&&&&&&&&&&&&&&&&&&&&&&&&&&&&&&&&&&&&&",
"&&&&&&&&&&&&&& ooo@@ooo &&&  oooO   ooOoo &&&&&&&&&&&&&&&&&&&&&&&&&&&&&&&&&&&&&&&&&&&&&&&&&&&&&&",
"&&&&&&&&&&&&&& ooo@@ooo &&&  oooO   ooOoo &&&&&&&&&&&&&&&&&&&&&&&&&&&&&&&&&&&&&&&&&&&&&&&&&&&&&&",
"&&&&&&&&&&&&$$ ..@ooo   &&   oooo   ooOoo &&&&&&&&&&&&&&&&&&&&&&&&&&&&&&&&&&&&&&&&&&&&&&&&&&&&&&",
"&&&&&&&&&&&&$$o...oo   &&& ooOoo    ooOoo         &&&&&&&&&&&&&&&&&&&&&&&&&&&&&&&&&&&&&&&&&&&&&&",
"&&&&&&&&&&&&$$o...oo   &&& ooOoo    ooOoo         &&&&&&&&&&&&&&&&&&&&&&&&&&&&&&&&&&&&&&&&&&&&&&",
"&&&&&&&&&&&   ooo    &&&&& ooooo && ooOoo ++++++##&&&&&&&&&&&&&&&&&&&&&&&&&&&&&&&&&&&&&&&&&&&&&&",
"&&&&&&&&&  Xooo   &&&&&&   ooo   && ooOoo ++++++##&&&&&&&&&&&&&&&&&&&&&&&&&&&&&&&&&&&&&&&&&&&&&&",
"&&&&&&&&&  Xooo   &&&&&&   ooo   && ooOoo ++++++##&&&&&&&&&&&&&&&&&&&&&&&&&&&&&&&&&&&&&&&&&&&&&&",
"&&&&&&&&&        &&&&&&&  oOOo  &&& ooOoo ++++++##&&&&&&&&&&&&&&&&&&&&&&&&&&&&&&&&&&&&&&&&&&&&&&",
"&&&&&&&&&     &&&&&&&&& ooooo &&&&& ooOoo         &&&&&&&&&&&&&&&&&&&&&&&&&&&&&&&&&&&&&&&&&&&&&&",
"&&&&&&&&&     &&&&&&&&& ooooo &&&&& ooOoo         &&&&&&&&&&&&&&&&&&&&&&&&&&&&&&&&&&&&&&&&&&&&&&",
"&&&&&&&&&  &&&&&&&&&&   ..o   &&&&& ooOoo &&&&&&&&&&&&&&&&&&&&&&&&&&&&&&&&&&&&&&&&&&&&&&&&&&&&&&",
"&&&&&&&&&&&&&&&&&&&&&  o...  &&&&&& ooooo &&&&&&&&&&&&&&&&&&&&&&&&&&&&&&&&&&&&&&&&&&&&&&&&&&&&&&",
"&&&&&&&&&&&&&&&&&&&&&  o...  &&&&&& ooooo &&&&&&&&&&&&&&&&&&&&&&&&&&&&&&&&&&&&&&&&&&&&&&&&&&&&&&",
"&&&&&&&&&&&&&&&&&&&& ooooo   &&&&&& ooooo                &&&&&&&&&&&&&&&&&&&&&&&&&&&&&&&&&&&&&&&",
"&&&&&&&&&&&&&&&&&&   ooooo &&&&&&&& ooooo ++++++++++++++#&&&&&&&&&&&&&&&&&&&&&&&&&&&&&&&&&&&&&&&",
"&&&&&&&&&&&&&&&&&&   ooooo &&&&&&&& ooooo ++++++++++++++#&&&&&&&&&&&&&&&&&&&&&&&&&&&&&&&&&&&&&&&",
"&&&&&&&&&&&&&&&&&   o@@o   &&&&&&&& ooooo ++++++++++++++#&&&&&&&&&&&&&&&&&&&&&&&&&&&&&&&&&&&&&&&",
"&&&&&&&&&&&&&&&&& oooooo  &&&&&&&&&   ooo                &&&&&&&&&&&&&&&&&&&&&&&&&&&&&&&&&&&&&&&",
"&&&&&&&&&&&&&&&&& oooooo  &&&&&&&&&   ooo                &&&&&&&&&&&&&&&&&&&&&&&&&&&&&&&&&&&&&&&",
"&&&&&&&&&&&&&&&  ooo@oo &&&&&&&&&&&       &&&&&&&&&&&&&&&&&&&&&&&&&&&&&&&&&&&&&&&&&&&&&&&&&&&&&&",
"&&&&&&&&&&&&&&$  oooooo &&&&&&&&&&& XX    &&&&&&&&&&&&&&&&&&&&&&&&&&&&&&&&&&&&&&&&&&&&&&&&&&&&&&",
"&&&&&&&&&&&&&&$  oooooo &&&&&&&&&&& XX    &&&&&&&&&&&&&&&&&&&&&&&&&&&&&&&&&&&&&&&&&&&&&&&&&&&&&&",
"&&&&&&&&&&&&&&$XXo@@o  &&&&&&&&&&&& XXooo &&&&&&&&&&&&&&&&&&&&&&&&&&&&&&&&&&&&&&&&&&&&&&&&&&&&&&",
"&&&&&&&&&&&&&& XXooo &&&&&&&&&&&&&&   ooo &&&&&&&&&&&&&&&&&&&&&&&&&&&&&&&&&&&&&&&&&&&&&&&&&&&&&&",
"&&&&&&&&&&&&&& XXooo &&&&&&&&&&&&&&   ooo &&&&&&&&&&&&&&&&&&&&&&&&&&&&&&&&&&&&&&&&&&&&&&&&&&&&&&",
"&&&&&&&&&&&&&& XX   &&&&&&&&&&&&&&&   Xoo &&&&&&&&&&&&&&&&&&&&&&&&&&&&&&&&&&&&&&&&&&&&&&&&&&&&&&",
"&&&&&&&&&&&&&&.   &&&&&&&&&&&&&&&&&&   XX &&&&&&&&&&&&&&&&&&&&&&&&&&&&&&&&&&&&&&&&&&&&&&&&&&&&&&",
"&&&&&&&&&&&&&&.   &&&&&&&&&&&&&&&&&&   XX &&&&&&&&&&&&&&&&&&&&&&&&&&&&&&&&&&&&&&&&&&&&&&&&&&&&&&",
"&&&&&&&&&&&&&&   &&&&&&&&&&&&&&&&&&&      &&&&&&&&&&&&&&&&&&&&&&&&&&&&&&&&&&&&&&&&&&&&&&&&&&&&&&",
"&&&&&&&&&&&&&& &&&&&&&&&&&&&&&&&&&&&&&    &&&&&&&&&&&&&&&&&&&&&&&&&&&&&&&&&&&&&&&&&&&&&&&&&&&&&&",
"&&&&&&&&&&&&&& &&&&&&&&&&&&&&&&&&&&&&&    &&&&&&&&&&&&&&&&&&&&&&&&&&&&&&&&&&&&&&&&&&&&&&&&&&&&&&",
"&&&&&&&&&&&&&&&&&&&&&&&&&&&&&&&&&&&&&&    &&&&&&&&&&&&&&&&&&&&&&&&&&&&&&&&&&&&&&&&&&&&&&&&&&&&&&",
"&&&&&&&&&&&&&&&&&&&&&&&&&&&&&&&&&&&&&&&   &&&&&&&&&&&&&&&&&&&&&&&&&&&&&&&&&&&&&&&&&&&&&&&&&&&&&&",
"&&&&&&&&&&&&&&&&&&&&&&&&&&&&&&&&&&&&&&&   &&&&&&&&&&&&&&&&&&&&&&&&&&&&&&&&&&&&&&&&&&&&&&&&&&&&&&",
"&&&&&&&&&&&&&&&&&&&&&&&&&&&&&&&&&&&&&&&&& &&&&&&&&&&&&&&&&&&&&&&&&&&&&&&&&&&&&&&&&&&&&&&&&&&&&&&"
};
