/* XPM */
static char *result[] = {
/* columns rows colors chars-per-pixel */
"96 96 9 1 ",
"  c black",
". c #151414",
"X c #1A1919",
"o c #210400",
"O c #373635",
"+ c #412A08",
"@ c #6E5228",
"# c #C62511",
"$ c white",
/* pixels */
"                                                                                                ",
"                                                                                                ",
"                                                                                                ",
"                                                                                                ",
"                                                                                                ",
"        $                                                                                       ",
"                                         oooooooooooooooooo                      $$             ",
"                                         oooooooooooooooooo                      $$             ",
"                                   ooooooOOOOOOOOOOOOOOOOOOoooooo                               ",
"                                oooOOOOOOOOOOOOOOOOOOOOOOOOOOOOOOooo...                         ",
"                                oooOOOOOOOOOOOOOOOOOOOOOOOOOOOOOOooo...                         ",
"                           ..oooOOOOOOOOOOOOOOOOOOOOOOOOOOOOOOOOOOOOooo...                      ",
"                       ...oooOOOOOOOOOOOOOOOOOOOOOOOOOOOOOOOOOOOOOOOOOOooo.                     ",
"                       ...oooOOOOOOOOOOOOOOOOOOOOOOOOOOOOOOOOOOOOOOOOOOooo.                     ",
"                     ...ooOOOOOOOOOOOOOOOOOOOOOOOOOOOOOOOOOOOOOOOOOOOOOOOOo..                   ",
"                    ...oOOOOOOOOOOOOOOOOOOOO###O##OOOOOOOOOOOOOOOOOOOOOOOOOoo.                  ",
"                    ...oOOOOOOOOOOOOOOOOOOOO###O##OOOOOOOOOOOOOOOOOOOOOOOOOoo.                  ",
"                  ...ooOOOOOOOOOOOOOOOOOOOOO######OOOOOOOOOOOOOOOOOOOOOOOOOOOo..                ",
"                 ...oOOOOOOOOOOOOOOOOOOOO#######OOOOOOOOOOOOOOOOOOOOOOOOOOOOOOoo.               ",
"                 ...oOOOOOOOOOOOOOOOOOOOO#######OOOOOOOOOOOOOOOOOOOOOOOOOOOOOOoo.               ",
"               ...ooOOOOOOOOOOOOOOOOOOOOO#########OOOOOOOOOOOOOOOOOOOOOOOOOOOOOOo               ",
"               ..oOOOOOOOO@@@@OOOOOOOOOOO######OOOOOOOOOOOOOOOOOOOOOOOOOOOOOOOOOOoo             ",
"               ..oOOOOOOOO@@@@OOOOOOOOOOO######OOOOOOOOOOOOOOOOOOOOOOOOOOOOOOOOOOoo             ",
"              .ooOOOOOOO@@@++@@@@@@@@@OOOOOOOOOO##OOOOOOOOOOOOOOOOOOOOOOOOOOOOOOOOOo            ",
"              oOOOOOO@@@@@++++++++++@@OOOOOOOOOOOOOOOOOOOOOOOOOOOOOOOOOO##OOOOOOOOOOoo          ",
"              oOOOOOO@@@@@++++++++++@@OOOOOOOOOOOOOOOOOOOOOOOOOOOOOOOOOO##OOOOOOOOOOoo          ",
"            ..oOOOOOO@@+++++++++++++@@OOOOOOOOOOOOOOOOOOOOOOOOOOOOOOO###OOOOOOOOOOOOoo          ",
"            ooOOOOOOO@@++++++++++++@@@OOOOOOOOOOOOOOOOOOO@@@OOOOOOOOO#####O##OOOOOOOOOo         ",
"            ooOOOOOOO@@++++++++++++@@@OOOOOOOOOOOOOOOOOOO@@@OOOOOOOOO#####O##OOOOOOOOOo         ",
"            ooOOOOOO@@@++++++++++++@OOOOOOOOOOOOOOOOOOOOO@@@@@@OOOOOO######OOOOOOOOOOOo         ",
"           oOOOOOOOO@++++++++++++++@OOOOOOOOOOOOOOOOOOOO@@@+++@@@OOOOOO####OOOOOOOOOOOOoo       ",
"           oOOOOOOOO@++++++++++++++@OOOOOOOOOOOOOOOOOOOO@@@+++@@@OOOOOO####OOOOOOOOOOOOoo       ",
"           oOOOOOOOO@@@++++++++++++@OOOOOOOOOOOOOOOOOOOO@++++++@@@OOOOOO#####OOOOOO@@@Ooo       ",
"         ooOOOOOOOOOO@@++++++++++++@OOOOOOOOOOOOOOOOOO@@@++++++++@OOOOOO#####OOOOOO@@@@OOo      ",
"         ooOOOOOOOOOO@@++++++++++++@OOOOOOOOOOOOOOOOOO@@@++++++++@OOOOOO#####OOOOOO@@@@OOo      ",
"         ooOOOOOOOOOO@@++++++++++++@OOOOOOOOOOOOOOOOO@@@+++++++++@@@OOOOOO#OOOOOOOO@++@OOo      ",
"         ooOOOOOOOOOOOO@+++++++++@@@OOOOOOOOOOOOOOO@@@++++++++++++@@@OOOOOOOOOOOOOO@++@OOo      ",
"         ooOOOOOOOOOOOO@+++++++++@@@OOOOOOOOOOOOOOO@@@++++++++++++@@@OOOOOOOOOOOOOO@++@OOo      ",
"         ooOOOOOOOOOOOO@@@++++++@@@OOOOOOOOOOOOOOOO@@+++++++++++++++@OOOOOOOOOOOOOO@+++@@o      ",
"        oOOOOOOOOOOOOOOO@@++++++@OOOOOOOOOOOOOOOOO@@@+++++++++++++++@@@OOOOOOOOOOOO@+++@@Ooo    ",
"        oOOOOOOOOOOOOOOO@@++++++@OOOOOOOOOOOOOOOOO@@@+++++++++++++++@@@OOOOOOOOOOOO@+++@@Ooo    ",
"        oOOOOOOOOOOOOOOO@@@+++++@OOOOOOOOOOOOOOOOO@++++++++++++++++++@@OOOOOOOOOOOO@+++@@Ooo    ",
"        oOOOOOOOOOOOOOOOOO@+++++@OOOOOOOOOOOOOOO@@@++++++++++++++++++@@OOOOOOOOOOOO@+++@@Ooo    ",
"        oOOOOOOOOOOOOOOOOO@+++++@OOOOOOOOOOOOOOO@@@++++++++++++++++++@@OOOOOOOOOOOO@+++@@Ooo    ",
"        oOOOOOOOOOOOOOOOOO@+++@@@OOOOOOOOOOOOOOO@@+++++++++++++++++++@@OOOOOOOOOOOO@+++@@Ooo    ",
"        oOOOOOOOO#OOOOOOOO@@@+@@OOOOOOOOOOOOOOOO@@+++++++++++++++++++@@OOOOOOOOOOOO@+++@@Ooo    ",
"        oOOOOOOOO#OOOOOOOO@@@+@@OOOOOOOOOOOOOOOO@@+++++++++++++++++++@@OOOOOOOOOOOO@+++@@Ooo    ",
"        oOOOOO#OO###OOOOOOO@@@@@OOOOOOOOOOOOOOOO@@@+++++++++++++++++@@@OOOOOOOOOOOO@+++@@Ooo    ",
"        oOOOOOOOO####OOOOOOOOOOOOOOOOOOOOOOOOOOOOO@+++++++++++++++++@OOOOOOOOOOOOOO@@@+@@Ooo    ",
"        oOOOOOOOO####OOOOOOOOOOOOOOOOOOOOOOOOOOOOO@+++++++++++++++++@OOOOOOOOOOOOOO@@@+@@Ooo    ",
"        oOOOOOOOO####OOOOOOOOOOOOOOOOOOOOOOOOOOOOO@+++++++++++++++++@OOOOOOOOOOOOOOO@@+@@Ooo    ",
"        oOOOOO#OOO###OOOOOOOOOOOOOOOOOOOOOOOOOOOOO@+++++++++++++++@@OOOOOOOOOOOOOOOO@@@@@Ooo    ",
"        oOOOOO#OOO###OOOOOOOOOOOOOOOOOOOOOOOOOOOOO@+++++++++++++++@@OOOOOOOOOOOOOOOO@@@@@Ooo    ",
"        oOOOOOOOOOOOOOOOOOOOOOOOOOOOOOOOOOOOOOOOOO@@@++++++++++++@OOOOOOOOOOOOOOOOOOOO@@@Ooo    ",
"         ooOOOOOOOOOOOOOOOOOOOOOOOOOOOOOOOOOOOOOOOO@@++++++++++@@@OOOOOOOOOOOOOOOOOOOOOOOo      ",
"         ooOOOOOOOOOOOOOOOOOOOOOOOOOOOOOOOOOOOOOOOO@@++++++++++@@@OOOOOOOOOOOOOOOOOOOOOOOo      ",
"         ooOOOOOOOOOOOOOOOOOOOOOOOOOOOOOOOOOOOOOOOO@@+++++++@@@@@OOOOOOOOOOOOOOO#OO#OOOOOo      ",
"         ooOOOOOOOOOOOOOOOOOOOOOOOOOOOOOOOOOOOOOOOO@@@+++++@@@OOOOOOOOOOOOOOOOOOOOOOOOOOOo      ",
"         ooOOOOOOOOOOOOOOOOOOOOOOOOOOOOOOOOOOOOOOOO@@@+++++@@@OOOOOOOOOOOOOOOOOOOOOOOOOOOo      ",
"         ooOOOOOOOOOOOOOOOOOOOOOOOOOOOOOOOOOOOOOOOOOO@+++@@@OOOOOOOOOOOOOOOOO#OOO########o      ",
"           oOOOOOOOOOOOOOOOOOOOOOOOOOOOOOOOOOOOOOOOOO@@@@@@OOOOOOOOOOOOO###OOO#########oo       ",
"           oOOOOOOOOOOOOOOOOOOOOOOOOOOOOOOOOOOOOOOOOO@@@@@@OOOOOOOOOOOOO###OOO#########oo       ",
"           oOOOOOOOOOOOOOOOOOOOOOOOOOOOOOOOOOOOOOOOOOO@@@OOOOOOOOO##OOO################oo       ",
"            ooOOOOOOOOOOOOOOOOOOOOOOOOOOOOOOOOOOOOOOOOOOOOOOOOOOO#OOO#################o         ",
"            ooOOOOOOOOOOOOOOOOOOOOOOOOOOOOOOOOOOOOOOOOOOOOOOOOOOO#OOO#################o         ",
"            ooOOOOOOOOOOOOOOOOOO@@@@OOOOOOOOOOOOOOOOOOOOOOOOOOOOOO####################o         ",
"              oOOOOOOOOO@@@@@@@@+++@@@OOOOOOOOOOOOOOOOOOOOOOOO#OOO##################oo          ",
"              oOOOOOOOOO@@@@@@@@+++@@@OOOOOOOOOOOOOOOOOOOOOOOO#OOO##################oo          ",
"              oOOOOOO@@@++++++++++++++@@@OOOOOOOOOOOOOOOOOOOOOOOOO##################oo          ",
"               ooOOOO@@++++++++++++++++@@@@@OOOOOOOOOOOOOOOOOOOOO##################o            ",
"               ooOOOO@@++++++++++++++++@@@@@OOOOOOOOOOOOOOOOOOOOO##################o            ",
"                 oOOO@@+++++++++++++++++++@@@OOOOOOOOO###OOOOOOOO################oo             ",
"                  oo@@@+++++++++++++++++++++@OOOOOOOOO###OOOOOO#################o               ",
"                  oo@@@+++++++++++++++++++++@OOOOOOOOO###OOOOOO#################o               ",
"            ...     o++++++++++++++++++++++++@@OOOOOOOOO#OOOOO################oo                ",
"              ...    oo++++++++++++++++++++++@@@OOOOOOOOOOOO#################o                  ",
"              ...    oo++++++++++++++++++++++@@@OOOOOOOOOOOO#################o                  ",
"              X...     o+++++++++++++++++++++++@@@OOOOOOOOOO###############oo                   ",
"              XXX....   oo++++++++++++++++++++++@@OOOOOOOOO###############o                     ",
"              XXX....   oo++++++++++++++++++++++@@OOOOOOOOO###############o                     ",
"               XXXXX......ooo+++++++++++++++++++@@OOOOOOO##############ooo                      ",
"                 XXXXXXX.....ooo++++++++++++++++@@OOOOOOO###########ooo                         ",
"                 XXXXXXX.....ooo++++++++++++++++@@OOOOOOO###########ooo                         ",
"         $$         XXXXXXXXXXXXooo.++++++++++++@@OOOOOO#########ooo               $            ",
"                        XXXXXXXXXXXoooooo...++++@@OOOO#####oooooo                               ",
"                        XXXXXXXXXXXoooooo...++++@@OOOO#####oooooo                               ",
"                                 XXXXXXXXoooooooooooooooooo                                     ",
"                                       XXXXXXXXXXX                                              ",
"                                       XXXXXXXXXXX                                              ",
"                                                                 $                              ",
"                                                                                                ",
"                                                                                                ",
"                                                                                                ",
"                                                                                                ",
"                                                                                                ",
"                                                                                                "
};
