/* XPM */
static char *result[] = {
/* columns rows colors chars-per-pixel */
"96 96 10 1 ",
"  c black",
". c #6E7278",
"X c #747576",
"o c #3E1AD9",
"O c #1A63D9",
"+ c #6B4AFB",
"@ c #098BF2",
"# c #4D9DDB",
"$ c white",
"% c None",
/* pixels */
"%%%%%%%%%%%%%%%%%%%%%%%%%%%%%%%%%%%%%%%%%%%%%%%%%%%%%%%%%%%%%%%%%%%%%%%%%%%%%%%%%%%%%%%%%%%%%%%%",
"%%%%%%%%%%%%%%%%%%%%%%%%%%%%%%%%%%%%%%%%%%%%%%%%%%%%%%%%%%%%%%%%%%%%%%%%%%%%%%%%%%%%%%%%%%%%%%%%",
"%%%%%%%%%%%%%%%%%%%%%%%%%%%%%%%%%%%%%%%%%%%%%%%%%%%%%%%%%%%%%%%%%%%%%%%%%%%%%%%%%%%%%%%%%%%%%%%%",
"%%%%%%%%%%%%%%%%%%%%%%%%%%%%%%%%%%%%%%%%%%%%%%%%%%%%%%%%%%%%%%%%%%%%%%%%%%%%%%%%%%%%%%%%%%%%%%%%",
"%%%%%%%%%%%%%%%%%%%%%%%%%%%%%%%%%%%%%%%%%%%%%%%%%%%%%%%%%%%%%%%%%%%%%%%%%%%%%%%%%%%%%%%%%%%%%%%%",
"%%%%%%%%%%%%%%%%%%%%%%%%%%%%%%%%%%%%%%%%%%%%%%%%%%%%%%%%%%%%%%%%%%%%%%%%%%%%%%%%%%%%%%%%%%%%%%%%",
"%%%%%%%%%%%%%%%%%%%%%%%%%%%%%%%%%%%%%%%%%%%%%%%%%%%%%%%%%%%%%%%%%%%%%%%%%%%%%%%%%%%%%%%%%%%%%%%%",
"%%%%%%%%%%%%%%%%%%%%%%%%%%%%%%%%%%%%%%%%%%%%%%%%%%%%%%%%%%%%%%%%%%%%%%%%%%%%%%%%%%%%%%%%%%%%%%%%",
"%%%%%%%%%%%%%%%%%%%%%%%%%%%%%%%%%%%%%%%%%%%%%%%%%%%%%%%%%%%%%%%%%%%%%%%%%%%%%%%%%%%%%%%%%%%%%%%%",
"%%%%%%%%%%%%%%.%%%%%%%%%%%%%%%%%%%%%%%%%%%%%%%%%%%%%%%%%%%%%%%%%%%%%%%%%%%%%%%%%%..%%%%%%%%%%%%%",
"%%%%%%%%%%%%%%.%%%%%%%%%%%%%%%%%%%%%%%%%%%%%%%%%%%%%%%%%%%%%%%%%%%%%%%%%%%%%%%%%%..%%%%%%%%%%%%%",
"%%%%%%%%%%%%%%.%%%%%%%%%%%%%%%%%%%%%%%%%%%%%%%%%%%%%%%%%%%%%%%%%%%%%%%%%%%%%%%%%%..%%%%%%%%%%%%%",
"%%%%%%%%%%%%%%.%%%%%%%%%%%%%%%%%%%%%%%%%%%%%%%%%%%%%%%%%%%%%%%%%%%%%%%%%%%%%%%%%%..%%%%%%%%%%%%%",
"%%%%%%%%%%%%%%.%%%%%%%%%%%%%%%%%%%%%%%%%%%%%%%%%%%%%%%%%%%%%%%%%%%%%%%%%%%%%%%%%%..%%%%%%%%%%%%%",
"%%%%%%%%%%%%%%.%%%%%%%%%%%%%%%%%%%%%%%%%%%%%%%%%%%%%%%%%%%%%%%%%%%%%%%%%%%%%%%%%%..%%%%%%%%%%%%%",
"%%%%%%%%%%%%%%.%%%%%%%%%%%%%%%%%%%%%%%%%%%%%%%%%%%%%%%%%%%%%%%%%%%%%%%%%%%%%%%%%%..%%%%%%%%%%%%%",
"%%%%%%%%%%%%%%.%%%%%%%%%%%%%%%%%%%%%%%%%%%%%%%%%%%%%%%%%%%%%%%%%%%%%%%%%%%%%%%%%%..%%%%%%%%%%%%%",
"%%%%%%%%%%%%%%.%%%%%%%%%%%%%%%%%%%%%%%%%%%%%%%%%%%%%%%%%%%%%%%%%%%%%%%%%%%%%%%%%%..%%%%%%%%%%%%%",
"%%%%%%%%%%%%%%.%%%%%%%%%%%%%%%%%%%%%%%%%%%%%%%%+++%%%%%%%%%%%%%%%%%%%%%%%%%%%%%%%..%%%%%%%%%%%%%",
"%%%%%%%%%%%%%%.%%%%%%%%%%%%%%%%%%%%%%%%%%%%%%%%+++%%%%%%%%%%%%%%%%%%%%%%%%%%%%%%%..%%%%%%%%%%%%%",
"%%%%%%%%%%%%%%.%%%%%%%%%%%%%%%%%%%%%%%%%%%%%%      %%%%%%%%%%%%%%%%%%%%%%%%%%%%%%..%%%%%%%%%%%%%",
"%%%%%%%%%%%%%%.%%%%%%%%%%%%%%%%%%%%%%%%%%%%%%  @@@ %%%%%%%%%%%%%%%%%%%%%%%%%%%%%%..%%%%%%%%%%%%%",
"%%%%%%%%%%%%%%.%%%%%%%%%%%%%%%%%%%%%%%%%%%%%%  @@@ %%%%%%%%%%%%%%%%%%%%%%%%%%%%%%..%%%%%%%%%%%%%",
"%%%%%%%%%%%%%%.%%%%%%%%%%%%%%%%%%%%%%%%%%%%%%  @@@ %%%%%%%%%%%%%%%%%%%%%%%%%%%%%%..%%%%%%%%%%%%%",
"%%%%%%%%%%%%%%.%%%%%%%%%%%%%%%%%%%%%%%%%%%%%%  @@@ %%%%%%%%%%%%%%%%%%%%%%%%%%%%%%..%%%%%%%%%%%%%",
"%%%%%%%%%%%%%%.%%%%%%%%%%%%%%%%%%%%%%%%%%%%%%  @@@ %%%%%%%%%%%%%%%%%%%%%%%%%%%%%%..%%%%%%%%%%%%%",
"%%%%%%%%%%%%%%.%%%%%%%%%%%%%%%%%%%%%%%%%% oo%  @@@ %%o  %%%%%%%%%%%%%%%%%%%%%%%%%..%%%%%%%%%%%%%",
"%%%%%%%%%%%%%%.%%%%%%%%%%%%%%%%%%%%%%%%%% oo   @@@   o  %%%%%%%%%%%%%%%%%%%%%%%%%..%%%%%%%%%%%%%",
"%%%%%%%%%%%%%%.%%%%%%%%%%%%%%%%%%%%%%%%%% oo   @@@   o  %%%%%%%%%%%%%%%%%%%%%%%%%..%%%%%%%%%%%%%",
"%%%%%%%%%%%%%%.%%%%%%%%%%%%%%%%%%%%%%%%%% oo @@@@@@  o  %%%%%%%%%%%%%%%%%%%%%%%%%..%%%%%%%%%%%%%",
"%%%%%%%%%%%%%%.%%%%%%%%%%%%%%%%%%%%          @@@@@@           %%%%%%%%%%%%%%%%%%%..%%%%%%%%%%%%%",
"%%%%%%%%%%%%%%.%%%%%%%%%%%%%%%%%%%%          @@@@@@           %%%%%%%%%%%%%%%%%%%..%%%%%%%%%%%%%",
"%%%%%%%%%%%%  o  %%%%%%%%%%%%%%%%%%%   @@@@@@@@@@@@@@@@@@   %%%%%%%%%%%%%%%%%%%% oo %%%%%%%%%%%%",
"%%%%%%%%%%% ooooo %%%%%%%%%%%%%%%%%%%%   @OOO@@   @OOO@@   %%%%%%%%%%%%%%%%%%%  oooo  %%%%%%%%%%",
"%%%%%%%%%%% ooooo %%%%%%%%%%%%%%%%%%%%   @OOO@@   @OOO@@   %%%%%%%%%%%%%%%%%%%  oooo  %%%%%%%%%%",
"%%%%%%%%%  @     @  %%%%%%%%%%%%%%%%%%%   @@@@@   @@@@   %%%%%%%%%%%%%%%%%%%% @@    @@ %%%%%%%%%",
"%%%%%%%%%  @@@@@@@  %%%%%%%%%%%%%%%%%%%%%   @@@   @@@   %%%%%%%%%%%%%%%%%%%%% @@@@@@@@ %%%%%%%%%",
"%%%%%%%%%  @@@@@@@  %%%%%%%%%%%%%%%%%%%%%   @@@   @@@   %%%%%%%%%%%%%%%%%%%%% @@@@@@@@ %%%%%%%%%",
"%%%%%%%%%  @@@@@@@  %%%%%%%%%%%%%%%%%%%%%%  @@@   @@@ %%%%%%%%%%%%%%%%%%%%%%% @@@@@@@@ %%%%%%%%%",
"%%%%%%%%%  @     @  %%%%%%%%%%%%%%%%%%%%%%%% @@@@@@  %%%%%%%%%%%%%%%%%%%%%%%% @@    @@ %%%%%%%%%",
"%%%%%%%%%  @     @  %%%%%%%%%%%%%%%%%%%%%%%% @@@@@@  %%%%%%%%%%%%%%%%%%%%%%%% @@    @@ %%%%%%%%%",
"%%%%%%%% @@@@@@@@@@@ %%%%%%%%%%%%%%%%%%%%%%% @@@@@@  %%%%%%%%%%%%%%%%%%%%%%  @@@@@@@@@@  %%%%%%%",
"%%%%%%%% @@@@@@OO@@@ %%%%%%%%%%%%%%%%%%%%%%% @@@@@@  %%%%%%%%%%%%%%%%%%%%%%  @@@O@@@@@@  %%%%%%%",
"%%%%%%%% @@@@@@OO@@@ %%%%%%%%%%%%%%%%%%%%%%% @@@@@@  %%%%%%%%%%%%%%%%%%%%%%  @@@O@@@@@@  %%%%%%%",
"%%%%%%%% @@@@@@OOO@@ %%%%%%%%%%%%%%%%%%%%%%% @@@@@@  %%%%%%%%%%%%%%%%%%%%%%  @OOO@@@@@@  %%%%%%%",
"%%%%%%%% @@@@@@@@@@@ %%%%%%%%%%%%%%%%%%%%%%% @@@@@@  %%%%%%%%%%%%%%%%%%%%%%  @@@@@@@@@@  %%%%%%%",
"%%%%%%%% @@@@@@@@@@@ %%%%%%%%%%%%%%%%%%%%%%% @@@@@@  %%%%%%%%%%%%%%%%%%%%%%  @@@@@@@@@@  %%%%%%%",
"%%%%%%%% @@@@@@@@@@@ %%%%%%%%%%%%%%%%%%%%%%% @@@@@@  %%%%%%%%%%%%%%%%%%%%%%  @@@@@@@@@@  %%%%%%%",
"%%%%%%   @@OOO@@@@@@ %%%%%%%%%%%%%%%%%%%%%%% @@@@@@  %%%%%%%%%%%%%%%%%%%%%%  @@@@@@OOO@   %%%%%%",
"%%%%%%   @@OOO@@@@@@ %%%%%%%%%%%%%%%%%%%%%%% @@@@@@  %%%%%%%%%%%%%%%%%%%%%%  @@@@@@OOO@   %%%%%%",
"%%%%% ## @@@OO@@@@@@ %%%%%%%%%%%%%%%%%%%%%  @OO@@@O@@ %%%%%%%%%%%%%%%%%%%%%  @@@@@@O@@@  #  %%%%",
"%%%%% ## @@@OO@@@@@@ %%%%%%%%%%%%%%%%%%%%%  @@@@@@@@@ %%%%%%%%%%%%%%%%%%%%%  @@@@@@O@@@  #  %%%%",
"%%%%% ## @@@OO@@@@@@ %%%%%%%%%%%%%%%%%%%%%  @@@@@@@@@ %%%%%%%%%%%%%%%%%%%%%  @@@@@@O@@@  #  %%%%",
"%%%%% ###  @@@@@@@@@ %%%%%%%%%%%%%%%%%%%%%  @@@@@@@@@ %%%%%%%%%%%%%%%%%%%%%  @@@@@@@@@ ###  %%%%",
"%%%%% ###  @@@@OO@@@ %%%%%%%%%%%%%%%%%%%%%  @@@OOO@@@ %%%%%%%%%%%%%%%%%%%%%  @@@O@@@@@ ###  %%%%",
"%%%%% ###  @@@@OO@@@ %%%%%%%%%%%%%%%%%%%%%  @@@OOO@@@ %%%%%%%%%%%%%%%%%%%%%  @@@O@@@@@ ###  %%%%",
"%%%%% ###  @@@@OO@@@ %%%%%%%%%%%%XXXXXXXX @@@@@OOO@@@@  XXXXXXX%%%%%%%%%%%%  @@@O@@@@@ ###  %%%%",
"%%%  ####  @@@@OO@@@@  XXX%%%%XXXXX$$$X@@@@@@@@OOO@@@@@@@XX$$$XXXX%%%%%XXX @@@@@O@@@@@ ##### %%%",
"%%%  ####  @@@@OO@@@@  XXX%%%%XXXXX$$$X@@@@@@@@OOO@@@@@@@XX$$$XXXX%%%%%XXX @@@@@O@@@@@ ##### %%%",
"%%%  ####  @@@@OO@@@ $$$$$XXXX$$$$$XXXX@@@@@@@@OOO@@@@@@@XXXXX$$$$XXXXX$$$$  @@@O@@@@@ ##### %%%",
"%%%%% ###  @@@@OO@@@@  XXX$$$$XXXXX$$$X@@@@@@OO@@@O@@@@@@XX$$$XXXX$$$$$XXX @@@@@O@@@@@ ###  %%%%",
"%%%%% ###  @@@@OO@@@@  XXX$$$$XXXXX$$$X@@@@@@OO@@@O@@@@@@XX$$$XXXX$$$$$XXX @@@@@O@@@@@ ###  %%%%",
"%%%%% ###  @@@@OO@@@ $$$$$XXXX$$$$$XXXX@@@@@@OO@@@O@@@@@@XXXXX$$$$XXXXX$$$$  @@@O@@@@@ ###  %%%%",
"%%%%% ###  @@@@OO@@@@  XXX%%%%XXXXX$$$$XX@@@@OO@@@O@@@@@X$$$$$XXXX%%%%%XXX @@@@@O@@@@@ ###  %%%%",
"%%%%% ###  @@@@OO@@@@  XXX%%%%XXXXX$$$$XX@@@@OO@@@O@@@@@X$$$$$XXXX%%%%%XXX @@@@@O@@@@@ ###  %%%%",
"%%%%% ###  @@@@OO@@@@  %%%%%%%%%%XXXXXXXX @@@OO@@@O@@@  XXXXXXX%%%%%%%%%%% @@@@@O@@@@@ ###  %%%%",
"%%%%% ###  @@@@OO@@@@  %%%%%%%%%%%%%%%%%% @@@OO@@@O@@@  %%%%%%%%%%%%%%%%%% @@@@@O@@@@@ ###  %%%%",
"%%%%% ###  @@@@OO@@@@  %%%%%%%%%%%%%%%%%% @@@OO@@@O@@@  %%%%%%%%%%%%%%%%%% @@@@@O@@@@@ ###  %%%%",
"%%%%% ###  @@@@OO@@@@  %%%%%%%%%%%%%%%%%% @@@OO@@@O@@@  %%%%%%%%%%%%%%%%%% @@@@@O@@@@@ ###  %%%%",
"%%%%% ## ## @@@@@O@@@  %%%%%%%%%%%%%%%%%% @@@@@   @@@@  %%%%%%%%%%%%%%%%%% @@@OO@@@@  #  #  %%%%",
"%%%%% ## ## @@@@@O@@@  %%%%%%%%%%%%%%%%%% @@@@@   @@@@  %%%%%%%%%%%%%%%%%% @@@OO@@@@  #  #  %%%%",
"%%%%%%   ## @@@@@O@@@  %%%%%%%%%%%%%%%%%% @@@@@   @@@@  %%%%%%%%%%%%%%%%%% @@@OO@@@@  #   %%%%%%",
"%%%%%%%% ## @@@@@O@@@  %%%%%%%%%%%%%%%%%% @@@@@   @@@@  %%%%%%%%%%%%%%%%%% @@@OO@@@@  #  %%%%%%%",
"%%%%%%%% ## @@@@@O@@@  %%%%%%%%%%%%%%%%%% @@@@@   @@@@  %%%%%%%%%%%%%%%%%% @@@OO@@@@  #  %%%%%%%",
"%%%%%%%% ## @@@@@O@@@  %%%%%%%%%%%%%%%%%%%  @@@@@@@@@ %%%%%%%%%%%%%%%%%%%% @@@OO@@@@  #  %%%%%%%",
"%%%%%%%% ## @@@@@O@@@  %%%%%%%%%%%%%%%%%%%  @@@@@@@@@ %%%%%%%%%%%%%%%%%%%% @@@OO@@@@  #  %%%%%%%",
"%%%%%%%% ## @@@@@O@@@  %%%%%%%%%%%%%%%%%%%  @@@@@@@@@ %%%%%%%%%%%%%%%%%%%% @@@OO@@@@  #  %%%%%%%",
"%%%%%%%% ## @@@@@O@@@  %%%%%%%%%%%%%%%%%%%  @@@@@@@@@ %%%%%%%%%%%%%%%%%%%% @@@OO@@@@  #  %%%%%%%",
"%%%%%%%% ## @@@@@O@@@  %%%%%%%%%%%%%%%%%%%  @OOOOOO@@ %%%%%%%%%%%%%%%%%%%% @@@OO@@@@  #  %%%%%%%",
"%%%%%%%% ## @@@@@O@@@  %%%%%%%%%%%%%%%%%%%  @OOOOOO@@ %%%%%%%%%%%%%%%%%%%% @@@OO@@@@  #  %%%%%%%",
"%%%%%%%% ## @@@@@@@@@  %%%%%%%%%%%%%%%%%%%   @@@@@@   %%%%%%%%%%%%%%%%%%%% @@@@@@@@@  #  %%%%%%%",
"%%%%%%%% ###  @@@@@@@  %%%%%%%%%%%%%%%%%%%%%   @@@   %%%%%%%%%%%%%%%%%%%%% @@@@@@@@ ###  %%%%%%%",
"%%%%%%%% ###  @@@@@@@  %%%%%%%%%%%%%%%%%%%%%   @@@   %%%%%%%%%%%%%%%%%%%%% @@@@@@@@ ###  %%%%%%%",
"%%%%%%%% ###  @@@@@@@  %%%%%%%%%%%%%%%%%%%%%%      %%%%%%%%%%%%%%%%%%%%%%% @@@@@@@@ ###  %%%%%%%",
"%%%%%%%% ###  @@@@@@@  %%%%%%%%%%%%%%%%%%%%%%%%%%%%%%%%%%%%%%%%%%%%%%%%%%% @@@@@@@@ ###  %%%%%%%",
"%%%%%%%% ###  @@@@@@@  %%%%%%%%%%%%%%%%%%%%%%%%%%%%%%%%%%%%%%%%%%%%%%%%%%% @@@@@@@@ ###  %%%%%%%",
"%%%%%%%% ###  @OO@@@@  %%%%%%%%%%%%%%%%%%%%%%%%%%%%%%%%%%%%%%%%%%%%%%%%%%% @@@@@O@@ ###  %%%%%%%",
"%%%%%%%%%  #  @@@@@@ %%%%%%%%%%%%%%%%%%%%%%%%%%%%%%%%%%%%%%%%%%%%%%%%%%%%%%  @@@@@@ ## %%%%%%%%%",
"%%%%%%%%%  #  @@@@@@ %%%%%%%%%%%%%%%%%%%%%%%%%%%%%%%%%%%%%%%%%%%%%%%%%%%%%%  @@@@@@ ## %%%%%%%%%",
"%%%%%%%%%  #        %%%%%%%%%%%%%%%%%%%%%%%%%%%%%%%%%%%%%%%%%%%%%%%%%%%%%%%%%       ## %%%%%%%%%",
"%%%%%%%%%%% %%%%%%%%%%%%%%%%%%%%%%%%%%%%%%%%%%%%%%%%%%%%%%%%%%%%%%%%%%%%%%%%%%%%%%%%  %%%%%%%%%%",
"%%%%%%%%%%% %%%%%%%%%%%%%%%%%%%%%%%%%%%%%%%%%%%%%%%%%%%%%%%%%%%%%%%%%%%%%%%%%%%%%%%%  %%%%%%%%%%",
"%%%%%%%%%%% %%%%%%%%%%%%%%%%%%%%%%%%%%%%%%%%%%%%%%%%%%%%%%%%%%%%%%%%%%%%%%%%%%%%%%%%  %%%%%%%%%%",
"%%%%%%%%%%%%%%%%%%%%%%%%%%%%%%%%%%%%%%%%%%%%%%%%%%%%%%%%%%%%%%%%%%%%%%%%%%%%%%%%%%%%%%%%%%%%%%%%",
"%%%%%%%%%%%%%%%%%%%%%%%%%%%%%%%%%%%%%%%%%%%%%%%%%%%%%%%%%%%%%%%%%%%%%%%%%%%%%%%%%%%%%%%%%%%%%%%%",
"%%%%%%%%%%%%%%%%%%%%%%%%%%%%%%%%%%%%%%%%%%%%%%%%%%%%%%%%%%%%%%%%%%%%%%%%%%%%%%%%%%%%%%%%%%%%%%%%"
};
