/* XPM */
static char *result[] = {
/* columns rows colors chars-per-pixel */
"96 96 20 1 ",
"  c black",
". c #6E7278",
"X c #747576",
"o c #D91A1A",
"O c #D9881A",
"+ c #C5D91A",
"@ c #FFEC00",
"# c #E4FF00",
"$ c #3E1AD9",
"% c #1A63D9",
"& c #6B4AFB",
"* c #098BF2",
"= c #2E99EE",
"- c #25B9E3",
"; c #4D9DDB",
": c #00C7FF",
"> c #25DBE3",
", c #04EDF7",
"< c white",
"1 c None",
/* pixels */
"111   111111111111111111111111111111111111111111111111111111111111111111111111111111111111111111",
"111   111111111111111111111111111111111111111111111111111111111111111111111111111111111111111111",
"111   111111111111111111111111111111111111111111111111111111111111111111111111111111111111111111",
"11 ,, 11111111111111111111111111111   1111111111111111111111111111111111111111111111111111111111",
"11 ,, 11111111111111111111111111111   1111111111111111111111111111111111111111111111111111111111",
"11 :: 111111111111111111           ;;;       111111111111111111111111111111111111111111111111111",
"  :-- 11111111111111111 ;;;;;;;;;;;;;;;;;;;;;  1111111111111111111111111111111111111111111111111",
"  :-- 11111111111111111 ;;;;;;;;;;;;;;;;;;;;;  1111111111111111111111111111111111111111111111111",
"  -:: 11                  ;;;;;;;;;;;;;;;;            111111111111111111111111111111111111111111",
"  :>>   ;;;;;;;;;;;;;;;;;;                ************      111111111111111111111111111111111111",
"  :>>   ;;;;;;;;;;;;;;;;;;                ************      111111111111111111111111111111111111",
"     ;;;;;;;;;            *******************%%*************  1111111111111111111111111111111111",
"  :::         ****************========****%%%%%*******  *** $$ 111111111111111111111111111111111",
"  :::         ****************========****%%%%%*******  *** $$ 111111111111111111111111111111111",
"  ::: ************************************************  *** $$$.......................1111111111",
"  :-- **%*****************%%%%%%%%%%%%%%%*********%%%*  *** $$ 111111111111111111111111111111111",
"  :-- **%*****************%%%%%%%%%%%%%%%*********%%%*  *** $$ 111111111111111111111111111111111",
"  ::: *****===*%%%%%%%%%%%************************%*********  1111111111111111111111111111111111",
"  -:: ************************************************      111111111111111111111111111111111111",
"  -:: ************************************************      111111111111111111111111111111111111",
"  :--:  ************************ ** **                111111111111111111111111111111111111111111",
"  >:: 11                        <  <  1111111111111111111111111111111111111111111111111111111111",
"  >:: 11                        <  <  1111111111111111111111111111111111111111111111111111111111",
"  :-- 111111111111111111111111XX<XX<XX1111111111111111111111111111111111111111111111111111111111",
"  -:: 111111111111111111111111XX<XX<XX1111111111111111111111111111111111111111111111111111111111",
"  -:: 111111111111111111111111XX<XX<XX1111111111111111111111111111111111111111111111111111111111",
"  ::: 11111111111111111111111111X<<X111111111111111111111111111111111111111111111111111111111111",
"11 >> 11111111111111111111111111X<<X111111111111111111111111111111111111111111111111111111111111",
"11 >> 11111111111111111111111111X<<X111111111111111111111111111111111111111111111111111111111111",
"11 :: 11111111111111111111111111X<<X111111111111111111111111111111111111111111111111111111111111",
"11 :: 111111111111111111111111XX<XX<XX1111111111111111111111111111111111111111111111111111111111",
"11 :: 111111111111111111111111XX<XX<XX1111111111111111111111111111111111111111111111111111111111",
"11 :: 111111111111111111111111XX<XX<XX1111111111111111111111111111111111111111111111111111111111",
"111   11111111111111111111111XXX<XX<XXX111111111111111111111111111111111111111111111111111111111",
"111   11111111111111111111111XXX<XX<XXX111111111111111111111111111111111111111111111111111111111",
"111   11111111111111111111111X<<X<<X<<X111111111111111111111111  1111111111111111111111111111111",
"11111 11111111111111111111111X<<X<<X<<X11111111111111111111111   111111111111111111111111111111+",
"11111 11111111111111111111111X<<X<<X<<X11111111111111111111111   111111111111111111111111111111+",
"11111111111111111111111111111X<<XXXXXXX111111111111111111111     1111111111111111111111111111111",
"11111111111111111111111111111XXX******X11111111111111111111   *  1111111111111111111111111111@@1",
"11111111111111111111111111111XXX******X11111111111111111111   *  1111111111111111111111111111@@1",
"111111111111111111111         ***==*** 111111111111111111   ***      11111111111111111111111+111",
"11111111111111       ************==****      11111111111   *%%*  $$$$111111111111111111111111++1",
"11111111111111       ************==****      11111111111   *%%*  $$$$111111111111111111111111++1",
"111111111111   ******************************           ****%%*     111111111111111111111+11111+",
"11111111111   *%%*********%%%%%%%%%*********%*********************         111111111111111111111",
"11111111111   *%%*********%%%%%%%%%*********%*********************         111111111111111111111",
"11111111111 ***%%****     *********%%%%%%***************      ************ &&oOOoOOOOO+111##+111",
"11111111111 ***%%****     *********%%%%%%***************      ************ &&oooOooO@@+++111111+",
"11111111111 ***%%****     *********%%%%%%***************      ************ &&oooOooO@@+++111111+",
"11111111111   *%%*********%%%%%%%%%*********%*********************         111111111111111##111+",
"111111111111   ******************************           ****%%*     1111111111111111111111111111",
"111111111111   ******************************           ****%%*     1111111111111111111111111111",
"11111111111111       ************==****      11111111111   *%%*  $$$$11111111111111111111@11+11+",
"111111111111111111111         ***==*** 111111111111111111   ***      111111111111111111111111111",
"111111111111111111111         ***==*** 111111111111111111   ***      111111111111111111111111111",
"11111111111111111111111111111XXX******X11111111111111111111   *  1111111111111111111111111111@@1",
"11111111111111111111111111111X<<XXXXXXX111111111111111111111     1111111111111111111111111111111",
"11111111111111111111111111111X<<XXXXXXX111111111111111111111     1111111111111111111111111111111",
"11111 11111111111111111111111X<<X<<X<<X11111111111111111111111   1111111111111111111111111111111",
"111   11111111111111111111111X<<X<<X<<X111111111111111111111111  111111111111111111111111111111+",
"111   11111111111111111111111X<<X<<X<<X111111111111111111111111  111111111111111111111111111111+",
"111   11111111111111111111111XXX<XX<XXX111111111111111111111111111111111111111111111111111111111",
"11 :: 111111111111111111111111XX<XX<XX1111111111111111111111111111111111111111111111111111111111",
"11 :: 111111111111111111111111XX<XX<XX1111111111111111111111111111111111111111111111111111111111",
"11 :: 111111111111111111111111XX<XX<XX1111111111111111111111111111111111111111111111111111111111",
"11 :: 11111111111111111111111111X<<X111111111111111111111111111111111111111111111111111111111111",
"11 :: 11111111111111111111111111X<<X111111111111111111111111111111111111111111111111111111111111",
"11 >> 11111111111111111111111111X<<X111111111111111111111111111111111111111111111111111111111111",
"  ::: 11111111111111111111111111X<<X111111111111111111111111111111111111111111111111111111111111",
"  ::: 11111111111111111111111111X<<X111111111111111111111111111111111111111111111111111111111111",
"  -:: 111111111111111111111111XX<XX<XX1111111111111111111111111111111111111111111111111111111111",
"  :-- 111111111111111111111111XX<XX<XX1111111111111111111111111111111111111111111111111111111111",
"  :-- 111111111111111111111111XX<XX<XX1111111111111111111111111111111111111111111111111111111111",
"  >:: 11                        <  <  1111111111111111111111111111111111111111111111111111111111",
"  :--:  ************************ ** **                111111111111111111111111111111111111111111",
"  :--:  ************************ ** **                111111111111111111111111111111111111111111",
"  -:: ************************************************      111111111111111111111111111111111111",
"  ::: *****===*%%%%%%%%%%%************************%*********  1111111111111111111111111111111111",
"  ::: *****===*%%%%%%%%%%%************************%*********  1111111111111111111111111111111111",
"  :-- **%*****************%%%%%%%%%%%%%%%*********%%%*  *** $$ 111111111111111111111111111111111",
"  ::: ************************************************  *** $$$.......................1111111111",
"  ::: ************************************************  *** $$$.......................1111111111",
"  :::         ****************========****%%%%%*******  *** $$ 111111111111111111111111111111111",
"     ;;;;;;;;;            *******************%%*************  1111111111111111111111111111111111",
"     ;;;;;;;;;            *******************%%*************  1111111111111111111111111111111111",
"  :>>   ;;;;;;;;;;;;;;;;;;                ************      111111111111111111111111111111111111",
"  -:: 11                  ;;;;;;;;;;;;;;;;            111111111111111111111111111111111111111111",
"  -:: 11                  ;;;;;;;;;;;;;;;;            111111111111111111111111111111111111111111",
"  :-- 11111111111111111 ;;;;;;;;;;;;;;;;;;;;;  1111111111111111111111111111111111111111111111111",
"11 :: 111111111111111111           ;;;       111111111111111111111111111111111111111111111111111",
"11 :: 111111111111111111           ;;;       111111111111111111111111111111111111111111111111111",
"11 ,, 11111111111111111111111111111   1111111111111111111111111111111111111111111111111111111111",
"111   111111111111111111111111111111111111111111111111111111111111111111111111111111111111111111",
"111   111111111111111111111111111111111111111111111111111111111111111111111111111111111111111111",
"111   111111111111111111111111111111111111111111111111111111111111111111111111111111111111111111"
};
