/* XPM */
static char *result[] = {
/* columns rows colors chars-per-pixel */
"96 96 10 1 ",
"  c black",
". c #6E7278",
"X c #747576",
"o c #3E1AD9",
"O c #1A63D9",
"+ c #6B4AFB",
"@ c #098BF2",
"# c #4D9DDB",
"$ c white",
"% c None",
/* pixels */
"%%%%%%%%%%%%%%%%%%%%%%%%%%%%%%%%%%%%%%%%%%%%%%%%%%%%%%%%%%%%%%%%%%%%%%%%%%%%%%%%%%%%%%%%%%%%%%%%",
"%%%%%%%%%%%%%%%%%%%%%%%%%%%%%%%%%%%%%%%%%%%%%%%%%%%%%%%%%%%%%%%%%%%%%%%%%%%%%%%%%%%%%%%%%%%%%%%%",
"%%%%%%%%%%%%%%%%%%%%%%%%%%%%%%%%%%%%%%%%%%%%%%%%%%%%%%%%%%%%%%%%%%%%%%%%%%%%%%%%%%%%%%%%%%%%%%%%",
"%%%%%%%%%%%%%%%%%%%%%%%%%%%%%%%%%%%%%%%%%%%%%%%%%%%%%%%%%   %%%%%%%%%%%%%%%%%%%%%%%%%%%%%%%%%%%%",
"%%%%%%%%%%%%%%%%%%%%%%%%%%%%%%%%%%%%%%%%%%%%%%%%%%%%%%%%%   %%%%%%%%%%%%%%%%%%%%%%%%%%%%%%%%%%%%",
"%%%%%%%%%%%%%%%%%%%%%%%%%%%%%%%%%%%%%%%%%%%%%%%%%%       ###           %%%%%%%%%%%%%%%%%%%%%%%%%",
"%%%%%%%%%%%%%%%%%%%%%%%%%%%%%%%%%%%%%%%%%%%%%%%%  ##################### %%%%%%%%%%%%%%%%%%%%%%%%",
"%%%%%%%%%%%%%%%%%%%%%%%%%%%%%%%%%%%%%%%%%%%%%%%%  ##################### %%%%%%%%%%%%%%%%%%%%%%%%",
"%%%%%%%%%%%%%%%%%%%%%%%%%%%%%%%%%%%%%%%%%            ################                  %%%%%%%%%",
"%%%%%%%%%%%%%%%%%%%%%%%%%%%%%%%%%%%      @@@@@@@@@@@@                ##################   %%%%%%",
"%%%%%%%%%%%%%%%%%%%%%%%%%%%%%%%%%%%      @@@@@@@@@@@@                ##################   %%%%%%",
"%%%%%%%%%%%%%%%%%%%%%%%%%%%%%%%%%  @@@@@@@@@@@@@OO@@@@@@@@@@@@@@@@@@@            #########   %%%",
"%%%%%%%%%%%%%%%%%%%%%%%%%%%%%%%% oo @@@  @@@@@@@OOOOO@@@@@@@@@@@@@@@@@@@@@@@@@@@@         %%%%%%",
"%%%%%%%%%%%%%%%%%%%%%%%%%%%%%%%% oo @@@  @@@@@@@OOOOO@@@@@@@@@@@@@@@@@@@@@@@@@@@@         %%%%%%",
"%%%%%%%%%.......................ooo @@@  @@@@@@@@@@@@@@@@@@@@@@@@@@@@@@@@@@@@@@@@@@@@@@@@ %%%%%%",
"%%%%%%%%%%%%%%%%%%%%%%%%%%%%%%%% oo @@@  @OOO@@@@@@@@@OOOOOOOOOOOOOOO@@@@@@@@@@@@@@@@@O@@ %%%%%%",
"%%%%%%%%%%%%%%%%%%%%%%%%%%%%%%%% oo @@@  @OOO@@@@@@@@@OOOOOOOOOOOOOOO@@@@@@@@@@@@@@@@@O@@ %%%%%%",
"%%%%%%%%%%%%%%%%%%%%%%%%%%%%%%%%%  @@@@@@@@@O@@@@@@@@@@@@@@@@@@@@@@@@OOOOOOOOOOO@@@@@@@@@ %%%%%%",
"%%%%%%%%%%%%%%%%%%%%%%%%%%%%%%%%%%%      @@@@@@@@@@@@@@@@@@@@@@@@@@@@@@@@@@@@@@@@@@@@@@@@ %%%%%%",
"%%%%%%%%%%%%%%%%%%%%%%%%%%%%%%%%%%%      @@@@@@@@@@@@@@@@@@@@@@@@@@@@@@@@@@@@@@@@@@@@@@@@ %%%%%%",
"%%%%%%%%%%%%%%%%%%%%%%%%%%%%%%%%%%%%%%%%%                @@ @@ @@@@@@@@@@@@@@@@@@@@@@@@  %%%%%%%",
"%%%%%%%%%%%%%%%%%%%%%%%%%%%%%%%%%%%%%%%%%%%%%%%%%%%%%%%%%  $  $                        %%%%%%%%%",
"%%%%%%%%%%%%%%%%%%%%%%%%%%%%%%%%%%%%%%%%%%%%%%%%%%%%%%%%%  $  $                        %%%%%%%%%",
"%%%%%%%%%%%%%%%%%%%%%%%%%%%%%%%%%%%%%%%%%%%%%%%%%%%%%%%%%XX$XX$XX%%%%%%%%%%%%%%%%%%%%%%%%%%%%%%%",
"%%%%%%%%%%%%%%%%%%%%%%%%%%%%%%%%%%%%%%%%%%%%%%%%%%%%%%%%%XX$XX$XX%%%%%%%%%%%%%%%%%%%%%%%%%%%%%%%",
"%%%%%%%%%%%%%%%%%%%%%%%%%%%%%%%%%%%%%%%%%%%%%%%%%%%%%%%%%XX$XX$XX%%%%%%%%%%%%%%%%%%%%%%%%%%%%%%%",
"%%%%%%%%%%%%%%%%%%%%%%%%%%%%%%%%%%%%%%%%%%%%%%%%%%%%%%%%%%%X$$X%%%%%%%%%%%%%%%%%%%%%%%%%%%%%%%%%",
"%%%%%%%%%%%%%%%%%%%%%%%%%%%%%%%%%%%%%%%%%%%%%%%%%%%%%%%%%%%X$$X%%%%%%%%%%%%%%%%%%%%%%%%%%%%%%%%%",
"%%%%%%%%%%%%%%%%%%%%%%%%%%%%%%%%%%%%%%%%%%%%%%%%%%%%%%%%%%%X$$X%%%%%%%%%%%%%%%%%%%%%%%%%%%%%%%%%",
"%%%%%%%%%%%%%%%%%%%%%%%%%%%%%%%%%%%%%%%%%%%%%%%%%%%%%%%%%%%X$$X%%%%%%%%%%%%%%%%%%%%%%%%%%%%%%%%%",
"%%%%%%%%%%%%%%%%%%%%%%%%%%%%%%%%%%%%%%%%%%%%%%%%%%%%%%%%%XX$XX$XX%%%%%%%%%%%%%%%%%%%%%%%%%%%%%%%",
"%%%%%%%%%%%%%%%%%%%%%%%%%%%%%%%%%%%%%%%%%%%%%%%%%%%%%%%%%XX$XX$XX%%%%%%%%%%%%%%%%%%%%%%%%%%%%%%%",
"%%%%%%%%%%%%%%%%%%%%%%%%%%%%%%%%%%%%%%%%%%%%%%%%%%%%%%%%%XX$XX$XX%%%%%%%%%%%%%%%%%%%%%%%%%%%%%%%",
"%%%%%%%%%%%%%%%%%%%%%%%%%%%%%%%%%%%%%%%%%%%%%%%%%%%%%%%%XXX$XX$XXX%%%%%%%%%%%%%%%%%%%%%%%%%%%%%%",
"%%%%%%%%%%%%%%%%%%%%%%%%%%%%%%%%%%%%%%%%%%%%%%%%%%%%%%%%XXX$XX$XXX%%%%%%%%%%%%%%%%%%%%%%%%%%%%%%",
"%%%%%%%%%%%%%%%%%%%%%%%%%%%%%%  %%%%%%%%%%%%%%%%%%%%%%%%X$$X$$X$$X%%%%%%%%%%%%%%%%%%%%%%%%%%%%%%",
"%%%%%%%%%%%%%%%%%%%%%%%%%%%%%%   %%%%%%%%%%%%%%%%%%%%%%%X$$X$$X$$X%%%%%%%%%%%%%%%%%%%%%%%%%%%%%%",
"%%%%%%%%%%%%%%%%%%%%%%%%%%%%%%   %%%%%%%%%%%%%%%%%%%%%%%X$$X$$X$$X%%%%%%%%%%%%%%%%%%%%%%%%%%%%%%",
"%%%%%%%%%%%%%%%%%%%%%%%%%%%%%%     %%%%%%%%%%%%%%%%%%%%%XXXXXXX$$X%%%%%%%%%%%%%%%%%%%%%%%%%%%%%%",
"%%%%%%%%%%%%%%%%%%%%%%%%%%%%%%  @   %%%%%%%%%%%%%%%%%%%%X@@@@@@XXX%%%%%%%%%%%%%%%%%%%%%%%%%%%%%%",
"%%%%%%%%%%%%%%%%%%%%%%%%%%%%%%  @   %%%%%%%%%%%%%%%%%%%%X@@@@@@XXX%%%%%%%%%%%%%%%%%%%%%%%%%%%%%%",
"%%%%%%%%%%%%%%%%%%%%%%%%%%      @@@   %%%%%%%%%%%%%%%%%% @@@@@@@@         %%%%%%%%%%%%%%%%%%%%%%",
"%%%%%%%%%%%%%%%%%%%%%%%%%%oooo  @OO@   %%%%%%%%%%%      @@@@@@@@@@@@@@@@@@       %%%%%%%%%%%%%%%",
"%%%%%%%%%%%%%%%%%%%%%%%%%%oooo  @OO@   %%%%%%%%%%%      @@@@@@@@@@@@@@@@@@       %%%%%%%%%%%%%%%",
"%%%%%%%%%%%%%%%%%%%%%%%%%%%     @OO@@@@           @@@@@@@@@@@@@@@@@@@@@@@@@@@@@@   %%%%%%%%%%%%%",
"%%%%%%%%%%%%%%%%%%%%         @@@@@@@@@@@@@@@@@@@@@O@@@@@@@@@OOOOOOOOO@@@@@@@@@OO@   %%%%%%%%%%%%",
"%%%%%%%%%%%%%%%%%%%%         @@@@@@@@@@@@@@@@@@@@@O@@@@@@@@@OOOOOOOOO@@@@@@@@@OO@   %%%%%%%%%%%%",
"%%%%%%%%%%%%%%%%%%++ @@@@@@@@@@@@      @@@@@@@@@@@@@@@OOOOOO@@@@@@@@@     @@@@OO@@@ %%%%%%%%%%%%",
"%%%%%%%%%%%%%%%%%%++ @@@@@@@@@@@@      @@@@@@@@@@@@@@@OOOOOO@@@@@@@@@     @@@@OO@@@ %%%%%%%%%%%%",
"%%%%%%%%%%%%%%%%%%++ @@@@@@@@@@@@      @@@@@@@@@@@@@@@OOOOOO@@@@@@@@@     @@@@OO@@@ %%%%%%%%%%%%",
"%%%%%%%%%%%%%%%%%%%%         @@@@@@@@@@@@@@@@@@@@@O@@@@@@@@@OOOOOOOOO@@@@@@@@@OO@   %%%%%%%%%%%%",
"%%%%%%%%%%%%%%%%%%%%%%%%%%%     @OO@@@@           @@@@@@@@@@@@@@@@@@@@@@@@@@@@@@   %%%%%%%%%%%%%",
"%%%%%%%%%%%%%%%%%%%%%%%%%%%     @OO@@@@           @@@@@@@@@@@@@@@@@@@@@@@@@@@@@@   %%%%%%%%%%%%%",
"%%%%%%%%%%%%%%%%%%%%%%%%%%oooo  @OO@   %%%%%%%%%%%      @@@@@@@@@@@@@@@@@@       %%%%%%%%%%%%%%%",
"%%%%%%%%%%%%%%%%%%%%%%%%%%      @@@   %%%%%%%%%%%%%%%%%% @@@@@@@@         %%%%%%%%%%%%%%%%%%%%%%",
"%%%%%%%%%%%%%%%%%%%%%%%%%%      @@@   %%%%%%%%%%%%%%%%%% @@@@@@@@         %%%%%%%%%%%%%%%%%%%%%%",
"%%%%%%%%%%%%%%%%%%%%%%%%%%%%%%  @   %%%%%%%%%%%%%%%%%%%%X@@@@@@XXX%%%%%%%%%%%%%%%%%%%%%%%%%%%%%%",
"%%%%%%%%%%%%%%%%%%%%%%%%%%%%%%     %%%%%%%%%%%%%%%%%%%%%XXXXXXX$$X%%%%%%%%%%%%%%%%%%%%%%%%%%%%%%",
"%%%%%%%%%%%%%%%%%%%%%%%%%%%%%%     %%%%%%%%%%%%%%%%%%%%%XXXXXXX$$X%%%%%%%%%%%%%%%%%%%%%%%%%%%%%%",
"%%%%%%%%%%%%%%%%%%%%%%%%%%%%%%   %%%%%%%%%%%%%%%%%%%%%%%X$$X$$X$$X%%%%%%%%%%%%%%%%%%%%%%%%%%%%%%",
"%%%%%%%%%%%%%%%%%%%%%%%%%%%%%%  %%%%%%%%%%%%%%%%%%%%%%%%X$$X$$X$$X%%%%%%%%%%%%%%%%%%%%%%%%%%%%%%",
"%%%%%%%%%%%%%%%%%%%%%%%%%%%%%%  %%%%%%%%%%%%%%%%%%%%%%%%X$$X$$X$$X%%%%%%%%%%%%%%%%%%%%%%%%%%%%%%",
"%%%%%%%%%%%%%%%%%%%%%%%%%%%%%%%%%%%%%%%%%%%%%%%%%%%%%%%%XXX$XX$XXX%%%%%%%%%%%%%%%%%%%%%%%%%%%%%%",
"%%%%%%%%%%%%%%%%%%%%%%%%%%%%%%%%%%%%%%%%%%%%%%%%%%%%%%%%%XX$XX$XX%%%%%%%%%%%%%%%%%%%%%%%%%%%%%%%",
"%%%%%%%%%%%%%%%%%%%%%%%%%%%%%%%%%%%%%%%%%%%%%%%%%%%%%%%%%XX$XX$XX%%%%%%%%%%%%%%%%%%%%%%%%%%%%%%%",
"%%%%%%%%%%%%%%%%%%%%%%%%%%%%%%%%%%%%%%%%%%%%%%%%%%%%%%%%%XX$XX$XX%%%%%%%%%%%%%%%%%%%%%%%%%%%%%%%",
"%%%%%%%%%%%%%%%%%%%%%%%%%%%%%%%%%%%%%%%%%%%%%%%%%%%%%%%%%%%X$$X%%%%%%%%%%%%%%%%%%%%%%%%%%%%%%%%%",
"%%%%%%%%%%%%%%%%%%%%%%%%%%%%%%%%%%%%%%%%%%%%%%%%%%%%%%%%%%%X$$X%%%%%%%%%%%%%%%%%%%%%%%%%%%%%%%%%",
"%%%%%%%%%%%%%%%%%%%%%%%%%%%%%%%%%%%%%%%%%%%%%%%%%%%%%%%%%%%X$$X%%%%%%%%%%%%%%%%%%%%%%%%%%%%%%%%%",
"%%%%%%%%%%%%%%%%%%%%%%%%%%%%%%%%%%%%%%%%%%%%%%%%%%%%%%%%%%%X$$X%%%%%%%%%%%%%%%%%%%%%%%%%%%%%%%%%",
"%%%%%%%%%%%%%%%%%%%%%%%%%%%%%%%%%%%%%%%%%%%%%%%%%%%%%%%%%%%X$$X%%%%%%%%%%%%%%%%%%%%%%%%%%%%%%%%%",
"%%%%%%%%%%%%%%%%%%%%%%%%%%%%%%%%%%%%%%%%%%%%%%%%%%%%%%%%%XX$XX$XX%%%%%%%%%%%%%%%%%%%%%%%%%%%%%%%",
"%%%%%%%%%%%%%%%%%%%%%%%%%%%%%%%%%%%%%%%%%%%%%%%%%%%%%%%%%XX$XX$XX%%%%%%%%%%%%%%%%%%%%%%%%%%%%%%%",
"%%%%%%%%%%%%%%%%%%%%%%%%%%%%%%%%%%%%%%%%%%%%%%%%%%%%%%%%%XX$XX$XX%%%%%%%%%%%%%%%%%%%%%%%%%%%%%%%",
"%%%%%%%%%%%%%%%%%%%%%%%%%%%%%%%%%%%%%%%%%%%%%%%%%%%%%%%%%  $  $                        %%%%%%%%%",
"%%%%%%%%%%%%%%%%%%%%%%%%%%%%%%%%%%%%%%%%%                @@ @@ @@@@@@@@@@@@@@@@@@@@@@@@  %%%%%%%",
"%%%%%%%%%%%%%%%%%%%%%%%%%%%%%%%%%%%%%%%%%                @@ @@ @@@@@@@@@@@@@@@@@@@@@@@@  %%%%%%%",
"%%%%%%%%%%%%%%%%%%%%%%%%%%%%%%%%%%%      @@@@@@@@@@@@@@@@@@@@@@@@@@@@@@@@@@@@@@@@@@@@@@@@ %%%%%%",
"%%%%%%%%%%%%%%%%%%%%%%%%%%%%%%%%%  @@@@@@@@@O@@@@@@@@@@@@@@@@@@@@@@@@OOOOOOOOOOO@@@@@@@@@ %%%%%%",
"%%%%%%%%%%%%%%%%%%%%%%%%%%%%%%%%%  @@@@@@@@@O@@@@@@@@@@@@@@@@@@@@@@@@OOOOOOOOOOO@@@@@@@@@ %%%%%%",
"%%%%%%%%%%%%%%%%%%%%%%%%%%%%%%%% oo @@@  @OOO@@@@@@@@@OOOOOOOOOOOOOOO@@@@@@@@@@@@@@@@@O@@ %%%%%%",
"%%%%%%%%%.......................ooo @@@  @@@@@@@@@@@@@@@@@@@@@@@@@@@@@@@@@@@@@@@@@@@@@@@@ %%%%%%",
"%%%%%%%%%.......................ooo @@@  @@@@@@@@@@@@@@@@@@@@@@@@@@@@@@@@@@@@@@@@@@@@@@@@ %%%%%%",
"%%%%%%%%%%%%%%%%%%%%%%%%%%%%%%%% oo @@@  @@@@@@@OOOOO@@@@@@@@@@@@@@@@@@@@@@@@@@@@         %%%%%%",
"%%%%%%%%%%%%%%%%%%%%%%%%%%%%%%%%%  @@@@@@@@@@@@@OO@@@@@@@@@@@@@@@@@@@            #########   %%%",
"%%%%%%%%%%%%%%%%%%%%%%%%%%%%%%%%%  @@@@@@@@@@@@@OO@@@@@@@@@@@@@@@@@@@            #########   %%%",
"%%%%%%%%%%%%%%%%%%%%%%%%%%%%%%%%%%%      @@@@@@@@@@@@                ##################   %%%%%%",
"%%%%%%%%%%%%%%%%%%%%%%%%%%%%%%%%%%%%%%%%%            ################                  %%%%%%%%%",
"%%%%%%%%%%%%%%%%%%%%%%%%%%%%%%%%%%%%%%%%%            ################                  %%%%%%%%%",
"%%%%%%%%%%%%%%%%%%%%%%%%%%%%%%%%%%%%%%%%%%%%%%%%  ##################### %%%%%%%%%%%%%%%%%%%%%%%%",
"%%%%%%%%%%%%%%%%%%%%%%%%%%%%%%%%%%%%%%%%%%%%%%%%%%       ###           %%%%%%%%%%%%%%%%%%%%%%%%%",
"%%%%%%%%%%%%%%%%%%%%%%%%%%%%%%%%%%%%%%%%%%%%%%%%%%       ###           %%%%%%%%%%%%%%%%%%%%%%%%%",
"%%%%%%%%%%%%%%%%%%%%%%%%%%%%%%%%%%%%%%%%%%%%%%%%%%%%%%%%%   %%%%%%%%%%%%%%%%%%%%%%%%%%%%%%%%%%%%",
"%%%%%%%%%%%%%%%%%%%%%%%%%%%%%%%%%%%%%%%%%%%%%%%%%%%%%%%%%%%%%%%%%%%%%%%%%%%%%%%%%%%%%%%%%%%%%%%%",
"%%%%%%%%%%%%%%%%%%%%%%%%%%%%%%%%%%%%%%%%%%%%%%%%%%%%%%%%%%%%%%%%%%%%%%%%%%%%%%%%%%%%%%%%%%%%%%%%",
"%%%%%%%%%%%%%%%%%%%%%%%%%%%%%%%%%%%%%%%%%%%%%%%%%%%%%%%%%%%%%%%%%%%%%%%%%%%%%%%%%%%%%%%%%%%%%%%%"
};
