/* XPM */
static char *result[] = {
/* columns rows colors chars-per-pixel */
"96 96 20 1 ",
"  c black",
". c #6E7278",
"X c #747576",
"o c #D91A1A",
"O c #D9881A",
"+ c #C5D91A",
"@ c #FFEC00",
"# c #E4FF00",
"$ c #3E1AD9",
"% c #1A63D9",
"& c #6B4AFB",
"* c #098BF2",
"= c #2E99EE",
"- c #25B9E3",
"; c #4D9DDB",
": c #00C7FF",
"> c #25DBE3",
", c #04EDF7",
"< c white",
"1 c None",
/* pixels */
"111111111111111111111111111111111111111111111111111111111111111111111111111111111111111111111111",
"111111111111111111111111111111111111111111111111111111111111111111111111111111111111111111111111",
"111111                     111111111111111111111111111111111111111111                     111111",
"111   ::-:: ::::::--:>>:--:      111111111111111111111111111111      ::-::>::-::::::  :--:   111",
"111   ::-:: ::::::--:>>:--:      111111111111111111111111111111      ::-::>::-::::::  :--:   111",
"   ,,:--:>> :::--:::-::-:::>>::::   111111111111111111111111   :::::>:::--:--:::-:::  >::-::,   ",
"           ;        :                 111111111111111111111                ::       ;;          ",
"           ;        :                 111111111111111111111                ::       ;;          ",
"111111111  ;  ****** 111111111111111111111111111111111111111111111111111111  ****** ;; 111111111",
"11111111 ;;;  *%%****  111111111111111111111111111111111111111111111111111 *****%** ;;;  1111111",
"11111111 ;;;  *%%****  111111111111111111111111111111111111111111111111111 *****%** ;;;  1111111",
"11111111 ;;;  *******  111111111111111111111111111111111111111111111111111 ******** ;;;  1111111",
"11111111 ;;;  ***=***  1111111111111111111111      11111111111111111111111 ***==*** ;;;  1111111",
"11111111 ;;;  ***=***  1111111111111111111111      11111111111111111111111 ***==*** ;;;  1111111",
"11111111 ;;;  ***=***  111111111111111111111   ***   111111111111111111111 ***==*** ;;;  1111111",
"11111111 ;; *********  1111111111111111111   ******   11111111111111111111 *********  ;  1111111",
"11111111 ;; *********  1111111111111111111   ******   11111111111111111111 *********  ;  1111111",
"11111111 ;; *****%***  1111111111111111111  *%%%%%%** 11111111111111111111 ***%%****  ;  1111111",
"11111111 ;; *****%***  1111111111111111111  ********* 11111111111111111111 ***%%****  ;  1111111",
"11111111 ;; *****%***  1111111111111111111  ********* 11111111111111111111 ***%%****  ;  1111111",
"11111111 ;; *****%***  1111111111111111111  ********* 11111111111111111111 ***%%****  ;  1111111",
"11111111 ;; *****%***  1111111111111111111  ********* 11111111111111111111 ***%%****  ;  1111111",
"11111111 ;; *****%***  1111111111111111111  ********* 11111111111111111111 ***%%****  ;  1111111",
"11111111 ;; *****%***  111111111111111111 *****   ****  111111111111111111 ***%%****  ;  1111111",
"111111   ;; *****%***  111111111111111111 *****   ****  111111111111111111 ***%%****  ;   111111",
"111111   ;; *****%***  111111111111111111 *****   ****  111111111111111111 ***%%****  ;   111111",
"11111 ;; ;; *****%***  111111111111111111 *****   ****  111111111111111111 ***%%****  ;  ;  1111",
"11111 ;;;  ****%%****  111111111111111111 ***%%***%***  111111111111111111 *****%***** ;;;  1111",
"11111 ;;;  ****%%****  111111111111111111 ***%%***%***  111111111111111111 *****%***** ;;;  1111",
"11111 ;;;  ****%%****  111111111111111111 ***%%***%***  111111111111111111 *****%***** ;;;  1111",
"11111 ;;;  ****%%****  1111111111XXXXXXXX ***%%***%***  XXXXXXX11111111111 *****%***** ;;;  1111",
"11111 ;;;  ****%%****  1111111111XXXXXXXX ***%%***%***  XXXXXXX11111111111 *****%***** ;;;  1111",
"11111 ;;;  *==*%%****  XXX1111XXXXX<<<<XX****%%***%*****X<<<<<XXXX11111XXX *****%**=** ;;;  1111",
"11111 ;;;  *==*%%*** <<<<<XXXX<<<<<XXXX******%%***%******XXXXX<<<<XXXXX<<<<  ***%**=** ;;;  1111",
"11111 ;;;  *==*%%*** <<<<<XXXX<<<<<XXXX******%%***%******XXXXX<<<<XXXXX<<<<  ***%**=** ;;;  1111",
"11111 ;;;  *==*%%****  XXX<<<<XXXXX<<<X**===*%%***%**===*XX<<<XXXX<<<<<XXX *****%**=** ;;;  1111",
"111  ;;;;  *==*%%*** <<<<<XXXX<<<<<XXXX********%%%*******XXXXX<<<<XXXXX<<<<  ***%**=** ;;;;; 111",
"111  ;;;;  *==*%%*** <<<<<XXXX<<<<<XXXX********%%%*******XXXXX<<<<XXXXX<<<<  ***%**=** ;;;;; 111",
"111  ;;;;  *==*%%****  XXX1111XXXXX<<<X********%%%*******XX<<<XXXX11111XXX *****%**=** ;;;;; 111",
"11111 ;;;  ****%%*** 111111111111XXXXXXXX *****%%%****  XXXXXXX111111111111  ***%***** ;;;  1111",
"11111 ;;;  ****%%*** 111111111111XXXXXXXX *****%%%****  XXXXXXX111111111111  ***%***** ;;;  1111",
"11111 ;;;  ****%%*** 111111111111111111111  ***%%%*** 111111111111111111111  ***%***** ;;;  1111",
"11111 ;;;  ********* 111111111111111111111  ********* 111111111111111111111  ********* ;;;  1111",
"11111 ;;;  ********* 111111111111111111111  ********* 111111111111111111111  ********* ;;;  1111",
"11111 ;; ***%%****** 111111111111111111111  ********* 111111111111111111111  ******%***  ;  1111",
"11111 ;; ***%%****** 111111111111111111111  *%%***%** 111111111111111111111  ******%***  ;  1111",
"11111 ;; ***%%****** 111111111111111111111  *%%***%** 111111111111111111111  ******%***  ;  1111",
"111111   **%%%****** 11111111111111111111111 ******  1111111111111111111111  ******%%%*   111111",
"11111111 *********** 11111111111111111111111 ******  1111111111111111111111  **********  1111111",
"11111111 *********** 11111111111111111111111 ******  1111111111111111111111  **********  1111111",
"11111111 *********** 11111111111111111111111 ******  1111111111111111111111  **********  1111111",
"11111111 ******%%%** 11111111111111111111111 ******  1111111111111111111111  *%%%******  1111111",
"11111111 ******%%%** 11111111111111111111111 ******  1111111111111111111111  *%%%******  1111111",
"11111111 ******%%*** 11111111111111111111111 ******  1111111111111111111111  ***%******  1111111",
"11111111 *********** 11111111111111111111111 ******  1111111111111111111111  **********  1111111",
"11111111 *********** 11111111111111111111111 ******  1111111111111111111111  **********  1111111",
"111111111  *     *  111111111111111111111111 ******  111111111111111111111111 **    ** 111111111",
"111111111  *******  1111111111111111111111  ***   *** 11111111111111111111111 ******** 111111111",
"111111111  *******  1111111111111111111111  ***   *** 11111111111111111111111 ******** 111111111",
"111111111  *******  111111111111111111111   ***   ***   111111111111111111111 ******** 111111111",
"111111111  *     *  1111111111111111111   *****   ****   11111111111111111111 **    ** 111111111",
"111111111  *     *  1111111111111111111   *****   ****   11111111111111111111 **    ** 111111111",
"11111111111 $$$$$ 11111111111111111111   *%%%**   *%%%**   1111111111111111111  $$$$  1111111111",
"111111111111  $  1111111111111111111   ******************   11111111111111111111 $$ 111111111111",
"111111111111  $  1111111111111111111   ******************   11111111111111111111 $$ 111111111111",
"11111111111111.11111111111111111111          ******           1111111111111111111..1111111111111",
"11111111111111.11111111111111111111111111 $$ ******  $  1111111111111111111111111..1111111111111",
"11111111111111.11111111111111111111111111 $$ ******  $  1111111111111111111111111..1111111111111",
"11111111111111.11111111111111111111111111 $$   ***   $  1111111111111111111111111..1111111111111",
"11111111111111.11111111111111111111111111 $$1  *** 11$  1111111111111111111111111..1111111111111",
"11111111111111.11111111111111111111111111 $$1  *** 11$  1111111111111111111111111..1111111111111",
"11111111111111.111111111111111111111111111111  *** 111111111111111111111111111111..1111111111111",
"11111111111111.111111111111111111111111111111  *** 111111111111111111111111111111..1111111111111",
"11111111111111.111111111111111111111111111111  *** 111111111111111111111111111111..1111111111111",
"11111111111111.111111111111111111111111111111  *** 111111111111111111111111111111..1111111111111",
"11111111111111.111111111111111111111111111111      111111111111111111111111111111..1111111111111",
"11111111111111.111111111111111111111111111111      111111111111111111111111111111..1111111111111",
"11111111111111.11111111111111111111111111111111&&&1111111111111111111111111111111..1111111111111",
"11111111111111.11111111111111111111111111111111ooo1111111111111111111111111111111..1111111111111",
"11111111111111.11111111111111111111111111111111ooo1111111111111111111111111111111..1111111111111",
"11111111111111.11111111111111111111111111111111oOO1111111111111111111111111111111..1111111111111",
"11111111111111.11111111111111111111111111111111Ooo1111111111111111111111111111111..1111111111111",
"11111111111111.11111111111111111111111111111111Ooo1111111111111111111111111111111..1111111111111",
"11111111111111.11111111111111111111111111111111oOO1111111111111111111111111111111..1111111111111",
"11111111111111.11111111111111111111111111111111OOO1111111111111111111111111111111..1111111111111",
"11111111111111.11111111111111111111111111111111OOO1111111111111111111111111111111..1111111111111",
"11111111111111.11111111111111111111111111111111@OO1111111111111111111111111111111..1111111111111",
"11111111111111111111111111111111111111111111111+++1111111111111111111111111111111111111111111111",
"11111111111111111111111111111111111111111111111+++1111111111111111111111111111111111111111111111",
"11111111111111111111111111111111111111111111111+111111111111111111111111111111111111111111111111",
"111111111111111111111111111111111111111111@@1111111++1111111111111111111111111111111111111111111",
"111111111111111111111111111111111111111111@@1111111++1111111111111111111111111111111111111111111",
"111111111111111111111111111111111111111111111##1##1111111111111111111111111111111111111111111111",
"111111111111111111111111111111111111111111++1111++1111++1111111111111111111111111111111111111111",
"111111111111111111111111111111111111111111++1111++1111++1111111111111111111111111111111111111111",
"111111111111111111111111111111111111111@@111111111111+11@111111111111111111111111111111111111111"
};
