/* XPM */
static char *result[] = {
/* columns rows colors chars-per-pixel */
"96 96 10 1 ",
"  c black",
". c #6E7278",
"X c #747576",
"o c #3E1AD9",
"O c #1A63D9",
"+ c #6B4AFB",
"@ c #098BF2",
"# c #4D9DDB",
"$ c white",
"% c None",
/* pixels */
"%%%%%%%%%%%%%%%%%%%%%%%%%%%%%%%%%%%%%%%%%%%%%%%%%%%%%%%%%%%%%%%%%%%%%%%%%%%%%%%%%%%%%%%%%%%%%%%%",
"%%%%%%%%%%%%%%%%%%%%%%%%%%%%%%%%%%%%%%%%%%%%%%%%%%%%%%%%%%%%%%%%%%%%%%%%%%%%%%%%%%%%%%%%%%%%%%%%",
"%%%%%%%%%%%%%%%%%%%%%%%%%%%%%%%%%%%%%%%%%%%%%%%%%%%%%%%%%%%%%%%%%%%%%%%%%%%%%%%%%%%%%%%%%%%%%%%%",
"%%%%%%%%%%%%%%%%%%%%%%%%%%%%%%%%%%%%   %%%%%%%%%%%%%%%%%%%%%%%%%%%%%%%%%%%%%%%%%%%%%%%%%%%%%%%%%",
"%%%%%%%%%%%%%%%%%%%%%%%%%%%%%%%%%%%%   %%%%%%%%%%%%%%%%%%%%%%%%%%%%%%%%%%%%%%%%%%%%%%%%%%%%%%%%%",
"%%%%%%%%%%%%%%%%%%%%%%%%%%          ###        %%%%%%%%%%%%%%%%%%%%%%%%%%%%%%%%%%%%%%%%%%%%%%%%%",
"%%%%%%%%%%%%%%%%%%%%%%%%  ##################### %%%%%%%%%%%%%%%%%%%%%%%%%%%%%%%%%%%%%%%%%%%%%%%%",
"%%%%%%%%%%%%%%%%%%%%%%%%  ##################### %%%%%%%%%%%%%%%%%%%%%%%%%%%%%%%%%%%%%%%%%%%%%%%%",
"%%%%%%%%%                  #################            %%%%%%%%%%%%%%%%%%%%%%%%%%%%%%%%%%%%%%%%",
"%%%%%%   ##################                 @@@@@@@@@@@@      %%%%%%%%%%%%%%%%%%%%%%%%%%%%%%%%%%",
"%%%%%%   ##################                 @@@@@@@@@@@@      %%%%%%%%%%%%%%%%%%%%%%%%%%%%%%%%%%",
"%%%   #########            @@@@@@@@@@@@@@@@@@@@O@@@@@@@@@@@@@@ %%%%%%%%%%%%%%%%%%%%%%%%%%%%%%%%%",
"%%%%%%         @@@@@@@@@@@@@@@@@@@@@@@@@@@@@OOOO@@@@@@@@ @@@  o  %%%%%%%%%%%%%%%%%%%%%%%%%%%%%%%",
"%%%%%%         @@@@@@@@@@@@@@@@@@@@@@@@@@@@@OOOO@@@@@@@@ @@@  o  %%%%%%%%%%%%%%%%%%%%%%%%%%%%%%%",
"%%%%%%  @@@@@@@@@@@@@@@@@@@@@@@@@@@@@@@@@@@@@@@@@@@@@@@@ @@@  ooo......................%%%%%%%%%",
"%%%%%%  @OO@@@@@@@@@@@@@@@@OOOOOOOOOOOOOOO@@@@@@@@@OOO@@ @@@  o  %%%%%%%%%%%%%%%%%%%%%%%%%%%%%%%",
"%%%%%%  @OO@@@@@@@@@@@@@@@@OOOOOOOOOOOOOOO@@@@@@@@@OOO@@ @@@  o  %%%%%%%%%%%%%%%%%%%%%%%%%%%%%%%",
"%%%%%%  @@@@@@@@@OOOOOOOOOO@@@@@@@@@@@@@@@@@@@@@@@@OO@@@@@@@@@ %%%%%%%%%%%%%%%%%%%%%%%%%%%%%%%%%",
"%%%%%%  @@@@@@@@@@@@@@@@@@@@@@@@@@@@@@@@@@@@@@@@@@@@@@@@      %%%%%%%%%%%%%%%%%%%%%%%%%%%%%%%%%%",
"%%%%%%  @@@@@@@@@@@@@@@@@@@@@@@@@@@@@@@@@@@@@@@@@@@@@@@@      %%%%%%%%%%%%%%%%%%%%%%%%%%%%%%%%%%",
"%%%%%%%% @@@@@@@@@@@@@@@@@@@@@@@@  @  @                 %%%%%%%%%%%%%%%%%%%%%%%%%%%%%%%%%%%%%%%%",
"%%%%%%%%%                        $$ $$ %%%%%%%%%%%%%%%%%%%%%%%%%%%%%%%%%%%%%%%%%%%%%%%%%%%%%%%%%",
"%%%%%%%%%                        $$ $$ %%%%%%%%%%%%%%%%%%%%%%%%%%%%%%%%%%%%%%%%%%%%%%%%%%%%%%%%%",
"%%%%%%%%%%%%%%%%%%%%%%%%%%%%%%%%X$$X$$X%%%%%%%%%%%%%%%%%%%%%%%%%%%%%%%%%%%%%%%%%%%%%%%%%%%%%%%%%",
"%%%%%%%%%%%%%%%%%%%%%%%%%%%%%%%%X$$X$$X%%%%%%%%%%%%%%%%%%%%%%%%%%%%%%%%%%%%%%%%%%%%%%%%%%%%%%%%%",
"%%%%%%%%%%%%%%%%%%%%%%%%%%%%%%%%X$$X$$X%%%%%%%%%%%%%%%%%%%%%%%%%%%%%%%%%%%%%%%%%%%%%%%%%%%%%%%%%",
"%%%%%%%%%%%%%%%%%%%%%%%%%%%%%%%%%XX$XX%%%%%%%%%%%%%%%%%%%%%%%%%%%%%%%%%%%%%%%%%%%%%%%%%%%%%%%%%%",
"%%%%%%%%%%%%%%%%%%%%%%%%%%%%%%%%%XX$XX%%%%%%%%%%%%%%%%%%%%%%%%%%%%%%%%%%%%%%%%%%%%%%%%%%%%%%%%%%",
"%%%%%%%%%%%%%%%%%%%%%%%%%%%%%%%%%XX$XX%%%%%%%%%%%%%%%%%%%%%%%%%%%%%%%%%%%%%%%%%%%%%%%%%%%%%%%%%%",
"%%%%%%%%%%%%%%%%%%%%%%%%%%%%%%%%%XX$XX%%%%%%%%%%%%%%%%%%%%%%%%%%%%%%%%%%%%%%%%%%%%%%%%%%%%%%%%%%",
"%%%%%%%%%%%%%%%%%%%%%%%%%%%%%%%%X$$X$$X%%%%%%%%%%%%%%%%%%%%%%%%%%%%%%%%%%%%%%%%%%%%%%%%%%%%%%%%%",
"%%%%%%%%%%%%%%%%%%%%%%%%%%%%%%%%X$$X$$X%%%%%%%%%%%%%%%%%%%%%%%%%%%%%%%%%%%%%%%%%%%%%%%%%%%%%%%%%",
"%%%%%%%%%%%%%%%%%%%%%%%%%%%%%%%%X$$X$$X%%%%%%%%%%%%%%%%%%%%%%%%%%%%%%%%%%%%%%%%%%%%%%%%%%%%%%%%%",
"%%%%%%%%%%%%%%%%%%%%%%%%%%%%%%XXX$$X$$XXX%%%%%%%%%%%%%%%%%%%%%%%%%%%%%%%%%%%%%%%%%%%%%%%%%%%%%%%",
"%%%%%%%%%%%%%%%%%%%%%%%%%%%%%%XXX$$X$$XXX%%%%%%%%%%%%%%%%%%%%%%%%%%%%%%%%%%%%%%%%%%%%%%%%%%%%%%%",
"%%%%%%%%%%%%%%%%%%%%%%%%%%%%%%XX$XX$XX$XX%%%%%%%%%%%%%%%%%%%%%%%% %%%%%%%%%%%%%%%%%%%%%%%%%%%%%%",
"%%%%%%%%%%%%%%%%%%%%%%%%%%%%%%XX$XX$XX$XX%%%%%%%%%%%%%%%%%%%%%%   %%%%%%%%%%%%%%%%%%%%%%%%%%%%%%",
"%%%%%%%%%%%%%%%%%%%%%%%%%%%%%%XX$XX$XX$XX%%%%%%%%%%%%%%%%%%%%%%   %%%%%%%%%%%%%%%%%%%%%%%%%%%%%%",
"%%%%%%%%%%%%%%%%%%%%%%%%%%%%%%XX$XXXXXXXX%%%%%%%%%%%%%%%%%%%%%    %%%%%%%%%%%%%%%%%%%%%%%%%%%%%%",
"%%%%%%%%%%%%%%%%%%%%%%%%%%%%%%XXX@@@@@@XX%%%%%%%%%%%%%%%%%%%   @@ %%%%%%%%%%%%%%%%%%%%%%%%%%%%%%",
"%%%%%%%%%%%%%%%%%%%%%%%%%%%%%%XXX@@@@@@XX%%%%%%%%%%%%%%%%%%%   @@ %%%%%%%%%%%%%%%%%%%%%%%%%%%%%%",
"%%%%%%%%%%%%%%%%%%%%%%%         @@@@@@@  %%%%%%%%%%%%%%%%%%   @@@      %%%%%%%%%%%%%%%%%%%%%%%%%",
"%%%%%%%%%%%%%%%        @@@@@@@@@@@@@@@@@@      %%%%%%%%%%   @@O@@ ooooo%%%%%%%%%%%%%%%%%%%%%%%%%",
"%%%%%%%%%%%%%%%        @@@@@@@@@@@@@@@@@@      %%%%%%%%%%   @@O@@ ooooo%%%%%%%%%%%%%%%%%%%%%%%%%",
"%%%%%%%%%%%%%%   @@@@@@@@@@@@@@@@@@@@@@@@@@@@@@          @@@@@O@@    %%%%%%%%%%%%%%%%%%%%%%%%%%%",
"%%%%%%%%%%%%   @@O@@@@@@@@@OOOOOOOOO@@@@@@@@@OO@@@@@@@@@@@@@@@@@@@@@         %%%%%%%%%%%%%%%%%%%",
"%%%%%%%%%%%%   @@O@@@@@@@@@OOOOOOOOO@@@@@@@@@OO@@@@@@@@@@@@@@@@@@@@@         %%%%%%%%%%%%%%%%%%%",
"%%%%%%%%%%%%  @@@O@@@@@    @@@@@@@@@OOOOOO@@@@@@@@@@@@@@@      @@@@@@@@@@@@  +%%%%%%%%%%%%%%%%%%",
"%%%%%%%%%%%%  @@@O@@@@@    @@@@@@@@@OOOOOO@@@@@@@@@@@@@@@      @@@@@@@@@@@@  +%%%%%%%%%%%%%%%%%%",
"%%%%%%%%%%%%  @@@O@@@@@    @@@@@@@@@OOOOOO@@@@@@@@@@@@@@@      @@@@@@@@@@@@  +%%%%%%%%%%%%%%%%%%",
"%%%%%%%%%%%%   @@O@@@@@@@@@OOOOOOOOO@@@@@@@@@OO@@@@@@@@@@@@@@@@@@@@@         %%%%%%%%%%%%%%%%%%%",
"%%%%%%%%%%%%%%   @@@@@@@@@@@@@@@@@@@@@@@@@@@@@@          @@@@@O@@    %%%%%%%%%%%%%%%%%%%%%%%%%%%",
"%%%%%%%%%%%%%%   @@@@@@@@@@@@@@@@@@@@@@@@@@@@@@          @@@@@O@@    %%%%%%%%%%%%%%%%%%%%%%%%%%%",
"%%%%%%%%%%%%%%%        @@@@@@@@@@@@@@@@@@      %%%%%%%%%%   @@O@@ ooooo%%%%%%%%%%%%%%%%%%%%%%%%%",
"%%%%%%%%%%%%%%%%%%%%%%%         @@@@@@@  %%%%%%%%%%%%%%%%%%   @@@      %%%%%%%%%%%%%%%%%%%%%%%%%",
"%%%%%%%%%%%%%%%%%%%%%%%         @@@@@@@  %%%%%%%%%%%%%%%%%%   @@@      %%%%%%%%%%%%%%%%%%%%%%%%%",
"%%%%%%%%%%%%%%%%%%%%%%%%%%%%%%XXX@@@@@@XX%%%%%%%%%%%%%%%%%%%   @@ %%%%%%%%%%%%%%%%%%%%%%%%%%%%%%",
"%%%%%%%%%%%%%%%%%%%%%%%%%%%%%%XX$XXXXXXXX%%%%%%%%%%%%%%%%%%%%%    %%%%%%%%%%%%%%%%%%%%%%%%%%%%%%",
"%%%%%%%%%%%%%%%%%%%%%%%%%%%%%%XX$XXXXXXXX%%%%%%%%%%%%%%%%%%%%%    %%%%%%%%%%%%%%%%%%%%%%%%%%%%%%",
"%%%%%%%%%%%%%%%%%%%%%%%%%%%%%%XX$XX$XX$XX%%%%%%%%%%%%%%%%%%%%%%   %%%%%%%%%%%%%%%%%%%%%%%%%%%%%%",
"%%%%%%%%%%%%%%%%%%%%%%%%%%%%%%XX$XX$XX$XX%%%%%%%%%%%%%%%%%%%%%%%% %%%%%%%%%%%%%%%%%%%%%%%%%%%%%%",
"%%%%%%%%%%%%%%%%%%%%%%%%%%%%%%XX$XX$XX$XX%%%%%%%%%%%%%%%%%%%%%%%% %%%%%%%%%%%%%%%%%%%%%%%%%%%%%%",
"%%%%%%%%%%%%%%%%%%%%%%%%%%%%%%XXX$$X$$XXX%%%%%%%%%%%%%%%%%%%%%%%%%%%%%%%%%%%%%%%%%%%%%%%%%%%%%%%",
"%%%%%%%%%%%%%%%%%%%%%%%%%%%%%%%%X$$X$$X%%%%%%%%%%%%%%%%%%%%%%%%%%%%%%%%%%%%%%%%%%%%%%%%%%%%%%%%%",
"%%%%%%%%%%%%%%%%%%%%%%%%%%%%%%%%X$$X$$X%%%%%%%%%%%%%%%%%%%%%%%%%%%%%%%%%%%%%%%%%%%%%%%%%%%%%%%%%",
"%%%%%%%%%%%%%%%%%%%%%%%%%%%%%%%%X$$X$$X%%%%%%%%%%%%%%%%%%%%%%%%%%%%%%%%%%%%%%%%%%%%%%%%%%%%%%%%%",
"%%%%%%%%%%%%%%%%%%%%%%%%%%%%%%%%%XX$XX%%%%%%%%%%%%%%%%%%%%%%%%%%%%%%%%%%%%%%%%%%%%%%%%%%%%%%%%%%",
"%%%%%%%%%%%%%%%%%%%%%%%%%%%%%%%%%XX$XX%%%%%%%%%%%%%%%%%%%%%%%%%%%%%%%%%%%%%%%%%%%%%%%%%%%%%%%%%%",
"%%%%%%%%%%%%%%%%%%%%%%%%%%%%%%%%%XX$XX%%%%%%%%%%%%%%%%%%%%%%%%%%%%%%%%%%%%%%%%%%%%%%%%%%%%%%%%%%",
"%%%%%%%%%%%%%%%%%%%%%%%%%%%%%%%%%XX$XX%%%%%%%%%%%%%%%%%%%%%%%%%%%%%%%%%%%%%%%%%%%%%%%%%%%%%%%%%%",
"%%%%%%%%%%%%%%%%%%%%%%%%%%%%%%%%%XX$XX%%%%%%%%%%%%%%%%%%%%%%%%%%%%%%%%%%%%%%%%%%%%%%%%%%%%%%%%%%",
"%%%%%%%%%%%%%%%%%%%%%%%%%%%%%%%%X$$X$$X%%%%%%%%%%%%%%%%%%%%%%%%%%%%%%%%%%%%%%%%%%%%%%%%%%%%%%%%%",
"%%%%%%%%%%%%%%%%%%%%%%%%%%%%%%%%X$$X$$X%%%%%%%%%%%%%%%%%%%%%%%%%%%%%%%%%%%%%%%%%%%%%%%%%%%%%%%%%",
"%%%%%%%%%%%%%%%%%%%%%%%%%%%%%%%%X$$X$$X%%%%%%%%%%%%%%%%%%%%%%%%%%%%%%%%%%%%%%%%%%%%%%%%%%%%%%%%%",
"%%%%%%%%%                        $$ $$ %%%%%%%%%%%%%%%%%%%%%%%%%%%%%%%%%%%%%%%%%%%%%%%%%%%%%%%%%",
"%%%%%%%% @@@@@@@@@@@@@@@@@@@@@@@@  @  @                 %%%%%%%%%%%%%%%%%%%%%%%%%%%%%%%%%%%%%%%%",
"%%%%%%%% @@@@@@@@@@@@@@@@@@@@@@@@  @  @                 %%%%%%%%%%%%%%%%%%%%%%%%%%%%%%%%%%%%%%%%",
"%%%%%%  @@@@@@@@@@@@@@@@@@@@@@@@@@@@@@@@@@@@@@@@@@@@@@@@      %%%%%%%%%%%%%%%%%%%%%%%%%%%%%%%%%%",
"%%%%%%  @@@@@@@@@OOOOOOOOOO@@@@@@@@@@@@@@@@@@@@@@@@OO@@@@@@@@@ %%%%%%%%%%%%%%%%%%%%%%%%%%%%%%%%%",
"%%%%%%  @@@@@@@@@OOOOOOOOOO@@@@@@@@@@@@@@@@@@@@@@@@OO@@@@@@@@@ %%%%%%%%%%%%%%%%%%%%%%%%%%%%%%%%%",
"%%%%%%  @OO@@@@@@@@@@@@@@@@OOOOOOOOOOOOOOO@@@@@@@@@OOO@@ @@@  o  %%%%%%%%%%%%%%%%%%%%%%%%%%%%%%%",
"%%%%%%  @@@@@@@@@@@@@@@@@@@@@@@@@@@@@@@@@@@@@@@@@@@@@@@@ @@@  ooo......................%%%%%%%%%",
"%%%%%%  @@@@@@@@@@@@@@@@@@@@@@@@@@@@@@@@@@@@@@@@@@@@@@@@ @@@  ooo......................%%%%%%%%%",
"%%%%%%         @@@@@@@@@@@@@@@@@@@@@@@@@@@@@OOOO@@@@@@@@ @@@  o  %%%%%%%%%%%%%%%%%%%%%%%%%%%%%%%",
"%%%   #########            @@@@@@@@@@@@@@@@@@@@O@@@@@@@@@@@@@@ %%%%%%%%%%%%%%%%%%%%%%%%%%%%%%%%%",
"%%%   #########            @@@@@@@@@@@@@@@@@@@@O@@@@@@@@@@@@@@ %%%%%%%%%%%%%%%%%%%%%%%%%%%%%%%%%",
"%%%%%%   ##################                 @@@@@@@@@@@@      %%%%%%%%%%%%%%%%%%%%%%%%%%%%%%%%%%",
"%%%%%%%%%                  #################            %%%%%%%%%%%%%%%%%%%%%%%%%%%%%%%%%%%%%%%%",
"%%%%%%%%%                  #################            %%%%%%%%%%%%%%%%%%%%%%%%%%%%%%%%%%%%%%%%",
"%%%%%%%%%%%%%%%%%%%%%%%%  ##################### %%%%%%%%%%%%%%%%%%%%%%%%%%%%%%%%%%%%%%%%%%%%%%%%",
"%%%%%%%%%%%%%%%%%%%%%%%%%%          ###        %%%%%%%%%%%%%%%%%%%%%%%%%%%%%%%%%%%%%%%%%%%%%%%%%",
"%%%%%%%%%%%%%%%%%%%%%%%%%%          ###        %%%%%%%%%%%%%%%%%%%%%%%%%%%%%%%%%%%%%%%%%%%%%%%%%",
"%%%%%%%%%%%%%%%%%%%%%%%%%%%%%%%%%%%%   %%%%%%%%%%%%%%%%%%%%%%%%%%%%%%%%%%%%%%%%%%%%%%%%%%%%%%%%%",
"%%%%%%%%%%%%%%%%%%%%%%%%%%%%%%%%%%%%%%%%%%%%%%%%%%%%%%%%%%%%%%%%%%%%%%%%%%%%%%%%%%%%%%%%%%%%%%%%",
"%%%%%%%%%%%%%%%%%%%%%%%%%%%%%%%%%%%%%%%%%%%%%%%%%%%%%%%%%%%%%%%%%%%%%%%%%%%%%%%%%%%%%%%%%%%%%%%%",
"%%%%%%%%%%%%%%%%%%%%%%%%%%%%%%%%%%%%%%%%%%%%%%%%%%%%%%%%%%%%%%%%%%%%%%%%%%%%%%%%%%%%%%%%%%%%%%%%"
};
